<svg xmlns="http://www.w3.org/2000/svg" xmlns:xlink="http://www.w3.org/1999/xlink" width="300" zoomAndPan="magnify" viewBox="0 0 224.87999 60" height="80" preserveAspectRatio="xMidYMid meet" version="1.0"><defs><g/></defs><path fill="#0066ff" d="M 14.3125 9.808594 C 14.066406 10.160156 12.332031 12.085938 10.457031 14.085938 C 5.15625 19.746094 3.183594 22.015625 2.859375 22.835938 C 2.683594 23.285156 2.648438 25.457031 2.777344 28.21875 C 2.949219 31.835938 3.085938 32.824219 3.410156 32.753906 C 3.636719 32.703125 6.488281 29.59375 9.742188 25.839844 L 15.660156 19.019531 L 15.65625 16.195312 C 15.65625 12.636719 15.335938 9.167969 15.011719 9.167969 C 14.875 9.167969 14.558594 9.457031 14.3125 9.808594 M 15.90625 23.722656 C 15.011719 24.683594 8.667969 32.890625 5.34375 37.390625 C 4.132812 39.03125 3.019531 40.804688 2.867188 41.339844 C 2.453125 42.78125 2.519531 47.25 2.960938 47.691406 C 3.238281 47.96875 5.933594 48.066406 13.164062 48.066406 L 22.988281 48.066406 L 24.691406 45.808594 C 25.628906 44.570312 26.992188 42.605469 27.722656 41.441406 C 29.253906 39.007812 29.304688 39.273438 26.617188 35.871094 C 25.628906 34.621094 23.175781 31.335938 21.171875 28.578125 C 19.167969 25.816406 17.339844 23.402344 17.113281 23.214844 C 16.796875 22.953125 16.511719 23.070312 15.90625 23.722656 M 13.609375 36.921875 C 12.292969 38.664062 11.199219 40.296875 11.179688 40.546875 C 11.125 41.332031 12.859375 41.578125 17.058594 41.378906 C 22.464844 41.128906 22.542969 41.042969 20.144531 37.933594 C 19.132812 36.617188 18.023438 35.144531 17.683594 34.652344 C 17.339844 34.160156 16.820312 33.757812 16.53125 33.753906 C 16.222656 33.753906 15.007812 35.070312 13.609375 36.921875 " fill-opacity="1" fill-rule="evenodd"/><g fill="#ffffff" fill-opacity="1"><g transform="translate(38.983128, 42.013186)"><g><path d="M 0.859375 0 L 0.859375 -0.390625 L 1.5625 -0.65625 C 2.082031 -0.863281 2.4375 -1.125 2.625 -1.4375 C 2.820312 -1.75 2.921875 -2.164062 2.921875 -2.6875 L 2.921875 -23.0625 C 2.921875 -23.601562 2.820312 -24.03125 2.625 -24.34375 C 2.4375 -24.65625 2.082031 -24.90625 1.5625 -25.09375 L 0.859375 -25.359375 L 0.859375 -25.75 L 12.0625 -25.75 C 15.226562 -25.75 17.515625 -25.171875 18.921875 -24.015625 C 20.328125 -22.859375 21.03125 -21.394531 21.03125 -19.625 C 21.03125 -18.300781 20.515625 -17.097656 19.484375 -16.015625 C 18.460938 -14.929688 16.703125 -14.171875 14.203125 -13.734375 C 17.066406 -13.421875 19.160156 -12.671875 20.484375 -11.484375 C 21.804688 -10.304688 22.46875 -8.867188 22.46875 -7.171875 C 22.46875 -6.347656 22.285156 -5.507812 21.921875 -4.65625 C 21.554688 -3.8125 20.9375 -3.035156 20.0625 -2.328125 C 19.195312 -1.628906 18.007812 -1.066406 16.5 -0.640625 C 14.988281 -0.210938 13.078125 0 10.765625 0 Z M 8.703125 -13.765625 L 10.375 -13.765625 C 12.113281 -13.765625 13.367188 -14.164062 14.140625 -14.96875 C 14.910156 -15.78125 15.296875 -17.191406 15.296875 -19.203125 C 15.296875 -21.273438 14.941406 -22.753906 14.234375 -23.640625 C 13.535156 -24.523438 12.394531 -24.96875 10.8125 -24.96875 L 8.703125 -24.96875 Z M 8.703125 -0.78125 L 10.65625 -0.78125 C 12.601562 -0.78125 14.050781 -1.300781 15 -2.34375 C 15.945312 -3.382812 16.421875 -5.007812 16.421875 -7.21875 C 16.421875 -9.300781 15.960938 -10.78125 15.046875 -11.65625 C 14.140625 -12.539062 12.648438 -12.984375 10.578125 -12.984375 L 8.703125 -12.984375 Z M 8.703125 -0.78125 "/></g></g></g><g fill="#ffffff" fill-opacity="1"><g transform="translate(62.310054, 42.013186)"><g><path d="M 7.84375 0.578125 C 6.832031 0.578125 5.898438 0.382812 5.046875 0 C 4.203125 -0.382812 3.539062 -1.015625 3.0625 -1.890625 C 2.582031 -2.765625 2.351562 -3.914062 2.375 -5.34375 L 2.5 -15.375 C 2.5 -15.96875 2.394531 -16.394531 2.1875 -16.65625 C 1.976562 -16.914062 1.648438 -17.097656 1.203125 -17.203125 L 0.734375 -17.359375 L 0.734375 -17.75 L 7.71875 -19.125 L 8.109375 -18.734375 L 7.921875 -13.1875 L 7.921875 -3.78125 C 7.921875 -2.945312 8.160156 -2.332031 8.640625 -1.9375 C 9.117188 -1.550781 9.722656 -1.359375 10.453125 -1.359375 C 11.179688 -1.359375 11.832031 -1.460938 12.40625 -1.671875 C 12.976562 -1.878906 13.550781 -2.191406 14.125 -2.609375 L 14.28125 -15.328125 C 14.28125 -15.929688 14.1875 -16.351562 14 -16.59375 C 13.820312 -16.84375 13.484375 -17.019531 12.984375 -17.125 L 12.609375 -17.25 L 12.609375 -17.640625 L 19.4375 -19.125 L 19.8125 -18.734375 L 19.703125 -13.1875 L 19.703125 -2.609375 C 19.703125 -2.035156 19.78125 -1.59375 19.9375 -1.28125 C 20.09375 -0.96875 20.429688 -0.707031 20.953125 -0.5 L 21.34375 -0.390625 L 21.34375 0 L 14.515625 0.390625 L 14.15625 -1.90625 C 13.300781 -1.207031 12.375 -0.617188 11.375 -0.140625 C 10.375 0.335938 9.195312 0.578125 7.84375 0.578125 Z M 7.84375 0.578125 "/></g></g></g><g fill="#ffffff" fill-opacity="1"><g transform="translate(84.427734, 42.013186)"><g><path d="M 5.46875 -21.375 C 4.582031 -21.375 3.832031 -21.65625 3.21875 -22.21875 C 2.601562 -22.78125 2.296875 -23.488281 2.296875 -24.34375 C 2.296875 -25.226562 2.601562 -25.941406 3.21875 -26.484375 C 3.832031 -27.035156 4.582031 -27.3125 5.46875 -27.3125 C 6.34375 -27.3125 7.078125 -27.035156 7.671875 -26.484375 C 8.273438 -25.941406 8.578125 -25.226562 8.578125 -24.34375 C 8.578125 -23.488281 8.273438 -22.78125 7.671875 -22.21875 C 7.078125 -21.65625 6.34375 -21.375 5.46875 -21.375 Z M 0.859375 0 L 0.859375 -0.390625 L 1.40625 -0.546875 C 1.925781 -0.703125 2.28125 -0.9375 2.46875 -1.25 C 2.664062 -1.5625 2.765625 -1.976562 2.765625 -2.5 L 2.765625 -14.703125 C 2.765625 -15.253906 2.664062 -15.664062 2.46875 -15.9375 C 2.28125 -16.207031 1.925781 -16.394531 1.40625 -16.5 L 0.859375 -16.625 L 0.859375 -17.015625 L 8 -19.3125 L 8.390625 -18.921875 L 8.265625 -13.375 L 8.265625 -2.453125 C 8.265625 -1.929688 8.363281 -1.515625 8.5625 -1.203125 C 8.757812 -0.890625 9.101562 -0.65625 9.59375 -0.5 L 9.984375 -0.390625 L 9.984375 0 Z M 0.859375 0 "/></g></g></g><g fill="#ffffff" fill-opacity="1"><g transform="translate(95.350038, 42.013186)"><g><path d="M 0.890625 0 L 0.890625 -0.390625 L 1.359375 -0.546875 C 2.296875 -0.859375 2.765625 -1.507812 2.765625 -2.5 L 2.765625 -23.375 C 2.765625 -23.894531 2.660156 -24.289062 2.453125 -24.5625 C 2.242188 -24.832031 1.878906 -25.035156 1.359375 -25.171875 L 0.859375 -25.28125 L 0.859375 -25.671875 L 8 -27.34375 L 8.46875 -27 L 8.3125 -21.53125 L 8.3125 -8.1875 C 8.3125 -7.226562 8.316406 -6.273438 8.328125 -5.328125 C 8.335938 -4.378906 8.34375 -3.4375 8.34375 -2.5 C 8.34375 -1.976562 8.445312 -1.550781 8.65625 -1.21875 C 8.863281 -0.894531 9.21875 -0.65625 9.71875 -0.5 L 10.21875 -0.390625 L 10.21875 0 Z M 0.890625 0 "/></g></g></g><g fill="#ffffff" fill-opacity="1"><g transform="translate(106.506386, 42.013186)"><g><path d="M 9.046875 0.578125 C 7.515625 0.578125 6.132812 0.234375 4.90625 -0.453125 C 3.6875 -1.140625 2.71875 -2.203125 2 -3.640625 C 1.289062 -5.085938 0.9375 -6.941406 0.9375 -9.203125 C 0.9375 -11.492188 1.335938 -13.382812 2.140625 -14.875 C 2.953125 -16.375 4.019531 -17.492188 5.34375 -18.234375 C 6.664062 -18.984375 8.109375 -19.359375 9.671875 -19.359375 C 10.585938 -19.359375 11.457031 -19.265625 12.28125 -19.078125 C 13.113281 -18.898438 13.859375 -18.628906 14.515625 -18.265625 L 14.515625 -23.328125 C 14.515625 -23.878906 14.425781 -24.285156 14.25 -24.546875 C 14.082031 -24.804688 13.726562 -24.988281 13.1875 -25.09375 L 12.453125 -25.25 L 12.453125 -25.640625 L 19.546875 -27.34375 L 19.96875 -27 L 19.8125 -21.53125 L 19.8125 -2.453125 C 19.8125 -1.929688 19.898438 -1.507812 20.078125 -1.1875 C 20.265625 -0.863281 20.609375 -0.632812 21.109375 -0.5 L 21.453125 -0.390625 L 21.453125 0 L 14.78125 0.421875 L 14.4375 -0.96875 C 13.726562 -0.5 12.925781 -0.125 12.03125 0.15625 C 11.132812 0.4375 10.140625 0.578125 9.046875 0.578125 Z M 11.3125 -0.859375 C 12.40625 -0.859375 13.40625 -1.179688 14.3125 -1.828125 L 14.3125 -17.328125 C 13.351562 -17.953125 12.367188 -18.265625 11.359375 -18.265625 C 10.109375 -18.265625 9.039062 -17.539062 8.15625 -16.09375 C 7.269531 -14.644531 6.828125 -12.375 6.828125 -9.28125 C 6.828125 -6.1875 7.242188 -4.007812 8.078125 -2.75 C 8.910156 -1.488281 9.988281 -0.859375 11.3125 -0.859375 Z M 11.3125 -0.859375 "/></g></g></g><g fill="#ffffff" fill-opacity="1"><g transform="translate(128.897116, 42.013186)"><g><path d="M 0.859375 0 L 0.859375 -0.390625 L 1.5625 -0.625 C 2.082031 -0.800781 2.429688 -1.046875 2.609375 -1.359375 C 2.796875 -1.671875 2.890625 -2.085938 2.890625 -2.609375 C 2.910156 -4.171875 2.921875 -5.742188 2.921875 -7.328125 C 2.921875 -8.921875 2.921875 -10.507812 2.921875 -12.09375 L 2.921875 -13.65625 C 2.921875 -15.21875 2.921875 -16.785156 2.921875 -18.359375 C 2.921875 -19.929688 2.910156 -21.5 2.890625 -23.0625 C 2.890625 -23.582031 2.816406 -24 2.671875 -24.3125 C 2.523438 -24.625 2.207031 -24.867188 1.71875 -25.046875 L 0.859375 -25.359375 L 0.859375 -25.75 L 19.734375 -25.75 L 20.015625 -19.28125 L 19.625 -19.28125 L 17.40625 -23.375 C 17.144531 -23.863281 16.84375 -24.25 16.5 -24.53125 C 16.164062 -24.820312 15.695312 -24.96875 15.09375 -24.96875 L 8.8125 -24.96875 C 8.789062 -23.125 8.78125 -21.238281 8.78125 -19.3125 C 8.78125 -17.382812 8.78125 -15.472656 8.78125 -13.578125 L 12.84375 -13.578125 C 13.4375 -13.578125 13.875 -13.707031 14.15625 -13.96875 C 14.445312 -14.226562 14.722656 -14.601562 14.984375 -15.09375 L 15.796875 -16.578125 L 16.1875 -16.578125 L 16.1875 -9.75 L 15.796875 -9.75 L 14.9375 -11.234375 C 14.675781 -11.703125 14.410156 -12.078125 14.140625 -12.359375 C 13.867188 -12.648438 13.4375 -12.796875 12.84375 -12.796875 L 8.78125 -12.796875 C 8.78125 -10.972656 8.78125 -9.234375 8.78125 -7.578125 C 8.78125 -5.929688 8.789062 -4.316406 8.8125 -2.734375 C 8.8125 -1.710938 9.304688 -1.046875 10.296875 -0.734375 L 11.46875 -0.390625 L 11.46875 0 Z M 0.859375 0 "/></g></g></g><g fill="#ffffff" fill-opacity="1"><g transform="translate(149.883544, 42.013186)"><g><path d="M 10.65625 0.578125 C 8.675781 0.578125 6.957031 0.171875 5.5 -0.640625 C 4.039062 -1.460938 2.914062 -2.628906 2.125 -4.140625 C 1.332031 -5.648438 0.9375 -7.414062 0.9375 -9.4375 C 0.9375 -11.46875 1.359375 -13.222656 2.203125 -14.703125 C 3.046875 -16.191406 4.203125 -17.335938 5.671875 -18.140625 C 7.140625 -18.953125 8.800781 -19.359375 10.65625 -19.359375 C 12.5 -19.359375 14.148438 -18.957031 15.609375 -18.15625 C 17.066406 -17.363281 18.21875 -16.226562 19.0625 -14.75 C 19.90625 -13.269531 20.328125 -11.5 20.328125 -9.4375 C 20.328125 -7.382812 19.929688 -5.609375 19.140625 -4.109375 C 18.347656 -2.617188 17.226562 -1.460938 15.78125 -0.640625 C 14.332031 0.171875 12.625 0.578125 10.65625 0.578125 Z M 10.65625 -0.1875 C 11.5625 -0.1875 12.285156 -0.445312 12.828125 -0.96875 C 13.378906 -1.488281 13.773438 -2.410156 14.015625 -3.734375 C 14.265625 -5.066406 14.390625 -6.941406 14.390625 -9.359375 C 14.390625 -11.804688 14.265625 -13.691406 14.015625 -15.015625 C 13.773438 -16.347656 13.378906 -17.273438 12.828125 -17.796875 C 12.285156 -18.316406 11.5625 -18.578125 10.65625 -18.578125 C 9.738281 -18.578125 9 -18.316406 8.4375 -17.796875 C 7.882812 -17.273438 7.484375 -16.347656 7.234375 -15.015625 C 6.984375 -13.691406 6.859375 -11.804688 6.859375 -9.359375 C 6.859375 -6.941406 6.984375 -5.066406 7.234375 -3.734375 C 7.484375 -2.410156 7.882812 -1.488281 8.4375 -0.96875 C 9 -0.445312 9.738281 -0.1875 10.65625 -0.1875 Z M 10.65625 -0.1875 "/></g></g></g><g fill="#ffffff" fill-opacity="1"><g transform="translate(171.143044, 42.013186)"><g><path d="M 0.78125 0 L 0.78125 -0.390625 L 1.359375 -0.546875 C 1.878906 -0.703125 2.238281 -0.9375 2.4375 -1.25 C 2.632812 -1.5625 2.734375 -1.960938 2.734375 -2.453125 L 2.734375 -14.671875 C 2.734375 -15.242188 2.632812 -15.664062 2.4375 -15.9375 C 2.238281 -16.207031 1.878906 -16.394531 1.359375 -16.5 L 0.78125 -16.65625 L 0.78125 -17.046875 L 7.484375 -19.3125 L 7.875 -18.921875 L 8.234375 -15.5625 L 8.234375 -15.25 C 8.597656 -15.976562 9.070312 -16.648438 9.65625 -17.265625 C 10.238281 -17.878906 10.890625 -18.378906 11.609375 -18.765625 C 12.328125 -19.160156 13.035156 -19.359375 13.734375 -19.359375 C 14.722656 -19.359375 15.476562 -19.082031 16 -18.53125 C 16.519531 -17.988281 16.78125 -17.300781 16.78125 -16.46875 C 16.78125 -15.582031 16.523438 -14.894531 16.015625 -14.40625 C 15.503906 -13.925781 14.898438 -13.6875 14.203125 -13.6875 C 13.109375 -13.6875 12.144531 -14.234375 11.3125 -15.328125 L 11.234375 -15.40625 C 10.972656 -15.769531 10.671875 -15.972656 10.328125 -16.015625 C 9.992188 -16.054688 9.6875 -15.894531 9.40625 -15.53125 C 9.144531 -15.289062 8.925781 -15.007812 8.75 -14.6875 C 8.582031 -14.363281 8.421875 -13.992188 8.265625 -13.578125 L 8.265625 -2.6875 C 8.265625 -1.644531 8.722656 -0.992188 9.640625 -0.734375 L 10.890625 -0.390625 L 10.890625 0 Z M 0.78125 0 "/></g></g></g><g fill="#ffffff" fill-opacity="1"><g transform="translate(188.345684, 42.013186)"><g><path d="M 0.78125 0 L 0.78125 -0.390625 L 1.328125 -0.546875 C 1.816406 -0.671875 2.160156 -0.890625 2.359375 -1.203125 C 2.554688 -1.515625 2.664062 -1.929688 2.6875 -2.453125 L 2.6875 -14.671875 C 2.6875 -15.242188 2.59375 -15.664062 2.40625 -15.9375 C 2.226562 -16.207031 1.878906 -16.394531 1.359375 -16.5 L 0.78125 -16.65625 L 0.78125 -17.046875 L 7.453125 -19.3125 L 7.84375 -18.921875 L 8.15625 -16.265625 C 9.007812 -17.128906 9.988281 -17.859375 11.09375 -18.453125 C 12.207031 -19.054688 13.359375 -19.359375 14.546875 -19.359375 C 15.796875 -19.359375 16.796875 -19.101562 17.546875 -18.59375 C 18.304688 -18.082031 18.882812 -17.296875 19.28125 -16.234375 C 20.289062 -17.191406 21.382812 -17.953125 22.5625 -18.515625 C 23.75 -19.078125 24.898438 -19.359375 26.015625 -19.359375 C 27.867188 -19.359375 29.226562 -18.914062 30.09375 -18.03125 C 30.96875 -17.144531 31.40625 -15.75 31.40625 -13.84375 L 31.40625 -2.421875 C 31.40625 -1.398438 31.875 -0.757812 32.8125 -0.5 L 33.234375 -0.390625 L 33.234375 0 L 24.234375 0 L 24.234375 -0.390625 L 24.625 -0.5 C 25.113281 -0.65625 25.457031 -0.890625 25.65625 -1.203125 C 25.851562 -1.515625 25.953125 -1.929688 25.953125 -2.453125 L 25.953125 -14.390625 C 25.953125 -15.484375 25.753906 -16.234375 25.359375 -16.640625 C 24.972656 -17.046875 24.347656 -17.25 23.484375 -17.25 C 22.804688 -17.25 22.148438 -17.097656 21.515625 -16.796875 C 20.878906 -16.492188 20.207031 -16.046875 19.5 -15.453125 C 19.632812 -15.035156 19.71875 -14.578125 19.75 -14.078125 C 19.789062 -13.585938 19.8125 -13.070312 19.8125 -12.53125 L 19.8125 -2.421875 C 19.84375 -1.398438 20.3125 -0.757812 21.21875 -0.5 L 21.578125 -0.390625 L 21.578125 0 L 12.53125 0 L 12.53125 -0.390625 L 13.0625 -0.546875 C 13.5625 -0.703125 13.90625 -0.925781 14.09375 -1.21875 C 14.289062 -1.519531 14.390625 -1.929688 14.390625 -2.453125 L 14.390625 -14.359375 C 14.390625 -15.398438 14.203125 -16.140625 13.828125 -16.578125 C 13.453125 -17.023438 12.8125 -17.25 11.90625 -17.25 C 11.300781 -17.25 10.695312 -17.097656 10.09375 -16.796875 C 9.5 -16.492188 8.878906 -16.054688 8.234375 -15.484375 L 8.234375 -2.421875 C 8.234375 -1.398438 8.6875 -0.757812 9.59375 -0.5 L 9.953125 -0.390625 L 9.953125 0 Z M 0.78125 0 "/></g></g></g></svg>