<svg xmlns="http://www.w3.org/2000/svg" xmlns:xlink="http://www.w3.org/1999/xlink" width="300" zoomAndPan="magnify" viewBox="0 0 224.87999 60" height="80" preserveAspectRatio="xMidYMid meet" version="1.0"><defs><g/></defs><path fill="#0066ff" d="M 14.28125 10.527344 C 14.035156 10.882812 12.296875 12.808594 10.421875 14.8125 C 5.113281 20.476562 3.140625 22.75 2.816406 23.570312 C 2.640625 24.023438 2.605469 26.195312 2.734375 28.957031 C 2.90625 32.578125 3.042969 33.570312 3.367188 33.496094 C 3.597656 33.449219 6.449219 30.335938 9.707031 26.578125 L 15.628906 19.75 L 15.628906 16.921875 C 15.625 13.359375 15.304688 9.886719 14.980469 9.886719 C 14.84375 9.886719 14.527344 10.175781 14.28125 10.527344 M 15.875 24.457031 C 14.980469 25.417969 8.632812 33.632812 5.304688 38.140625 C 4.09375 39.78125 2.976562 41.558594 2.824219 42.089844 C 2.410156 43.535156 2.476562 48.007812 2.921875 48.453125 C 3.195312 48.726562 5.894531 48.824219 13.128906 48.824219 L 22.964844 48.824219 L 24.671875 46.566406 C 25.609375 45.324219 26.972656 43.359375 27.703125 42.195312 C 29.238281 39.757812 29.289062 40.023438 26.597656 36.621094 C 25.605469 35.367188 23.152344 32.082031 21.148438 29.316406 C 19.140625 26.554688 17.3125 24.140625 17.085938 23.949219 C 16.765625 23.6875 16.484375 23.804688 15.875 24.457031 M 13.574219 37.667969 C 12.257812 39.414062 11.164062 41.046875 11.144531 41.300781 C 11.089844 42.082031 12.828125 42.328125 17.03125 42.132812 C 22.441406 41.882812 22.515625 41.796875 20.117188 38.679688 C 19.105469 37.367188 17.996094 35.890625 17.652344 35.398438 C 17.3125 34.90625 16.792969 34.503906 16.5 34.5 C 16.191406 34.5 14.976562 35.816406 13.574219 37.667969 " fill-opacity="1" fill-rule="evenodd"/><g fill="#ffffff" fill-opacity="1"><g transform="translate(39.082882, 43.906784)"><g><path d="M 3.71875 -27.234375 L 11.4375 -27.234375 C 14.832031 -27.234375 17.382812 -26.722656 19.09375 -25.703125 C 20.8125 -24.679688 21.671875 -22.945312 21.671875 -20.5 C 21.671875 -19.445312 21.46875 -18.5 21.0625 -17.65625 C 20.664062 -16.820312 20.082031 -16.128906 19.3125 -15.578125 C 18.539062 -15.035156 17.59375 -14.660156 16.46875 -14.453125 L 16.46875 -14.265625 C 17.65625 -14.078125 18.707031 -13.734375 19.625 -13.234375 C 20.539062 -12.742188 21.257812 -12.050781 21.78125 -11.15625 C 22.3125 -10.257812 22.578125 -9.125 22.578125 -7.75 C 22.578125 -6.070312 22.1875 -4.65625 21.40625 -3.5 C 20.632812 -2.34375 19.539062 -1.46875 18.125 -0.875 C 16.707031 -0.289062 15.03125 0 13.09375 0 L 3.71875 0 Z M 6.890625 -15.546875 L 12.109375 -15.546875 C 14.472656 -15.546875 16.113281 -15.9375 17.03125 -16.71875 C 17.945312 -17.5 18.40625 -18.644531 18.40625 -20.15625 C 18.40625 -21.707031 17.859375 -22.820312 16.765625 -23.5 C 15.679688 -24.1875 13.953125 -24.53125 11.578125 -24.53125 L 6.890625 -24.53125 Z M 6.890625 -12.890625 L 6.890625 -2.703125 L 12.546875 -2.703125 C 14.972656 -2.703125 16.6875 -3.175781 17.6875 -4.125 C 18.695312 -5.070312 19.203125 -6.351562 19.203125 -7.96875 C 19.203125 -9 18.972656 -9.878906 18.515625 -10.609375 C 18.066406 -11.347656 17.335938 -11.910156 16.328125 -12.296875 C 15.316406 -12.691406 13.960938 -12.890625 12.265625 -12.890625 Z M 6.890625 -12.890625 "/></g></g></g><g fill="#ffffff" fill-opacity="1"><g transform="translate(63.71595, 43.906784)"><g><path d="M 20.109375 -20.40625 L 20.109375 0 L 17.578125 0 L 17.140625 -2.875 L 16.96875 -2.875 C 16.539062 -2.164062 15.992188 -1.566406 15.328125 -1.078125 C 14.660156 -0.597656 13.90625 -0.238281 13.0625 0 C 12.226562 0.25 11.335938 0.375 10.390625 0.375 C 8.773438 0.375 7.421875 0.113281 6.328125 -0.40625 C 5.234375 -0.925781 4.410156 -1.734375 3.859375 -2.828125 C 3.304688 -3.921875 3.03125 -5.328125 3.03125 -7.046875 L 3.03125 -20.40625 L 6.171875 -20.40625 L 6.171875 -7.265625 C 6.171875 -5.566406 6.550781 -4.296875 7.3125 -3.453125 C 8.082031 -2.617188 9.257812 -2.203125 10.84375 -2.203125 C 12.351562 -2.203125 13.554688 -2.484375 14.453125 -3.046875 C 15.359375 -3.617188 16.007812 -4.460938 16.40625 -5.578125 C 16.800781 -6.691406 17 -8.054688 17 -9.671875 L 17 -20.40625 Z M 20.109375 -20.40625 "/></g></g></g><g fill="#ffffff" fill-opacity="1"><g transform="translate(87.101532, 43.906784)"><g><path d="M 6.34375 -20.40625 L 6.34375 0 L 3.265625 0 L 3.265625 -20.40625 Z M 4.84375 -28.046875 C 5.351562 -28.046875 5.789062 -27.878906 6.15625 -27.546875 C 6.519531 -27.222656 6.703125 -26.710938 6.703125 -26.015625 C 6.703125 -25.335938 6.519531 -24.828125 6.15625 -24.484375 C 5.789062 -24.148438 5.351562 -23.984375 4.84375 -23.984375 C 4.3125 -23.984375 3.867188 -24.148438 3.515625 -24.484375 C 3.160156 -24.828125 2.984375 -25.335938 2.984375 -26.015625 C 2.984375 -26.710938 3.160156 -27.222656 3.515625 -27.546875 C 3.867188 -27.878906 4.3125 -28.046875 4.84375 -28.046875 Z M 4.84375 -28.046875 "/></g></g></g><g fill="#ffffff" fill-opacity="1"><g transform="translate(96.72761, 43.906784)"><g><path d="M 6.375 0 L 3.265625 0 L 3.265625 -28.984375 L 6.375 -28.984375 Z M 6.375 0 "/></g></g></g><g fill="#ffffff" fill-opacity="1"><g transform="translate(106.353688, 43.906784)"><g><path d="M 10.515625 0.375 C 7.941406 0.375 5.898438 -0.503906 4.390625 -2.265625 C 2.878906 -4.035156 2.125 -6.65625 2.125 -10.125 C 2.125 -13.644531 2.890625 -16.300781 4.421875 -18.09375 C 5.960938 -19.882812 8.015625 -20.78125 10.578125 -20.78125 C 11.660156 -20.78125 12.601562 -20.632812 13.40625 -20.34375 C 14.21875 -20.0625 14.914062 -19.679688 15.5 -19.203125 C 16.082031 -18.734375 16.570312 -18.191406 16.96875 -17.578125 L 17.1875 -17.578125 C 17.132812 -17.960938 17.082031 -18.488281 17.03125 -19.15625 C 16.988281 -19.832031 16.96875 -20.378906 16.96875 -20.796875 L 16.96875 -28.984375 L 20.0625 -28.984375 L 20.0625 0 L 17.5625 0 L 17.09375 -2.90625 L 16.96875 -2.90625 C 16.582031 -2.300781 16.09375 -1.75 15.5 -1.25 C 14.914062 -0.75 14.210938 -0.351562 13.390625 -0.0625 C 12.578125 0.226562 11.617188 0.375 10.515625 0.375 Z M 11 -2.203125 C 13.1875 -2.203125 14.734375 -2.820312 15.640625 -4.0625 C 16.546875 -5.300781 17 -7.144531 17 -9.59375 L 17 -10.15625 C 17 -12.75 16.566406 -14.738281 15.703125 -16.125 C 14.847656 -17.519531 13.28125 -18.21875 11 -18.21875 C 9.101562 -18.21875 7.679688 -17.488281 6.734375 -16.03125 C 5.796875 -14.570312 5.328125 -12.582031 5.328125 -10.0625 C 5.328125 -7.550781 5.796875 -5.613281 6.734375 -4.25 C 7.671875 -2.882812 9.09375 -2.203125 11 -2.203125 Z M 11 -2.203125 "/></g></g></g><g fill="#ffffff" fill-opacity="1"><g transform="translate(129.68342, 43.906784)"><g><path d="M 6.890625 0 L 3.71875 0 L 3.71875 -27.234375 L 18.890625 -27.234375 L 18.890625 -24.4375 L 6.890625 -24.4375 L 6.890625 -14.453125 L 18.15625 -14.453125 L 18.15625 -11.671875 L 6.890625 -11.671875 Z M 6.890625 0 "/></g></g></g><g fill="#ffffff" fill-opacity="1"><g transform="translate(149.363809, 43.906784)"><g><path d="M 20.859375 -10.25 C 20.859375 -8.570312 20.640625 -7.070312 20.203125 -5.75 C 19.765625 -4.4375 19.132812 -3.328125 18.3125 -2.421875 C 17.5 -1.515625 16.507812 -0.820312 15.34375 -0.34375 C 14.1875 0.132812 12.878906 0.375 11.421875 0.375 C 10.054688 0.375 8.800781 0.132812 7.65625 -0.34375 C 6.519531 -0.820312 5.539062 -1.515625 4.71875 -2.421875 C 3.894531 -3.328125 3.253906 -4.4375 2.796875 -5.75 C 2.347656 -7.070312 2.125 -8.570312 2.125 -10.25 C 2.125 -12.476562 2.5 -14.378906 3.25 -15.953125 C 4.007812 -17.523438 5.09375 -18.722656 6.5 -19.546875 C 7.914062 -20.367188 9.597656 -20.78125 11.546875 -20.78125 C 13.410156 -20.78125 15.039062 -20.363281 16.4375 -19.53125 C 17.832031 -18.695312 18.914062 -17.492188 19.6875 -15.921875 C 20.46875 -14.359375 20.859375 -12.46875 20.859375 -10.25 Z M 5.328125 -10.25 C 5.328125 -8.601562 5.539062 -7.175781 5.96875 -5.96875 C 6.40625 -4.769531 7.078125 -3.84375 7.984375 -3.1875 C 8.890625 -2.53125 10.054688 -2.203125 11.484375 -2.203125 C 12.898438 -2.203125 14.0625 -2.53125 14.96875 -3.1875 C 15.882812 -3.84375 16.5625 -4.769531 17 -5.96875 C 17.4375 -7.175781 17.65625 -8.601562 17.65625 -10.25 C 17.65625 -11.875 17.4375 -13.273438 17 -14.453125 C 16.5625 -15.640625 15.890625 -16.554688 14.984375 -17.203125 C 14.078125 -17.847656 12.90625 -18.171875 11.46875 -18.171875 C 9.34375 -18.171875 7.785156 -17.46875 6.796875 -16.0625 C 5.816406 -14.664062 5.328125 -12.726562 5.328125 -10.25 Z M 5.328125 -10.25 "/></g></g></g><g fill="#ffffff" fill-opacity="1"><g transform="translate(172.302534, 43.906784)"><g><path d="M 12.53125 -20.78125 C 12.9375 -20.78125 13.363281 -20.757812 13.8125 -20.71875 C 14.257812 -20.675781 14.660156 -20.617188 15.015625 -20.546875 L 14.625 -17.671875 C 14.28125 -17.753906 13.90625 -17.820312 13.5 -17.875 C 13.09375 -17.925781 12.707031 -17.953125 12.34375 -17.953125 C 11.53125 -17.953125 10.757812 -17.785156 10.03125 -17.453125 C 9.300781 -17.128906 8.660156 -16.660156 8.109375 -16.046875 C 7.566406 -15.429688 7.140625 -14.691406 6.828125 -13.828125 C 6.523438 -12.960938 6.375 -12.003906 6.375 -10.953125 L 6.375 0 L 3.265625 0 L 3.265625 -20.40625 L 5.828125 -20.40625 L 6.171875 -16.65625 L 6.296875 -16.65625 C 6.710938 -17.40625 7.21875 -18.09375 7.8125 -18.71875 C 8.414062 -19.351562 9.109375 -19.851562 9.890625 -20.21875 C 10.679688 -20.59375 11.5625 -20.78125 12.53125 -20.78125 Z M 12.53125 -20.78125 "/></g></g></g><g fill="#ffffff" fill-opacity="1"><g transform="translate(187.886722, 43.906784)"><g><path d="M 25.421875 -20.78125 C 27.671875 -20.78125 29.363281 -20.191406 30.5 -19.015625 C 31.644531 -17.847656 32.21875 -15.96875 32.21875 -13.375 L 32.21875 0 L 29.171875 0 L 29.171875 -13.21875 C 29.171875 -14.875 28.8125 -16.113281 28.09375 -16.9375 C 27.375 -17.757812 26.316406 -18.171875 24.921875 -18.171875 C 22.941406 -18.171875 21.503906 -17.597656 20.609375 -16.453125 C 19.722656 -15.316406 19.28125 -13.640625 19.28125 -11.421875 L 19.28125 0 L 16.203125 0 L 16.203125 -13.21875 C 16.203125 -14.320312 16.039062 -15.238281 15.71875 -15.96875 C 15.40625 -16.707031 14.9375 -17.257812 14.3125 -17.625 C 13.6875 -17.988281 12.894531 -18.171875 11.9375 -18.171875 C 10.582031 -18.171875 9.492188 -17.890625 8.671875 -17.328125 C 7.859375 -16.773438 7.265625 -15.945312 6.890625 -14.84375 C 6.523438 -13.75 6.34375 -12.398438 6.34375 -10.796875 L 6.34375 0 L 3.265625 0 L 3.265625 -20.40625 L 5.75 -20.40625 L 6.21875 -17.53125 L 6.390625 -17.53125 C 6.796875 -18.238281 7.304688 -18.832031 7.921875 -19.3125 C 8.546875 -19.789062 9.242188 -20.15625 10.015625 -20.40625 C 10.785156 -20.65625 11.609375 -20.78125 12.484375 -20.78125 C 14.035156 -20.78125 15.332031 -20.488281 16.375 -19.90625 C 17.425781 -19.332031 18.1875 -18.457031 18.65625 -17.28125 L 18.828125 -17.28125 C 19.492188 -18.457031 20.410156 -19.332031 21.578125 -19.90625 C 22.742188 -20.488281 24.023438 -20.78125 25.421875 -20.78125 Z M 25.421875 -20.78125 "/></g></g></g></svg>