<svg width="866" height="433" viewBox="0 0 866 433" fill="none" xmlns="http://www.w3.org/2000/svg">
<g clip-path="url(#clip0_13424_446)">
<ellipse cx="648" cy="123.5" rx="164" ry="164.5" fill="#151519" fill-opacity="0.1"/>
<path d="M809 436C809 397.129 801.344 358.638 786.468 322.726C771.593 286.813 749.79 254.183 722.304 226.696C694.818 199.21 662.187 177.407 626.274 162.532C590.362 147.656 551.871 140 513 140C474.129 140 435.638 147.656 399.726 162.532C363.813 177.407 331.183 199.21 303.696 226.696C276.21 254.183 254.407 286.813 239.532 322.726C224.656 358.638 217 397.129 217 436L434.527 436C434.527 425.695 436.556 415.49 440.5 405.97C444.444 396.449 450.224 387.798 457.511 380.511C464.798 373.224 473.449 367.444 482.97 363.5C492.49 359.556 502.695 357.527 513 357.527C523.305 357.527 533.51 359.556 543.03 363.5C552.551 367.444 561.202 373.224 568.489 380.511C575.776 387.798 581.556 396.449 585.5 405.97C589.444 415.49 591.473 425.695 591.473 436L809 436Z" fill="#151519" fill-opacity="0.1"/>
</g>
<defs>
<clipPath id="clip0_13424_446">
<rect width="866" height="433" fill="white"/>
</clipPath>
</defs>
</svg>
