<svg width="1180" height="271" viewBox="0 0 1180 271" fill="none" xmlns="http://www.w3.org/2000/svg">
<g clip-path="url(#clip0_1_9)">
<path d="M380.473 117C380.348 116.617 380.183 116.275 379.979 115.972C379.778 115.665 379.537 115.403 379.257 115.188C378.981 114.972 378.666 114.807 378.314 114.693C377.962 114.58 377.575 114.523 377.155 114.523C376.465 114.523 375.839 114.701 375.274 115.057C374.71 115.413 374.261 115.938 373.928 116.631C373.594 117.324 373.428 118.174 373.428 119.182C373.428 120.189 373.596 121.04 373.933 121.733C374.27 122.426 374.727 122.951 375.303 123.307C375.878 123.663 376.526 123.841 377.246 123.841C377.912 123.841 378.5 123.699 379.007 123.415C379.518 123.127 379.916 122.722 380.2 122.199C380.488 121.672 380.632 121.053 380.632 120.341L381.064 120.432H377.564V119.182H381.996V120.432C381.996 121.39 381.791 122.223 381.382 122.932C380.977 123.64 380.416 124.189 379.7 124.58C378.988 124.966 378.17 125.159 377.246 125.159C376.215 125.159 375.31 124.917 374.53 124.432C373.753 123.947 373.147 123.258 372.712 122.364C372.28 121.47 372.064 120.409 372.064 119.182C372.064 118.261 372.187 117.434 372.433 116.699C372.683 115.96 373.036 115.331 373.49 114.812C373.945 114.294 374.482 113.896 375.104 113.619C375.725 113.343 376.409 113.205 377.155 113.205C377.768 113.205 378.34 113.297 378.871 113.483C379.405 113.665 379.88 113.924 380.297 114.261C380.717 114.595 381.068 114.994 381.348 115.46C381.628 115.922 381.821 116.436 381.928 117H380.473ZM387.886 125.182C387.045 125.182 386.32 124.996 385.71 124.625C385.104 124.25 384.636 123.727 384.307 123.057C383.981 122.383 383.818 121.598 383.818 120.705C383.818 119.811 383.981 119.023 384.307 118.341C384.636 117.655 385.095 117.121 385.682 116.739C386.273 116.352 386.962 116.159 387.75 116.159C388.205 116.159 388.653 116.235 389.097 116.386C389.54 116.538 389.943 116.784 390.307 117.125C390.67 117.462 390.96 117.909 391.176 118.466C391.392 119.023 391.5 119.708 391.5 120.523V121.091H384.773V119.932H390.136C390.136 119.439 390.038 119 389.841 118.614C389.648 118.227 389.371 117.922 389.011 117.699C388.655 117.475 388.235 117.364 387.75 117.364C387.216 117.364 386.754 117.496 386.364 117.761C385.977 118.023 385.68 118.364 385.472 118.784C385.263 119.205 385.159 119.655 385.159 120.136V120.909C385.159 121.568 385.273 122.127 385.5 122.585C385.731 123.04 386.051 123.386 386.46 123.625C386.869 123.86 387.345 123.977 387.886 123.977C388.239 123.977 388.557 123.928 388.841 123.83C389.129 123.727 389.377 123.576 389.585 123.375C389.794 123.17 389.955 122.917 390.068 122.614L391.364 122.977C391.227 123.417 390.998 123.803 390.676 124.136C390.354 124.466 389.956 124.723 389.483 124.909C389.009 125.091 388.477 125.182 387.886 125.182ZM397.335 116.273V117.409H392.812V116.273H397.335ZM394.131 114.182H395.472V122.5C395.472 122.879 395.527 123.163 395.636 123.352C395.75 123.538 395.894 123.663 396.068 123.727C396.246 123.788 396.434 123.818 396.631 123.818C396.778 123.818 396.9 123.811 396.994 123.795C397.089 123.777 397.165 123.761 397.222 123.75L397.494 124.955C397.403 124.989 397.277 125.023 397.114 125.057C396.951 125.095 396.744 125.114 396.494 125.114C396.116 125.114 395.744 125.032 395.381 124.869C395.021 124.706 394.722 124.458 394.483 124.125C394.248 123.792 394.131 123.371 394.131 122.864V114.182ZM409.352 121.432V116.273H410.693V125H409.352V123.523H409.261C409.057 123.966 408.739 124.343 408.307 124.653C407.875 124.96 407.33 125.114 406.67 125.114C406.125 125.114 405.64 124.994 405.216 124.756C404.792 124.513 404.458 124.15 404.216 123.665C403.973 123.176 403.852 122.561 403.852 121.818V116.273H405.193V121.727C405.193 122.364 405.371 122.871 405.727 123.25C406.087 123.629 406.545 123.818 407.102 123.818C407.436 123.818 407.775 123.733 408.119 123.562C408.468 123.392 408.759 123.131 408.994 122.778C409.233 122.426 409.352 121.977 409.352 121.432ZM413.149 128.273V116.273H414.445V117.659H414.604C414.702 117.508 414.839 117.314 415.013 117.08C415.191 116.841 415.445 116.629 415.774 116.443C416.107 116.254 416.558 116.159 417.126 116.159C417.861 116.159 418.509 116.343 419.07 116.71C419.63 117.078 420.068 117.598 420.382 118.273C420.696 118.947 420.854 119.742 420.854 120.659C420.854 121.583 420.696 122.384 420.382 123.062C420.068 123.737 419.632 124.259 419.075 124.631C418.518 124.998 417.876 125.182 417.149 125.182C416.589 125.182 416.14 125.089 415.803 124.903C415.465 124.714 415.206 124.5 415.024 124.261C414.842 124.019 414.702 123.818 414.604 123.659H414.49V128.273H413.149ZM414.467 120.636C414.467 121.295 414.564 121.877 414.757 122.381C414.95 122.881 415.232 123.273 415.604 123.557C415.975 123.837 416.429 123.977 416.967 123.977C417.528 123.977 417.996 123.83 418.371 123.534C418.75 123.235 419.034 122.833 419.223 122.33C419.416 121.822 419.513 121.258 419.513 120.636C419.513 120.023 419.418 119.47 419.229 118.977C419.043 118.481 418.761 118.089 418.382 117.801C418.007 117.509 417.536 117.364 416.967 117.364C416.422 117.364 415.964 117.502 415.592 117.778C415.221 118.051 414.941 118.434 414.751 118.926C414.562 119.415 414.467 119.985 414.467 120.636ZM426.195 125.182C425.467 125.182 424.825 124.998 424.268 124.631C423.712 124.259 423.276 123.737 422.962 123.062C422.647 122.384 422.49 121.583 422.49 120.659C422.49 119.742 422.647 118.947 422.962 118.273C423.276 117.598 423.714 117.078 424.274 116.71C424.835 116.343 425.482 116.159 426.217 116.159C426.786 116.159 427.234 116.254 427.564 116.443C427.897 116.629 428.151 116.841 428.325 117.08C428.503 117.314 428.642 117.508 428.74 117.659H428.854V113.364H430.195V125H428.899V123.659H428.74C428.642 123.818 428.501 124.019 428.32 124.261C428.138 124.5 427.878 124.714 427.541 124.903C427.204 125.089 426.755 125.182 426.195 125.182ZM426.376 123.977C426.914 123.977 427.369 123.837 427.74 123.557C428.111 123.273 428.393 122.881 428.587 122.381C428.78 121.877 428.876 121.295 428.876 120.636C428.876 119.985 428.782 119.415 428.592 118.926C428.403 118.434 428.123 118.051 427.751 117.778C427.38 117.502 426.922 117.364 426.376 117.364C425.808 117.364 425.335 117.509 424.956 117.801C424.581 118.089 424.299 118.481 424.109 118.977C423.924 119.47 423.831 120.023 423.831 120.636C423.831 121.258 423.926 121.822 424.115 122.33C424.308 122.833 424.592 123.235 424.967 123.534C425.346 123.83 425.816 123.977 426.376 123.977ZM435.405 125.205C434.852 125.205 434.35 125.1 433.899 124.892C433.448 124.68 433.09 124.375 432.825 123.977C432.56 123.576 432.428 123.091 432.428 122.523C432.428 122.023 432.526 121.617 432.723 121.307C432.92 120.992 433.183 120.746 433.513 120.568C433.842 120.39 434.206 120.258 434.604 120.17C435.005 120.08 435.409 120.008 435.814 119.955C436.344 119.886 436.774 119.835 437.104 119.801C437.437 119.763 437.679 119.701 437.831 119.614C437.986 119.527 438.064 119.375 438.064 119.159V119.114C438.064 118.553 437.911 118.117 437.604 117.807C437.301 117.496 436.84 117.341 436.223 117.341C435.583 117.341 435.081 117.481 434.717 117.761C434.354 118.042 434.098 118.341 433.95 118.659L432.678 118.205C432.905 117.674 433.208 117.261 433.587 116.966C433.969 116.667 434.386 116.458 434.837 116.341C435.291 116.22 435.738 116.159 436.178 116.159C436.458 116.159 436.78 116.193 437.143 116.261C437.511 116.326 437.865 116.46 438.206 116.665C438.551 116.869 438.837 117.178 439.064 117.591C439.291 118.004 439.405 118.557 439.405 119.25V125H438.064V123.818H437.996C437.905 124.008 437.753 124.21 437.541 124.426C437.329 124.642 437.047 124.826 436.695 124.977C436.342 125.129 435.912 125.205 435.405 125.205ZM435.609 124C436.14 124 436.587 123.896 436.95 123.688C437.318 123.479 437.594 123.21 437.78 122.881C437.969 122.551 438.064 122.205 438.064 121.841V120.614C438.007 120.682 437.882 120.744 437.689 120.801C437.5 120.854 437.28 120.902 437.03 120.943C436.784 120.981 436.543 121.015 436.308 121.045C436.077 121.072 435.89 121.095 435.746 121.114C435.397 121.159 435.071 121.233 434.768 121.335C434.469 121.434 434.227 121.583 434.041 121.784C433.859 121.981 433.768 122.25 433.768 122.591C433.768 123.057 433.941 123.409 434.286 123.648C434.634 123.883 435.075 124 435.609 124ZM445.648 116.273V117.409H441.125V116.273H445.648ZM442.443 114.182H443.784V122.5C443.784 122.879 443.839 123.163 443.949 123.352C444.063 123.538 444.206 123.663 444.381 123.727C444.559 123.788 444.746 123.818 444.943 123.818C445.091 123.818 445.212 123.811 445.307 123.795C445.402 123.777 445.477 123.761 445.534 123.75L445.807 124.955C445.716 124.989 445.589 125.023 445.426 125.057C445.263 125.095 445.057 125.114 444.807 125.114C444.428 125.114 444.057 125.032 443.693 124.869C443.333 124.706 443.034 124.458 442.795 124.125C442.561 123.792 442.443 123.371 442.443 122.864V114.182ZM451.23 125.182C450.389 125.182 449.664 124.996 449.054 124.625C448.448 124.25 447.98 123.727 447.651 123.057C447.325 122.383 447.162 121.598 447.162 120.705C447.162 119.811 447.325 119.023 447.651 118.341C447.98 117.655 448.438 117.121 449.026 116.739C449.616 116.352 450.306 116.159 451.094 116.159C451.548 116.159 451.997 116.235 452.44 116.386C452.884 116.538 453.287 116.784 453.651 117.125C454.014 117.462 454.304 117.909 454.52 118.466C454.736 119.023 454.844 119.708 454.844 120.523V121.091H448.116V119.932H453.48C453.48 119.439 453.382 119 453.185 118.614C452.991 118.227 452.715 117.922 452.355 117.699C451.999 117.475 451.579 117.364 451.094 117.364C450.56 117.364 450.098 117.496 449.707 117.761C449.321 118.023 449.024 118.364 448.815 118.784C448.607 119.205 448.503 119.655 448.503 120.136V120.909C448.503 121.568 448.616 122.127 448.844 122.585C449.075 123.04 449.395 123.386 449.804 123.625C450.213 123.86 450.688 123.977 451.23 123.977C451.582 123.977 451.901 123.928 452.185 123.83C452.473 123.727 452.721 123.576 452.929 123.375C453.137 123.17 453.298 122.917 453.412 122.614L454.707 122.977C454.571 123.417 454.342 123.803 454.02 124.136C453.698 124.466 453.3 124.723 452.827 124.909C452.353 125.091 451.821 125.182 451.23 125.182ZM463.065 118.227L461.861 118.568C461.785 118.367 461.673 118.172 461.526 117.983C461.382 117.79 461.185 117.631 460.935 117.506C460.685 117.381 460.365 117.318 459.974 117.318C459.44 117.318 458.995 117.441 458.639 117.688C458.287 117.93 458.111 118.239 458.111 118.614C458.111 118.947 458.232 119.21 458.474 119.403C458.717 119.597 459.096 119.758 459.611 119.886L460.906 120.205C461.687 120.394 462.268 120.684 462.651 121.074C463.033 121.46 463.224 121.958 463.224 122.568C463.224 123.068 463.08 123.515 462.793 123.909C462.509 124.303 462.111 124.614 461.599 124.841C461.088 125.068 460.493 125.182 459.815 125.182C458.925 125.182 458.188 124.989 457.605 124.602C457.022 124.216 456.652 123.652 456.497 122.909L457.77 122.591C457.891 123.061 458.12 123.413 458.457 123.648C458.798 123.883 459.243 124 459.793 124C460.418 124 460.914 123.867 461.281 123.602C461.652 123.333 461.838 123.011 461.838 122.636C461.838 122.333 461.732 122.08 461.52 121.875C461.308 121.667 460.982 121.511 460.543 121.409L459.088 121.068C458.289 120.879 457.702 120.585 457.327 120.188C456.955 119.786 456.77 119.284 456.77 118.682C456.77 118.189 456.908 117.754 457.185 117.375C457.465 116.996 457.846 116.699 458.327 116.483C458.812 116.267 459.361 116.159 459.974 116.159C460.838 116.159 461.516 116.348 462.009 116.727C462.505 117.106 462.857 117.606 463.065 118.227ZM473.288 125.182C472.5 125.182 471.809 124.994 471.214 124.619C470.624 124.244 470.161 123.72 469.828 123.045C469.499 122.371 469.334 121.583 469.334 120.682C469.334 119.773 469.499 118.979 469.828 118.301C470.161 117.623 470.624 117.097 471.214 116.722C471.809 116.347 472.5 116.159 473.288 116.159C474.076 116.159 474.766 116.347 475.357 116.722C475.951 117.097 476.413 117.623 476.743 118.301C477.076 118.979 477.243 119.773 477.243 120.682C477.243 121.583 477.076 122.371 476.743 123.045C476.413 123.72 475.951 124.244 475.357 124.619C474.766 124.994 474.076 125.182 473.288 125.182ZM473.288 123.977C473.887 123.977 474.379 123.824 474.766 123.517C475.152 123.21 475.438 122.807 475.624 122.307C475.809 121.807 475.902 121.265 475.902 120.682C475.902 120.098 475.809 119.555 475.624 119.051C475.438 118.547 475.152 118.14 474.766 117.83C474.379 117.519 473.887 117.364 473.288 117.364C472.69 117.364 472.197 117.519 471.811 117.83C471.425 118.14 471.139 118.547 470.953 119.051C470.768 119.555 470.675 120.098 470.675 120.682C470.675 121.265 470.768 121.807 470.953 122.307C471.139 122.807 471.425 123.21 471.811 123.517C472.197 123.824 472.69 123.977 473.288 123.977ZM480.631 119.75V125H479.29V116.273H480.585V117.636H480.699C480.903 117.193 481.214 116.837 481.631 116.568C482.047 116.295 482.585 116.159 483.244 116.159C483.835 116.159 484.352 116.28 484.795 116.523C485.239 116.761 485.583 117.125 485.83 117.614C486.076 118.098 486.199 118.712 486.199 119.455V125H484.858V119.545C484.858 118.86 484.68 118.326 484.324 117.943C483.968 117.557 483.479 117.364 482.858 117.364C482.43 117.364 482.047 117.456 481.71 117.642C481.377 117.828 481.114 118.098 480.92 118.455C480.727 118.811 480.631 119.242 480.631 119.75ZM494.49 119.75V125H493.149V116.273H494.445V117.636H494.558C494.763 117.193 495.073 116.837 495.49 116.568C495.907 116.295 496.445 116.159 497.104 116.159C497.695 116.159 498.212 116.28 498.655 116.523C499.098 116.761 499.443 117.125 499.689 117.614C499.935 118.098 500.058 118.712 500.058 119.455V125H498.717V119.545C498.717 118.86 498.539 118.326 498.183 117.943C497.827 117.557 497.339 117.364 496.717 117.364C496.289 117.364 495.907 117.456 495.57 117.642C495.236 117.828 494.973 118.098 494.78 118.455C494.587 118.811 494.49 119.242 494.49 119.75ZM506.168 125.182C505.327 125.182 504.601 124.996 503.991 124.625C503.385 124.25 502.918 123.727 502.588 123.057C502.262 122.383 502.099 121.598 502.099 120.705C502.099 119.811 502.262 119.023 502.588 118.341C502.918 117.655 503.376 117.121 503.963 116.739C504.554 116.352 505.243 116.159 506.031 116.159C506.486 116.159 506.935 116.235 507.378 116.386C507.821 116.538 508.224 116.784 508.588 117.125C508.952 117.462 509.241 117.909 509.457 118.466C509.673 119.023 509.781 119.708 509.781 120.523V121.091H503.054V119.932H508.418C508.418 119.439 508.319 119 508.122 118.614C507.929 118.227 507.652 117.922 507.293 117.699C506.937 117.475 506.516 117.364 506.031 117.364C505.497 117.364 505.035 117.496 504.645 117.761C504.259 118.023 503.961 118.364 503.753 118.784C503.545 119.205 503.44 119.655 503.44 120.136V120.909C503.44 121.568 503.554 122.127 503.781 122.585C504.012 123.04 504.332 123.386 504.741 123.625C505.151 123.86 505.626 123.977 506.168 123.977C506.52 123.977 506.838 123.928 507.122 123.83C507.41 123.727 507.658 123.576 507.866 123.375C508.075 123.17 508.236 122.917 508.349 122.614L509.645 122.977C509.509 123.417 509.279 123.803 508.957 124.136C508.635 124.466 508.238 124.723 507.764 124.909C507.291 125.091 506.759 125.182 506.168 125.182ZM513.798 125L511.139 116.273H512.548L514.435 122.955H514.526L516.389 116.273H517.821L519.662 122.932H519.753L521.639 116.273H523.048L520.389 125H519.071L517.162 118.295H517.026L515.116 125H513.798ZM531.003 118.227L529.798 118.568C529.723 118.367 529.611 118.172 529.463 117.983C529.319 117.79 529.122 117.631 528.872 117.506C528.622 117.381 528.302 117.318 527.912 117.318C527.378 117.318 526.933 117.441 526.577 117.688C526.224 117.93 526.048 118.239 526.048 118.614C526.048 118.947 526.17 119.21 526.412 119.403C526.654 119.597 527.033 119.758 527.548 119.886L528.844 120.205C529.624 120.394 530.205 120.684 530.588 121.074C530.971 121.46 531.162 121.958 531.162 122.568C531.162 123.068 531.018 123.515 530.73 123.909C530.446 124.303 530.048 124.614 529.537 124.841C529.026 125.068 528.431 125.182 527.753 125.182C526.863 125.182 526.126 124.989 525.543 124.602C524.959 124.216 524.59 123.652 524.435 122.909L525.707 122.591C525.829 123.061 526.058 123.413 526.395 123.648C526.736 123.883 527.181 124 527.73 124C528.355 124 528.851 123.867 529.219 123.602C529.59 123.333 529.776 123.011 529.776 122.636C529.776 122.333 529.67 122.08 529.457 121.875C529.245 121.667 528.92 121.511 528.48 121.409L527.026 121.068C526.226 120.879 525.639 120.585 525.264 120.188C524.893 119.786 524.707 119.284 524.707 118.682C524.707 118.189 524.846 117.754 525.122 117.375C525.402 116.996 525.783 116.699 526.264 116.483C526.749 116.267 527.298 116.159 527.912 116.159C528.776 116.159 529.454 116.348 529.946 116.727C530.442 117.106 530.795 117.606 531.003 118.227ZM535.18 123.409L535.089 124.023C535.025 124.455 534.927 124.917 534.794 125.409C534.665 125.902 534.531 126.366 534.391 126.801C534.25 127.237 534.135 127.583 534.044 127.841H533.021C533.071 127.598 533.135 127.278 533.214 126.881C533.294 126.483 533.374 126.038 533.453 125.545C533.536 125.057 533.605 124.557 533.658 124.045L533.726 123.409H535.18ZM548.347 118.227L547.142 118.568C547.066 118.367 546.955 118.172 546.807 117.983C546.663 117.79 546.466 117.631 546.216 117.506C545.966 117.381 545.646 117.318 545.256 117.318C544.722 117.318 544.277 117.441 543.92 117.688C543.568 117.93 543.392 118.239 543.392 118.614C543.392 118.947 543.513 119.21 543.756 119.403C543.998 119.597 544.377 119.758 544.892 119.886L546.188 120.205C546.968 120.394 547.549 120.684 547.932 121.074C548.314 121.46 548.506 121.958 548.506 122.568C548.506 123.068 548.362 123.515 548.074 123.909C547.79 124.303 547.392 124.614 546.881 124.841C546.369 125.068 545.775 125.182 545.097 125.182C544.206 125.182 543.47 124.989 542.886 124.602C542.303 124.216 541.934 123.652 541.778 122.909L543.051 122.591C543.172 123.061 543.402 123.413 543.739 123.648C544.08 123.883 544.525 124 545.074 124C545.699 124 546.195 123.867 546.562 123.602C546.934 123.333 547.119 123.011 547.119 122.636C547.119 122.333 547.013 122.08 546.801 121.875C546.589 121.667 546.263 121.511 545.824 121.409L544.369 121.068C543.57 120.879 542.983 120.585 542.608 120.188C542.237 119.786 542.051 119.284 542.051 118.682C542.051 118.189 542.189 117.754 542.466 117.375C542.746 116.996 543.127 116.699 543.608 116.483C544.093 116.267 544.642 116.159 545.256 116.159C546.119 116.159 546.797 116.348 547.29 116.727C547.786 117.106 548.138 117.606 548.347 118.227ZM553.092 125.205C552.539 125.205 552.037 125.1 551.587 124.892C551.136 124.68 550.778 124.375 550.513 123.977C550.248 123.576 550.115 123.091 550.115 122.523C550.115 122.023 550.214 121.617 550.411 121.307C550.607 120.992 550.871 120.746 551.2 120.568C551.53 120.39 551.893 120.258 552.291 120.17C552.693 120.08 553.096 120.008 553.501 119.955C554.032 119.886 554.462 119.835 554.791 119.801C555.125 119.763 555.367 119.701 555.518 119.614C555.674 119.527 555.751 119.375 555.751 119.159V119.114C555.751 118.553 555.598 118.117 555.291 117.807C554.988 117.496 554.528 117.341 553.911 117.341C553.27 117.341 552.768 117.481 552.405 117.761C552.041 118.042 551.786 118.341 551.638 118.659L550.365 118.205C550.592 117.674 550.895 117.261 551.274 116.966C551.657 116.667 552.073 116.458 552.524 116.341C552.979 116.22 553.426 116.159 553.865 116.159C554.145 116.159 554.467 116.193 554.831 116.261C555.198 116.326 555.553 116.46 555.893 116.665C556.238 116.869 556.524 117.178 556.751 117.591C556.979 118.004 557.092 118.557 557.092 119.25V125H555.751V123.818H555.683C555.592 124.008 555.441 124.21 555.229 124.426C555.017 124.642 554.734 124.826 554.382 124.977C554.03 125.129 553.6 125.205 553.092 125.205ZM553.297 124C553.827 124 554.274 123.896 554.638 123.688C555.005 123.479 555.282 123.21 555.467 122.881C555.657 122.551 555.751 122.205 555.751 121.841V120.614C555.695 120.682 555.57 120.744 555.376 120.801C555.187 120.854 554.967 120.902 554.717 120.943C554.471 120.981 554.231 121.015 553.996 121.045C553.765 121.072 553.577 121.095 553.433 121.114C553.085 121.159 552.759 121.233 552.456 121.335C552.157 121.434 551.914 121.583 551.729 121.784C551.547 121.981 551.456 122.25 551.456 122.591C551.456 123.057 551.628 123.409 551.973 123.648C552.321 123.883 552.763 124 553.297 124ZM560.881 113.364V125H559.54V113.364H560.881ZM565.905 125.205C565.352 125.205 564.85 125.1 564.399 124.892C563.948 124.68 563.59 124.375 563.325 123.977C563.06 123.576 562.928 123.091 562.928 122.523C562.928 122.023 563.026 121.617 563.223 121.307C563.42 120.992 563.683 120.746 564.013 120.568C564.342 120.39 564.706 120.258 565.104 120.17C565.505 120.08 565.909 120.008 566.314 119.955C566.844 119.886 567.274 119.835 567.604 119.801C567.937 119.763 568.179 119.701 568.331 119.614C568.486 119.527 568.564 119.375 568.564 119.159V119.114C568.564 118.553 568.411 118.117 568.104 117.807C567.801 117.496 567.34 117.341 566.723 117.341C566.083 117.341 565.581 117.481 565.217 117.761C564.854 118.042 564.598 118.341 564.45 118.659L563.178 118.205C563.405 117.674 563.708 117.261 564.087 116.966C564.469 116.667 564.886 116.458 565.337 116.341C565.791 116.22 566.238 116.159 566.678 116.159C566.958 116.159 567.28 116.193 567.643 116.261C568.011 116.326 568.365 116.46 568.706 116.665C569.051 116.869 569.337 117.178 569.564 117.591C569.791 118.004 569.905 118.557 569.905 119.25V125H568.564V123.818H568.496C568.405 124.008 568.253 124.21 568.041 124.426C567.829 124.642 567.547 124.826 567.195 124.977C566.842 125.129 566.412 125.205 565.905 125.205ZM566.109 124C566.64 124 567.087 123.896 567.45 123.688C567.818 123.479 568.094 123.21 568.28 122.881C568.469 122.551 568.564 122.205 568.564 121.841V120.614C568.507 120.682 568.382 120.744 568.189 120.801C568 120.854 567.78 120.902 567.53 120.943C567.284 120.981 567.043 121.015 566.808 121.045C566.577 121.072 566.39 121.095 566.246 121.114C565.897 121.159 565.571 121.233 565.268 121.335C564.969 121.434 564.727 121.583 564.541 121.784C564.359 121.981 564.268 122.25 564.268 122.591C564.268 123.057 564.441 123.409 564.786 123.648C565.134 123.883 565.575 124 566.109 124ZM572.352 125V116.273H573.648V117.591H573.739C573.898 117.159 574.186 116.809 574.602 116.54C575.019 116.271 575.489 116.136 576.011 116.136C576.11 116.136 576.233 116.138 576.381 116.142C576.528 116.146 576.64 116.152 576.716 116.159V117.523C576.67 117.511 576.566 117.494 576.403 117.472C576.244 117.445 576.076 117.432 575.898 117.432C575.473 117.432 575.095 117.521 574.761 117.699C574.432 117.873 574.17 118.116 573.977 118.426C573.788 118.733 573.693 119.083 573.693 119.477V125H572.352ZM579.435 128.273C579.207 128.273 579.005 128.254 578.827 128.216C578.649 128.182 578.526 128.148 578.457 128.114L578.798 126.932C579.124 127.015 579.412 127.045 579.662 127.023C579.912 127 580.134 126.888 580.327 126.688C580.524 126.491 580.704 126.17 580.866 125.727L581.116 125.045L577.889 116.273H579.344L581.753 123.227H581.844L584.253 116.273H585.707L582.003 126.273C581.836 126.723 581.63 127.097 581.384 127.392C581.137 127.691 580.851 127.913 580.526 128.057C580.204 128.201 579.84 128.273 579.435 128.273ZM595.773 116.273V117.409H591.25V116.273H595.773ZM592.568 114.182H593.909V122.5C593.909 122.879 593.964 123.163 594.074 123.352C594.188 123.538 594.331 123.663 594.506 123.727C594.684 123.788 594.871 123.818 595.068 123.818C595.216 123.818 595.337 123.811 595.432 123.795C595.527 123.777 595.602 123.761 595.659 123.75L595.932 124.955C595.841 124.989 595.714 125.023 595.551 125.057C595.388 125.095 595.182 125.114 594.932 125.114C594.553 125.114 594.182 125.032 593.818 124.869C593.458 124.706 593.159 124.458 592.92 124.125C592.686 123.792 592.568 123.371 592.568 122.864V114.182ZM597.79 125V116.273H599.085V117.591H599.176C599.335 117.159 599.623 116.809 600.04 116.54C600.456 116.271 600.926 116.136 601.449 116.136C601.547 116.136 601.67 116.138 601.818 116.142C601.966 116.146 602.078 116.152 602.153 116.159V117.523C602.108 117.511 602.004 117.494 601.841 117.472C601.682 117.445 601.513 117.432 601.335 117.432C600.911 117.432 600.532 117.521 600.199 117.699C599.869 117.873 599.608 118.116 599.415 118.426C599.225 118.733 599.131 119.083 599.131 119.477V125H597.79ZM607.136 125.182C606.295 125.182 605.57 124.996 604.96 124.625C604.354 124.25 603.886 123.727 603.557 123.057C603.231 122.383 603.068 121.598 603.068 120.705C603.068 119.811 603.231 119.023 603.557 118.341C603.886 117.655 604.345 117.121 604.932 116.739C605.523 116.352 606.212 116.159 607 116.159C607.455 116.159 607.903 116.235 608.347 116.386C608.79 116.538 609.193 116.784 609.557 117.125C609.92 117.462 610.21 117.909 610.426 118.466C610.642 119.023 610.75 119.708 610.75 120.523V121.091H604.023V119.932H609.386C609.386 119.439 609.288 119 609.091 118.614C608.898 118.227 608.621 117.922 608.261 117.699C607.905 117.475 607.485 117.364 607 117.364C606.466 117.364 606.004 117.496 605.614 117.761C605.227 118.023 604.93 118.364 604.722 118.784C604.513 119.205 604.409 119.655 604.409 120.136V120.909C604.409 121.568 604.523 122.127 604.75 122.585C604.981 123.04 605.301 123.386 605.71 123.625C606.119 123.86 606.595 123.977 607.136 123.977C607.489 123.977 607.807 123.928 608.091 123.83C608.379 123.727 608.627 123.576 608.835 123.375C609.044 123.17 609.205 122.917 609.318 122.614L610.614 122.977C610.477 123.417 610.248 123.803 609.926 124.136C609.604 124.466 609.206 124.723 608.733 124.909C608.259 125.091 607.727 125.182 607.136 125.182ZM614.131 119.75V125H612.79V116.273H614.085V117.636H614.199C614.403 117.193 614.714 116.837 615.131 116.568C615.547 116.295 616.085 116.159 616.744 116.159C617.335 116.159 617.852 116.28 618.295 116.523C618.739 116.761 619.083 117.125 619.33 117.614C619.576 118.098 619.699 118.712 619.699 119.455V125H618.358V119.545C618.358 118.86 618.18 118.326 617.824 117.943C617.468 117.557 616.979 117.364 616.358 117.364C615.93 117.364 615.547 117.456 615.21 117.642C614.877 117.828 614.614 118.098 614.42 118.455C614.227 118.811 614.131 119.242 614.131 119.75ZM625.445 125.182C624.717 125.182 624.075 124.998 623.518 124.631C622.962 124.259 622.526 123.737 622.212 123.062C621.897 122.384 621.74 121.583 621.74 120.659C621.74 119.742 621.897 118.947 622.212 118.273C622.526 117.598 622.964 117.078 623.524 116.71C624.085 116.343 624.732 116.159 625.467 116.159C626.036 116.159 626.484 116.254 626.814 116.443C627.147 116.629 627.401 116.841 627.575 117.08C627.753 117.314 627.892 117.508 627.99 117.659H628.104V113.364H629.445V125H628.149V123.659H627.99C627.892 123.818 627.751 124.019 627.57 124.261C627.388 124.5 627.128 124.714 626.791 124.903C626.454 125.089 626.005 125.182 625.445 125.182ZM625.626 123.977C626.164 123.977 626.619 123.837 626.99 123.557C627.361 123.273 627.643 122.881 627.837 122.381C628.03 121.877 628.126 121.295 628.126 120.636C628.126 119.985 628.032 119.415 627.842 118.926C627.653 118.434 627.373 118.051 627.001 117.778C626.63 117.502 626.172 117.364 625.626 117.364C625.058 117.364 624.585 117.509 624.206 117.801C623.831 118.089 623.549 118.481 623.359 118.977C623.174 119.47 623.081 120.023 623.081 120.636C623.081 121.258 623.176 121.822 623.365 122.33C623.558 122.833 623.842 123.235 624.217 123.534C624.596 123.83 625.066 123.977 625.626 123.977ZM638.268 118.227L637.064 118.568C636.988 118.367 636.876 118.172 636.729 117.983C636.585 117.79 636.388 117.631 636.138 117.506C635.888 117.381 635.568 117.318 635.178 117.318C634.643 117.318 634.198 117.441 633.842 117.688C633.49 117.93 633.314 118.239 633.314 118.614C633.314 118.947 633.435 119.21 633.678 119.403C633.92 119.597 634.299 119.758 634.814 119.886L636.109 120.205C636.89 120.394 637.471 120.684 637.854 121.074C638.236 121.46 638.428 121.958 638.428 122.568C638.428 123.068 638.284 123.515 637.996 123.909C637.712 124.303 637.314 124.614 636.803 124.841C636.291 125.068 635.696 125.182 635.018 125.182C634.128 125.182 633.392 124.989 632.808 124.602C632.225 124.216 631.856 123.652 631.7 122.909L632.973 122.591C633.094 123.061 633.323 123.413 633.661 123.648C634.001 123.883 634.446 124 634.996 124C635.621 124 636.117 123.867 636.484 123.602C636.856 123.333 637.041 123.011 637.041 122.636C637.041 122.333 636.935 122.08 636.723 121.875C636.511 121.667 636.185 121.511 635.746 121.409L634.291 121.068C633.492 120.879 632.905 120.585 632.53 120.188C632.159 119.786 631.973 119.284 631.973 118.682C631.973 118.189 632.111 117.754 632.388 117.375C632.668 116.996 633.049 116.699 633.53 116.483C634.015 116.267 634.564 116.159 635.178 116.159C636.041 116.159 636.719 116.348 637.212 116.727C637.708 117.106 638.06 117.606 638.268 118.227ZM642.446 123.409L642.355 124.023C642.291 124.455 642.192 124.917 642.06 125.409C641.931 125.902 641.796 126.366 641.656 126.801C641.516 127.237 641.401 127.583 641.31 127.841H640.287C640.336 127.598 640.401 127.278 640.48 126.881C640.56 126.483 640.639 126.038 640.719 125.545C640.802 125.057 640.87 124.557 640.923 124.045L640.991 123.409H642.446ZM652.976 125.182C652.158 125.182 651.453 124.989 650.862 124.602C650.271 124.216 649.817 123.684 649.499 123.006C649.18 122.328 649.021 121.553 649.021 120.682C649.021 119.795 649.184 119.013 649.51 118.335C649.839 117.653 650.298 117.121 650.885 116.739C651.476 116.352 652.165 116.159 652.953 116.159C653.567 116.159 654.12 116.273 654.612 116.5C655.105 116.727 655.508 117.045 655.822 117.455C656.137 117.864 656.332 118.341 656.408 118.886H655.067C654.964 118.489 654.737 118.136 654.385 117.83C654.036 117.519 653.567 117.364 652.976 117.364C652.453 117.364 651.995 117.5 651.601 117.773C651.211 118.042 650.906 118.422 650.686 118.915C650.47 119.403 650.362 119.977 650.362 120.636C650.362 121.311 650.468 121.898 650.68 122.398C650.896 122.898 651.199 123.286 651.589 123.562C651.983 123.839 652.446 123.977 652.976 123.977C653.324 123.977 653.641 123.917 653.925 123.795C654.209 123.674 654.449 123.5 654.646 123.273C654.843 123.045 654.983 122.773 655.067 122.455H656.408C656.332 122.97 656.144 123.434 655.845 123.847C655.55 124.256 655.158 124.581 654.669 124.824C654.184 125.062 653.62 125.182 652.976 125.182ZM660.936 125.205C660.383 125.205 659.881 125.1 659.43 124.892C658.98 124.68 658.622 124.375 658.357 123.977C658.091 123.576 657.959 123.091 657.959 122.523C657.959 122.023 658.057 121.617 658.254 121.307C658.451 120.992 658.714 120.746 659.044 120.568C659.374 120.39 659.737 120.258 660.135 120.17C660.536 120.08 660.94 120.008 661.345 119.955C661.875 119.886 662.305 119.835 662.635 119.801C662.968 119.763 663.211 119.701 663.362 119.614C663.518 119.527 663.595 119.375 663.595 119.159V119.114C663.595 118.553 663.442 118.117 663.135 117.807C662.832 117.496 662.372 117.341 661.754 117.341C661.114 117.341 660.612 117.481 660.249 117.761C659.885 118.042 659.629 118.341 659.482 118.659L658.209 118.205C658.436 117.674 658.739 117.261 659.118 116.966C659.5 116.667 659.917 116.458 660.368 116.341C660.822 116.22 661.269 116.159 661.709 116.159C661.989 116.159 662.311 116.193 662.675 116.261C663.042 116.326 663.396 116.46 663.737 116.665C664.082 116.869 664.368 117.178 664.595 117.591C664.822 118.004 664.936 118.557 664.936 119.25V125H663.595V123.818H663.527C663.436 124.008 663.285 124.21 663.072 124.426C662.86 124.642 662.578 124.826 662.226 124.977C661.874 125.129 661.444 125.205 660.936 125.205ZM661.141 124C661.671 124 662.118 123.896 662.482 123.688C662.849 123.479 663.125 123.21 663.311 122.881C663.5 122.551 663.595 122.205 663.595 121.841V120.614C663.538 120.682 663.413 120.744 663.22 120.801C663.031 120.854 662.811 120.902 662.561 120.943C662.315 120.981 662.074 121.015 661.839 121.045C661.608 121.072 661.421 121.095 661.277 121.114C660.929 121.159 660.603 121.233 660.3 121.335C660 121.434 659.758 121.583 659.572 121.784C659.391 121.981 659.3 122.25 659.3 122.591C659.3 123.057 659.472 123.409 659.817 123.648C660.165 123.883 660.607 124 661.141 124ZM667.384 125V116.273H668.679V117.591H668.77C668.929 117.159 669.217 116.809 669.634 116.54C670.05 116.271 670.52 116.136 671.043 116.136C671.141 116.136 671.264 116.138 671.412 116.142C671.56 116.146 671.671 116.152 671.747 116.159V117.523C671.702 117.511 671.598 117.494 671.435 117.472C671.276 117.445 671.107 117.432 670.929 117.432C670.505 117.432 670.126 117.521 669.793 117.699C669.463 117.873 669.202 118.116 669.009 118.426C668.819 118.733 668.724 119.083 668.724 119.477V125H667.384ZM676.73 125.182C675.889 125.182 675.164 124.996 674.554 124.625C673.948 124.25 673.48 123.727 673.151 123.057C672.825 122.383 672.662 121.598 672.662 120.705C672.662 119.811 672.825 119.023 673.151 118.341C673.48 117.655 673.938 117.121 674.526 116.739C675.116 116.352 675.806 116.159 676.594 116.159C677.048 116.159 677.497 116.235 677.94 116.386C678.384 116.538 678.787 116.784 679.151 117.125C679.514 117.462 679.804 117.909 680.02 118.466C680.236 119.023 680.344 119.708 680.344 120.523V121.091H673.616V119.932H678.98C678.98 119.439 678.882 119 678.685 118.614C678.491 118.227 678.215 117.922 677.855 117.699C677.499 117.475 677.079 117.364 676.594 117.364C676.06 117.364 675.598 117.496 675.207 117.761C674.821 118.023 674.524 118.364 674.315 118.784C674.107 119.205 674.003 119.655 674.003 120.136V120.909C674.003 121.568 674.116 122.127 674.344 122.585C674.575 123.04 674.895 123.386 675.304 123.625C675.713 123.86 676.188 123.977 676.73 123.977C677.082 123.977 677.401 123.928 677.685 123.83C677.973 123.727 678.221 123.576 678.429 123.375C678.637 123.17 678.798 122.917 678.912 122.614L680.207 122.977C680.071 123.417 679.842 123.803 679.52 124.136C679.198 124.466 678.8 124.723 678.327 124.909C677.853 125.091 677.321 125.182 676.73 125.182ZM686.043 125.182C685.202 125.182 684.476 124.996 683.866 124.625C683.26 124.25 682.793 123.727 682.463 123.057C682.137 122.383 681.974 121.598 681.974 120.705C681.974 119.811 682.137 119.023 682.463 118.341C682.793 117.655 683.251 117.121 683.838 116.739C684.429 116.352 685.118 116.159 685.906 116.159C686.361 116.159 686.81 116.235 687.253 116.386C687.696 116.538 688.099 116.784 688.463 117.125C688.827 117.462 689.116 117.909 689.332 118.466C689.548 119.023 689.656 119.708 689.656 120.523V121.091H682.929V119.932H688.293C688.293 119.439 688.194 119 687.997 118.614C687.804 118.227 687.527 117.922 687.168 117.699C686.812 117.475 686.391 117.364 685.906 117.364C685.372 117.364 684.91 117.496 684.52 117.761C684.134 118.023 683.836 118.364 683.628 118.784C683.42 119.205 683.315 119.655 683.315 120.136V120.909C683.315 121.568 683.429 122.127 683.656 122.585C683.887 123.04 684.207 123.386 684.616 123.625C685.026 123.86 685.501 123.977 686.043 123.977C686.395 123.977 686.713 123.928 686.997 123.83C687.285 123.727 687.533 123.576 687.741 123.375C687.95 123.17 688.111 122.917 688.224 122.614L689.52 122.977C689.384 123.417 689.154 123.803 688.832 124.136C688.51 124.466 688.113 124.723 687.639 124.909C687.166 125.091 686.634 125.182 686.043 125.182ZM691.696 125V116.273H692.991V117.591H693.082C693.241 117.159 693.529 116.809 693.946 116.54C694.363 116.271 694.832 116.136 695.355 116.136C695.454 116.136 695.577 116.138 695.724 116.142C695.872 116.146 695.984 116.152 696.06 116.159V117.523C696.014 117.511 695.91 117.494 695.747 117.472C695.588 117.445 695.42 117.432 695.241 117.432C694.817 117.432 694.438 117.521 694.105 117.699C693.776 117.873 693.514 118.116 693.321 118.426C693.132 118.733 693.037 119.083 693.037 119.477V125H691.696ZM705.945 116.273V117.409H701.422V116.273H705.945ZM702.74 114.182H704.081V122.5C704.081 122.879 704.136 123.163 704.246 123.352C704.359 123.538 704.503 123.663 704.678 123.727C704.856 123.788 705.043 123.818 705.24 123.818C705.388 123.818 705.509 123.811 705.604 123.795C705.698 123.777 705.774 123.761 705.831 123.75L706.104 124.955C706.013 124.989 705.886 125.023 705.723 125.057C705.56 125.095 705.354 125.114 705.104 125.114C704.725 125.114 704.354 125.032 703.99 124.869C703.63 124.706 703.331 124.458 703.092 124.125C702.857 123.792 702.74 123.371 702.74 122.864V114.182ZM707.962 125V116.273H709.303V125H707.962ZM708.643 114.818C708.382 114.818 708.157 114.729 707.967 114.551C707.782 114.373 707.689 114.159 707.689 113.909C707.689 113.659 707.782 113.445 707.967 113.267C708.157 113.089 708.382 113 708.643 113C708.905 113 709.128 113.089 709.314 113.267C709.503 113.445 709.598 113.659 709.598 113.909C709.598 114.159 709.503 114.373 709.314 114.551C709.128 114.729 708.905 114.818 708.643 114.818ZM711.759 128.273V116.273H713.054V117.659H713.213C713.312 117.508 713.448 117.314 713.622 117.08C713.8 116.841 714.054 116.629 714.384 116.443C714.717 116.254 715.168 116.159 715.736 116.159C716.471 116.159 717.118 116.343 717.679 116.71C718.24 117.078 718.677 117.598 718.991 118.273C719.306 118.947 719.463 119.742 719.463 120.659C719.463 121.583 719.306 122.384 718.991 123.062C718.677 123.737 718.241 124.259 717.685 124.631C717.128 124.998 716.486 125.182 715.759 125.182C715.198 125.182 714.749 125.089 714.412 124.903C714.075 124.714 713.815 124.5 713.634 124.261C713.452 124.019 713.312 123.818 713.213 123.659H713.099V128.273H711.759ZM713.077 120.636C713.077 121.295 713.173 121.877 713.366 122.381C713.56 122.881 713.842 123.273 714.213 123.557C714.584 123.837 715.039 123.977 715.577 123.977C716.137 123.977 716.605 123.83 716.98 123.534C717.359 123.235 717.643 122.833 717.832 122.33C718.026 121.822 718.122 121.258 718.122 120.636C718.122 120.023 718.027 119.47 717.838 118.977C717.652 118.481 717.37 118.089 716.991 117.801C716.616 117.509 716.145 117.364 715.577 117.364C715.031 117.364 714.573 117.502 714.202 117.778C713.83 118.051 713.55 118.434 713.361 118.926C713.171 119.415 713.077 119.985 713.077 120.636ZM727.69 118.227L726.486 118.568C726.41 118.367 726.298 118.172 726.151 117.983C726.007 117.79 725.81 117.631 725.56 117.506C725.31 117.381 724.99 117.318 724.599 117.318C724.065 117.318 723.62 117.441 723.264 117.688C722.912 117.93 722.736 118.239 722.736 118.614C722.736 118.947 722.857 119.21 723.099 119.403C723.342 119.597 723.721 119.758 724.236 119.886L725.531 120.205C726.312 120.394 726.893 120.684 727.276 121.074C727.658 121.46 727.849 121.958 727.849 122.568C727.849 123.068 727.705 123.515 727.418 123.909C727.134 124.303 726.736 124.614 726.224 124.841C725.713 125.068 725.118 125.182 724.44 125.182C723.55 125.182 722.813 124.989 722.23 124.602C721.647 124.216 721.277 123.652 721.122 122.909L722.395 122.591C722.516 123.061 722.745 123.413 723.082 123.648C723.423 123.883 723.868 124 724.418 124C725.043 124 725.539 123.867 725.906 123.602C726.277 123.333 726.463 123.011 726.463 122.636C726.463 122.333 726.357 122.08 726.145 121.875C725.933 121.667 725.607 121.511 725.168 121.409L723.713 121.068C722.914 120.879 722.327 120.585 721.952 120.188C721.58 119.786 721.395 119.284 721.395 118.682C721.395 118.189 721.533 117.754 721.81 117.375C722.09 116.996 722.471 116.699 722.952 116.483C723.437 116.267 723.986 116.159 724.599 116.159C725.463 116.159 726.141 116.348 726.634 116.727C727.13 117.106 727.482 117.606 727.69 118.227ZM731.868 123.409L731.777 124.023C731.713 124.455 731.614 124.917 731.482 125.409C731.353 125.902 731.218 126.366 731.078 126.801C730.938 127.237 730.822 127.583 730.732 127.841H729.709C729.758 127.598 729.822 127.278 729.902 126.881C729.982 126.483 730.061 126.038 730.141 125.545C730.224 125.057 730.292 124.557 730.345 124.045L730.413 123.409H731.868ZM741.42 125.205C740.867 125.205 740.366 125.1 739.915 124.892C739.464 124.68 739.106 124.375 738.841 123.977C738.576 123.576 738.443 123.091 738.443 122.523C738.443 122.023 738.542 121.617 738.739 121.307C738.936 120.992 739.199 120.746 739.528 120.568C739.858 120.39 740.222 120.258 740.619 120.17C741.021 120.08 741.424 120.008 741.83 119.955C742.36 119.886 742.79 119.835 743.119 119.801C743.453 119.763 743.695 119.701 743.847 119.614C744.002 119.527 744.08 119.375 744.08 119.159V119.114C744.08 118.553 743.926 118.117 743.619 117.807C743.316 117.496 742.856 117.341 742.239 117.341C741.598 117.341 741.097 117.481 740.733 117.761C740.369 118.042 740.114 118.341 739.966 118.659L738.693 118.205C738.92 117.674 739.223 117.261 739.602 116.966C739.985 116.667 740.402 116.458 740.852 116.341C741.307 116.22 741.754 116.159 742.193 116.159C742.473 116.159 742.795 116.193 743.159 116.261C743.527 116.326 743.881 116.46 744.222 116.665C744.566 116.869 744.852 117.178 745.08 117.591C745.307 118.004 745.42 118.557 745.42 119.25V125H744.08V123.818H744.011C743.92 124.008 743.769 124.21 743.557 124.426C743.345 124.642 743.063 124.826 742.71 124.977C742.358 125.129 741.928 125.205 741.42 125.205ZM741.625 124C742.155 124 742.602 123.896 742.966 123.688C743.333 123.479 743.61 123.21 743.795 122.881C743.985 122.551 744.08 122.205 744.08 121.841V120.614C744.023 120.682 743.898 120.744 743.705 120.801C743.515 120.854 743.295 120.902 743.045 120.943C742.799 120.981 742.559 121.015 742.324 121.045C742.093 121.072 741.905 121.095 741.761 121.114C741.413 121.159 741.087 121.233 740.784 121.335C740.485 121.434 740.242 121.583 740.057 121.784C739.875 121.981 739.784 122.25 739.784 122.591C739.784 123.057 739.956 123.409 740.301 123.648C740.65 123.883 741.091 124 741.625 124ZM749.209 119.75V125H747.868V116.273H749.163V117.636H749.277C749.482 117.193 749.792 116.837 750.209 116.568C750.625 116.295 751.163 116.159 751.822 116.159C752.413 116.159 752.93 116.28 753.374 116.523C753.817 116.761 754.161 117.125 754.408 117.614C754.654 118.098 754.777 118.712 754.777 119.455V125H753.436V119.545C753.436 118.86 753.258 118.326 752.902 117.943C752.546 117.557 752.057 117.364 751.436 117.364C751.008 117.364 750.625 117.456 750.288 117.642C749.955 117.828 749.692 118.098 749.499 118.455C749.305 118.811 749.209 119.242 749.209 119.75ZM760.523 125.182C759.795 125.182 759.153 124.998 758.597 124.631C758.04 124.259 757.604 123.737 757.29 123.062C756.975 122.384 756.818 121.583 756.818 120.659C756.818 119.742 756.975 118.947 757.29 118.273C757.604 117.598 758.042 117.078 758.602 116.71C759.163 116.343 759.811 116.159 760.545 116.159C761.114 116.159 761.563 116.254 761.892 116.443C762.225 116.629 762.479 116.841 762.653 117.08C762.831 117.314 762.97 117.508 763.068 117.659H763.182V113.364H764.523V125H763.227V123.659H763.068C762.97 123.818 762.83 124.019 762.648 124.261C762.466 124.5 762.206 124.714 761.869 124.903C761.532 125.089 761.083 125.182 760.523 125.182ZM760.705 123.977C761.242 123.977 761.697 123.837 762.068 123.557C762.439 123.273 762.722 122.881 762.915 122.381C763.108 121.877 763.205 121.295 763.205 120.636C763.205 119.985 763.11 119.415 762.92 118.926C762.731 118.434 762.451 118.051 762.08 117.778C761.708 117.502 761.25 117.364 760.705 117.364C760.136 117.364 759.663 117.509 759.284 117.801C758.909 118.089 758.627 118.481 758.438 118.977C758.252 119.47 758.159 120.023 758.159 120.636C758.159 121.258 758.254 121.822 758.443 122.33C758.636 122.833 758.92 123.235 759.295 123.534C759.674 123.83 760.144 123.977 760.705 123.977ZM771.665 125V116.273H772.96V117.636H773.074C773.256 117.17 773.549 116.809 773.955 116.551C774.36 116.29 774.847 116.159 775.415 116.159C775.991 116.159 776.47 116.29 776.852 116.551C777.239 116.809 777.54 117.17 777.756 117.636H777.847C778.07 117.186 778.405 116.828 778.852 116.562C779.299 116.294 779.835 116.159 780.46 116.159C781.241 116.159 781.879 116.403 782.375 116.892C782.871 117.377 783.119 118.133 783.119 119.159V125H781.778V119.159C781.778 118.515 781.602 118.055 781.25 117.778C780.898 117.502 780.483 117.364 780.006 117.364C779.392 117.364 778.917 117.549 778.58 117.92C778.242 118.288 778.074 118.754 778.074 119.318V125H776.71V119.023C776.71 118.527 776.549 118.127 776.227 117.824C775.905 117.517 775.491 117.364 774.983 117.364C774.634 117.364 774.309 117.456 774.006 117.642C773.706 117.828 773.464 118.085 773.278 118.415C773.097 118.741 773.006 119.117 773.006 119.545V125H771.665ZM789.116 125.182C788.329 125.182 787.637 124.994 787.043 124.619C786.452 124.244 785.99 123.72 785.656 123.045C785.327 122.371 785.162 121.583 785.162 120.682C785.162 119.773 785.327 118.979 785.656 118.301C785.99 117.623 786.452 117.097 787.043 116.722C787.637 116.347 788.329 116.159 789.116 116.159C789.904 116.159 790.594 116.347 791.185 116.722C791.779 117.097 792.241 117.623 792.571 118.301C792.904 118.979 793.071 119.773 793.071 120.682C793.071 121.583 792.904 122.371 792.571 123.045C792.241 123.72 791.779 124.244 791.185 124.619C790.594 124.994 789.904 125.182 789.116 125.182ZM789.116 123.977C789.715 123.977 790.207 123.824 790.594 123.517C790.98 123.21 791.266 122.807 791.452 122.307C791.637 121.807 791.73 121.265 791.73 120.682C791.73 120.098 791.637 119.555 791.452 119.051C791.266 118.547 790.98 118.14 790.594 117.83C790.207 117.519 789.715 117.364 789.116 117.364C788.518 117.364 788.026 117.519 787.639 117.83C787.253 118.14 786.967 118.547 786.781 119.051C786.596 119.555 786.503 120.098 786.503 120.682C786.503 121.265 786.596 121.807 786.781 122.307C786.967 122.807 787.253 123.21 787.639 123.517C788.026 123.824 788.518 123.977 789.116 123.977ZM795.118 125V116.273H796.413V117.591H796.504C796.663 117.159 796.951 116.809 797.368 116.54C797.785 116.271 798.254 116.136 798.777 116.136C798.875 116.136 798.999 116.138 799.146 116.142C799.294 116.146 799.406 116.152 799.482 116.159V117.523C799.436 117.511 799.332 117.494 799.169 117.472C799.01 117.445 798.841 117.432 798.663 117.432C798.239 117.432 797.86 117.521 797.527 117.699C797.197 117.873 796.936 118.116 796.743 118.426C796.554 118.733 796.459 119.083 796.459 119.477V125H795.118ZM804.464 125.182C803.624 125.182 802.898 124.996 802.288 124.625C801.682 124.25 801.214 123.727 800.885 123.057C800.559 122.383 800.396 121.598 800.396 120.705C800.396 119.811 800.559 119.023 800.885 118.341C801.214 117.655 801.673 117.121 802.26 116.739C802.851 116.352 803.54 116.159 804.328 116.159C804.783 116.159 805.232 116.235 805.675 116.386C806.118 116.538 806.521 116.784 806.885 117.125C807.249 117.462 807.538 117.909 807.754 118.466C807.97 119.023 808.078 119.708 808.078 120.523V121.091H801.351V119.932H806.714C806.714 119.439 806.616 119 806.419 118.614C806.226 118.227 805.949 117.922 805.589 117.699C805.233 117.475 804.813 117.364 804.328 117.364C803.794 117.364 803.332 117.496 802.942 117.761C802.555 118.023 802.258 118.364 802.05 118.784C801.841 119.205 801.737 119.655 801.737 120.136V120.909C801.737 121.568 801.851 122.127 802.078 122.585C802.309 123.04 802.629 123.386 803.038 123.625C803.447 123.86 803.923 123.977 804.464 123.977C804.817 123.977 805.135 123.928 805.419 123.83C805.707 123.727 805.955 123.576 806.163 123.375C806.372 123.17 806.533 122.917 806.646 122.614L807.942 122.977C807.805 123.417 807.576 123.803 807.254 124.136C806.932 124.466 806.535 124.723 806.061 124.909C805.588 125.091 805.055 125.182 804.464 125.182Z" fill="#D0D5DD"/>
<path d="M445.395 67.4062C445.228 65.9271 444.54 64.7812 443.332 63.9687C442.124 63.1458 440.603 62.7344 438.77 62.7344C437.457 62.7344 436.322 62.9427 435.363 63.3594C434.405 63.7656 433.66 64.3281 433.129 65.0469C432.608 65.7552 432.348 66.5625 432.348 67.4688C432.348 68.2292 432.525 68.8854 432.879 69.4375C433.243 69.9896 433.717 70.4531 434.301 70.8281C434.895 71.1927 435.53 71.5 436.207 71.75C436.884 71.9896 437.535 72.1875 438.16 72.3437L441.285 73.1562C442.306 73.4062 443.353 73.7448 444.426 74.1719C445.499 74.599 446.493 75.1615 447.41 75.8594C448.327 76.5573 449.066 77.4219 449.629 78.4531C450.202 79.4844 450.488 80.7187 450.488 82.1562C450.488 83.9687 450.02 85.5781 449.082 86.9844C448.155 88.3906 446.806 89.5 445.035 90.3125C443.275 91.125 441.145 91.5313 438.645 91.5313C436.249 91.5313 434.176 91.151 432.426 90.3906C430.676 89.6302 429.306 88.5521 428.316 87.1562C427.327 85.75 426.78 84.0833 426.676 82.1562H431.52C431.613 83.3125 431.988 84.276 432.645 85.0469C433.311 85.8073 434.16 86.375 435.191 86.75C436.233 87.1146 437.374 87.2969 438.613 87.2969C439.978 87.2969 441.191 87.0833 442.254 86.6562C443.327 86.2187 444.171 85.6146 444.785 84.8437C445.4 84.0625 445.707 83.151 445.707 82.1094C445.707 81.1615 445.436 80.3854 444.895 79.7812C444.363 79.1771 443.639 78.6771 442.723 78.2812C441.816 77.8854 440.79 77.5365 439.645 77.2344L435.863 76.2031C433.301 75.5052 431.27 74.4792 429.77 73.125C428.28 71.7708 427.535 69.9792 427.535 67.75C427.535 65.9062 428.035 64.2969 429.035 62.9219C430.035 61.5469 431.389 60.4792 433.098 59.7188C434.806 58.9479 436.733 58.5625 438.879 58.5625C441.046 58.5625 442.957 58.9427 444.613 59.7031C446.28 60.4635 447.592 61.5104 448.551 62.8437C449.509 64.1667 450.009 65.6875 450.051 67.4062H445.395ZM467.086 67V70.75H453.977V67H467.086ZM457.492 61.25H462.164V83.9531C462.164 84.8594 462.299 85.5417 462.57 86C462.841 86.4479 463.19 86.7552 463.617 86.9219C464.055 87.0781 464.529 87.1562 465.039 87.1562C465.414 87.1562 465.742 87.1302 466.023 87.0781C466.305 87.026 466.523 86.9844 466.68 86.9531L467.523 90.8125C467.253 90.9167 466.867 91.0208 466.367 91.125C465.867 91.2396 465.242 91.3021 464.492 91.3125C463.263 91.3333 462.117 91.1146 461.055 90.6562C459.992 90.1979 459.133 89.4896 458.477 88.5312C457.82 87.5729 457.492 86.3698 457.492 84.9219V61.25ZM479.238 91.5313C477.717 91.5313 476.342 91.25 475.113 90.6875C473.884 90.1146 472.91 89.2865 472.191 88.2031C471.483 87.1198 471.129 85.7917 471.129 84.2187C471.129 82.8646 471.389 81.75 471.91 80.875C472.431 80 473.134 79.3073 474.02 78.7969C474.905 78.2865 475.895 77.901 476.988 77.6406C478.082 77.3802 479.197 77.1823 480.332 77.0469C481.77 76.8802 482.936 76.7448 483.832 76.6406C484.728 76.526 485.379 76.3437 485.785 76.0938C486.191 75.8437 486.395 75.4375 486.395 74.875V74.7656C486.395 73.401 486.009 72.3437 485.238 71.5937C484.478 70.8437 483.342 70.4687 481.832 70.4687C480.259 70.4687 479.02 70.8177 478.113 71.5156C477.217 72.2031 476.598 72.9687 476.254 73.8125L471.863 72.8125C472.384 71.3542 473.145 70.1771 474.145 69.2812C475.155 68.375 476.316 67.7187 477.629 67.3125C478.941 66.8958 480.322 66.6875 481.77 66.6875C482.728 66.6875 483.743 66.8021 484.816 67.0313C485.9 67.25 486.91 67.6562 487.848 68.25C488.796 68.8437 489.572 69.6927 490.176 70.7969C490.78 71.8906 491.082 73.3125 491.082 75.0625V91H486.52V87.7187H486.332C486.03 88.3229 485.577 88.9167 484.973 89.5C484.368 90.0833 483.592 90.5677 482.645 90.9531C481.697 91.3385 480.561 91.5313 479.238 91.5313ZM480.254 87.7812C481.546 87.7812 482.65 87.526 483.566 87.0156C484.493 86.5052 485.197 85.8385 485.676 85.0156C486.165 84.1823 486.41 83.2917 486.41 82.3438V79.25C486.243 79.4167 485.921 79.5729 485.441 79.7187C484.973 79.8542 484.436 79.974 483.832 80.0781C483.228 80.1719 482.639 80.2604 482.066 80.3438C481.493 80.4167 481.014 80.4792 480.629 80.5312C479.723 80.6458 478.895 80.8385 478.145 81.1094C477.405 81.3802 476.811 81.7708 476.363 82.2812C475.926 82.7812 475.707 83.4479 475.707 84.2812C475.707 85.4375 476.134 86.3125 476.988 86.9062C477.842 87.4896 478.931 87.7812 480.254 87.7812ZM499.398 100C498.701 100 498.065 99.9427 497.492 99.8281C496.919 99.724 496.492 99.6094 496.211 99.4844L497.336 95.6563C498.19 95.8854 498.951 95.9844 499.617 95.9531C500.284 95.9219 500.872 95.6719 501.383 95.2031C501.904 94.7344 502.362 93.9687 502.758 92.9062L503.336 91.3125L494.555 67H499.555L505.633 85.625H505.883L511.961 67H516.977L507.086 94.2031C506.628 95.4531 506.044 96.5104 505.336 97.375C504.628 98.25 503.784 98.9063 502.805 99.3438C501.826 99.7813 500.69 100 499.398 100ZM548.215 81.0469V67H552.902V91H548.309V86.8438H548.059C547.507 88.125 546.621 89.1927 545.402 90.0469C544.194 90.8906 542.689 91.3125 540.887 91.3125C539.345 91.3125 537.98 90.974 536.793 90.2969C535.616 89.6094 534.689 88.5938 534.012 87.25C533.345 85.9062 533.012 84.2448 533.012 82.2656V67H537.684V81.7031C537.684 83.3385 538.137 84.6406 539.043 85.6094C539.949 86.5781 541.126 87.0625 542.574 87.0625C543.449 87.0625 544.319 86.8437 545.184 86.4062C546.059 85.9687 546.783 85.3073 547.355 84.4219C547.939 83.5365 548.225 82.4115 548.215 81.0469ZM559.18 100V67H563.742V70.8906H564.133C564.404 70.3906 564.794 69.8125 565.305 69.1562C565.815 68.5 566.523 67.9271 567.43 67.4375C568.336 66.9375 569.534 66.6875 571.023 66.6875C572.961 66.6875 574.69 67.1771 576.211 68.1563C577.732 69.1354 578.924 70.5469 579.789 72.3906C580.664 74.2344 581.102 76.4531 581.102 79.0469C581.102 81.6406 580.669 83.8646 579.805 85.7187C578.94 87.5625 577.753 88.9844 576.242 89.9844C574.732 90.974 573.008 91.4688 571.07 91.4688C569.612 91.4688 568.419 91.224 567.492 90.7344C566.576 90.2448 565.857 89.6719 565.336 89.0156C564.815 88.3594 564.414 87.776 564.133 87.2656H563.852V100H559.18ZM563.758 79C563.758 80.6875 564.003 82.1667 564.492 83.4375C564.982 84.7083 565.69 85.7031 566.617 86.4219C567.544 87.1302 568.68 87.4844 570.023 87.4844C571.419 87.4844 572.586 87.1146 573.523 86.375C574.461 85.625 575.169 84.6094 575.648 83.3281C576.138 82.0469 576.383 80.6042 576.383 79C576.383 77.4167 576.143 75.9948 575.664 74.7344C575.195 73.474 574.487 72.4792 573.539 71.75C572.602 71.0208 571.43 70.6562 570.023 70.6562C568.669 70.6562 567.523 71.0052 566.586 71.7031C565.659 72.401 564.956 73.375 564.477 74.625C563.997 75.875 563.758 77.3333 563.758 79ZM609.184 67V70.75H596.074V67H609.184ZM599.59 61.25H604.262V83.9531C604.262 84.8594 604.397 85.5417 604.668 86C604.939 86.4479 605.288 86.7552 605.715 86.9219C606.152 87.0781 606.626 87.1562 607.137 87.1562C607.512 87.1562 607.84 87.1302 608.121 87.0781C608.402 87.026 608.621 86.9844 608.777 86.9531L609.621 90.8125C609.35 90.9167 608.965 91.0208 608.465 91.125C607.965 91.2396 607.34 91.3021 606.59 91.3125C605.361 91.3333 604.215 91.1146 603.152 90.6562C602.09 90.1979 601.23 89.4896 600.574 88.5312C599.918 87.5729 599.59 86.3698 599.59 84.9219V61.25ZM624.203 91.4844C621.953 91.4844 619.99 90.9688 618.313 89.9375C616.635 88.9062 615.333 87.4635 614.406 85.6094C613.479 83.7552 613.016 81.5885 613.016 79.1094C613.016 76.6198 613.479 74.4427 614.406 72.5781C615.333 70.7135 616.635 69.2656 618.313 68.2344C619.99 67.2031 621.953 66.6875 624.203 66.6875C626.453 66.6875 628.417 67.2031 630.094 68.2344C631.771 69.2656 633.073 70.7135 634 72.5781C634.927 74.4427 635.391 76.6198 635.391 79.1094C635.391 81.5885 634.927 83.7552 634 85.6094C633.073 87.4635 631.771 88.9062 630.094 89.9375C628.417 90.9688 626.453 91.4844 624.203 91.4844ZM624.219 87.5625C625.677 87.5625 626.885 87.1771 627.844 86.4062C628.802 85.6354 629.51 84.6094 629.969 83.3281C630.438 82.0469 630.672 80.6354 630.672 79.0937C630.672 77.5625 630.438 76.1562 629.969 74.875C629.51 73.5833 628.802 72.5469 627.844 71.7656C626.885 70.9844 625.677 70.5937 624.219 70.5937C622.75 70.5937 621.531 70.9844 620.563 71.7656C619.604 72.5469 618.891 73.5833 618.422 74.875C617.964 76.1562 617.734 77.5625 617.734 79.0937C617.734 80.6354 617.964 82.0469 618.422 83.3281C618.891 84.6094 619.604 85.6354 620.563 86.4062C621.531 87.1771 622.75 87.5625 624.219 87.5625ZM661.234 91.4688C659.297 91.4688 657.568 90.974 656.047 89.9844C654.536 88.9844 653.349 87.5625 652.484 85.7187C651.63 83.8646 651.203 81.6406 651.203 79.0469C651.203 76.4531 651.635 74.2344 652.5 72.3906C653.375 70.5469 654.573 69.1354 656.094 68.1563C657.615 67.1771 659.339 66.6875 661.266 66.6875C662.755 66.6875 663.953 66.9375 664.859 67.4375C665.776 67.9271 666.484 68.5 666.984 69.1562C667.495 69.8125 667.891 70.3906 668.172 70.8906H668.453V59H673.125V91H668.563V87.2656H668.172C667.891 87.776 667.484 88.3594 666.953 89.0156C666.432 89.6719 665.714 90.2448 664.797 90.7344C663.88 91.224 662.693 91.4688 661.234 91.4688ZM662.266 87.4844C663.609 87.4844 664.745 87.1302 665.672 86.4219C666.609 85.7031 667.318 84.7083 667.797 83.4375C668.286 82.1667 668.531 80.6875 668.531 79C668.531 77.3333 668.292 75.875 667.813 74.625C667.333 73.375 666.63 72.401 665.703 71.7031C664.776 71.0052 663.63 70.6562 662.266 70.6562C660.859 70.6562 659.688 71.0208 658.75 71.75C657.813 72.4792 657.104 73.474 656.625 74.7344C656.156 75.9948 655.922 77.4167 655.922 79C655.922 80.6042 656.161 82.0469 656.641 83.3281C657.12 84.6094 657.828 85.625 658.766 86.375C659.714 87.1146 660.88 87.4844 662.266 87.4844ZM686.777 91.5313C685.257 91.5313 683.882 91.25 682.652 90.6875C681.423 90.1146 680.449 89.2865 679.73 88.2031C679.022 87.1198 678.668 85.7917 678.668 84.2187C678.668 82.8646 678.928 81.75 679.449 80.875C679.97 80 680.673 79.3073 681.559 78.7969C682.444 78.2865 683.434 77.901 684.527 77.6406C685.621 77.3802 686.736 77.1823 687.871 77.0469C689.309 76.8802 690.475 76.7448 691.371 76.6406C692.267 76.526 692.918 76.3437 693.324 76.0938C693.73 75.8437 693.934 75.4375 693.934 74.875V74.7656C693.934 73.401 693.548 72.3437 692.777 71.5937C692.017 70.8437 690.882 70.4687 689.371 70.4687C687.798 70.4687 686.559 70.8177 685.652 71.5156C684.757 72.2031 684.137 72.9687 683.793 73.8125L679.402 72.8125C679.923 71.3542 680.684 70.1771 681.684 69.2812C682.694 68.375 683.855 67.7187 685.168 67.3125C686.48 66.8958 687.861 66.6875 689.309 66.6875C690.267 66.6875 691.283 66.8021 692.355 67.0313C693.439 67.25 694.449 67.6562 695.387 68.25C696.335 68.8437 697.111 69.6927 697.715 70.7969C698.319 71.8906 698.621 73.3125 698.621 75.0625V91H694.059V87.7187H693.871C693.569 88.3229 693.116 88.9167 692.512 89.5C691.908 90.0833 691.132 90.5677 690.184 90.9531C689.236 91.3385 688.1 91.5313 686.777 91.5313ZM687.793 87.7812C689.085 87.7812 690.189 87.526 691.105 87.0156C692.033 86.5052 692.736 85.8385 693.215 85.0156C693.704 84.1823 693.949 83.2917 693.949 82.3438V79.25C693.783 79.4167 693.46 79.5729 692.98 79.7187C692.512 79.8542 691.975 79.974 691.371 80.0781C690.767 80.1719 690.178 80.2604 689.605 80.3438C689.033 80.4167 688.553 80.4792 688.168 80.5312C687.262 80.6458 686.434 80.8385 685.684 81.1094C684.944 81.3802 684.35 81.7708 683.902 82.2812C683.465 82.7812 683.246 83.4479 683.246 84.2812C683.246 85.4375 683.673 86.3125 684.527 86.9062C685.382 87.4896 686.47 87.7812 687.793 87.7812ZM716.047 67V70.75H702.938V67H716.047ZM706.453 61.25H711.125V83.9531C711.125 84.8594 711.26 85.5417 711.531 86C711.802 86.4479 712.151 86.7552 712.578 86.9219C713.016 87.0781 713.49 87.1562 714 87.1562C714.375 87.1562 714.703 87.1302 714.984 87.0781C715.266 87.026 715.484 86.9844 715.641 86.9531L716.484 90.8125C716.214 90.9167 715.828 91.0208 715.328 91.125C714.828 91.2396 714.203 91.3021 713.453 91.3125C712.224 91.3333 711.078 91.1146 710.016 90.6562C708.953 90.1979 708.094 89.4896 707.437 88.5312C706.781 87.5729 706.453 86.3698 706.453 84.9219V61.25ZM731.301 91.4844C728.936 91.4844 726.9 90.9792 725.191 89.9688C723.493 88.9479 722.181 87.5156 721.254 85.6719C720.337 83.8177 719.879 81.6458 719.879 79.1562C719.879 76.6979 720.337 74.5312 721.254 72.6562C722.181 70.7812 723.473 69.3177 725.129 68.2656C726.796 67.2135 728.743 66.6875 730.973 66.6875C732.327 66.6875 733.639 66.9115 734.91 67.3594C736.181 67.8073 737.322 68.5104 738.332 69.4687C739.342 70.4271 740.139 71.6719 740.723 73.2031C741.306 74.724 741.598 76.5729 741.598 78.75V80.4062H722.52V76.9062H737.02C737.02 75.6771 736.77 74.5885 736.27 73.6406C735.77 72.6823 735.066 71.9271 734.16 71.375C733.264 70.8229 732.212 70.5469 731.004 70.5469C729.691 70.5469 728.546 70.8698 727.566 71.5156C726.598 72.151 725.848 72.9844 725.316 74.0156C724.796 75.0365 724.535 76.1458 724.535 77.3438V80.0781C724.535 81.6823 724.816 83.0469 725.379 84.1719C725.952 85.2969 726.749 86.1562 727.77 86.75C728.79 87.3333 729.983 87.625 731.348 87.625C732.233 87.625 733.04 87.5 733.77 87.25C734.499 86.9896 735.129 86.6042 735.66 86.0937C736.191 85.5833 736.598 84.9531 736.879 84.2031L741.301 85C740.947 86.3021 740.311 87.4427 739.395 88.4219C738.488 89.3906 737.348 90.1458 735.973 90.6875C734.608 91.2188 733.051 91.4844 731.301 91.4844ZM752.672 59L752.266 81.7969H747.938L747.531 59H752.672ZM750.109 91.2969C749.245 91.2969 748.505 90.9948 747.891 90.3906C747.276 89.776 746.974 89.0365 746.984 88.1719C746.974 87.3177 747.276 86.5885 747.891 85.9844C748.505 85.3698 749.245 85.0625 750.109 85.0625C750.953 85.0625 751.682 85.3698 752.297 85.9844C752.911 86.5885 753.224 87.3177 753.234 88.1719C753.224 88.7448 753.073 89.2708 752.781 89.75C752.5 90.2187 752.125 90.5937 751.656 90.875C751.188 91.1563 750.672 91.2969 750.109 91.2969Z" fill="white"/>
<rect x="340" y="161" width="499" height="64" rx="10" fill="white"/>
<path d="M361.409 199V187.364H368.432V188.614H362.818V192.545H368.068V193.795H362.818V197.75H368.523V199H361.409ZM372.131 193.75V199H370.79V190.273H372.085V191.636H372.199C372.403 191.193 372.714 190.837 373.131 190.568C373.547 190.295 374.085 190.159 374.744 190.159C375.335 190.159 375.852 190.28 376.295 190.523C376.739 190.761 377.083 191.125 377.33 191.614C377.576 192.098 377.699 192.712 377.699 193.455V199H376.358V193.545C376.358 192.86 376.18 192.326 375.824 191.943C375.468 191.557 374.979 191.364 374.358 191.364C373.93 191.364 373.547 191.456 373.21 191.642C372.877 191.828 372.614 192.098 372.42 192.455C372.227 192.811 372.131 193.242 372.131 193.75ZM383.945 190.273V191.409H379.422V190.273H383.945ZM380.74 188.182H382.081V196.5C382.081 196.879 382.136 197.163 382.246 197.352C382.359 197.538 382.503 197.663 382.678 197.727C382.856 197.788 383.043 197.818 383.24 197.818C383.388 197.818 383.509 197.811 383.604 197.795C383.698 197.777 383.774 197.761 383.831 197.75L384.104 198.955C384.013 198.989 383.886 199.023 383.723 199.057C383.56 199.095 383.354 199.114 383.104 199.114C382.725 199.114 382.354 199.032 381.99 198.869C381.63 198.706 381.331 198.458 381.092 198.125C380.857 197.792 380.74 197.371 380.74 196.864V188.182ZM389.527 199.182C388.686 199.182 387.961 198.996 387.351 198.625C386.745 198.25 386.277 197.727 385.947 197.057C385.622 196.383 385.459 195.598 385.459 194.705C385.459 193.811 385.622 193.023 385.947 192.341C386.277 191.655 386.735 191.121 387.322 190.739C387.913 190.352 388.603 190.159 389.391 190.159C389.845 190.159 390.294 190.235 390.737 190.386C391.18 190.538 391.584 190.784 391.947 191.125C392.311 191.462 392.601 191.909 392.817 192.466C393.033 193.023 393.141 193.708 393.141 194.523V195.091H386.413V193.932H391.777C391.777 193.439 391.679 193 391.482 192.614C391.288 192.227 391.012 191.922 390.652 191.699C390.296 191.475 389.875 191.364 389.391 191.364C388.857 191.364 388.394 191.496 388.004 191.761C387.618 192.023 387.321 192.364 387.112 192.784C386.904 193.205 386.8 193.655 386.8 194.136V194.909C386.8 195.568 386.913 196.127 387.141 196.585C387.372 197.04 387.692 197.386 388.101 197.625C388.51 197.86 388.985 197.977 389.527 197.977C389.879 197.977 390.197 197.928 390.482 197.83C390.769 197.727 391.018 197.576 391.226 197.375C391.434 197.17 391.595 196.917 391.709 196.614L393.004 196.977C392.868 197.417 392.639 197.803 392.317 198.136C391.995 198.466 391.597 198.723 391.124 198.909C390.65 199.091 390.118 199.182 389.527 199.182ZM395.18 199V190.273H396.476V191.591H396.567C396.726 191.159 397.014 190.809 397.43 190.54C397.847 190.271 398.317 190.136 398.839 190.136C398.938 190.136 399.061 190.138 399.209 190.142C399.357 190.146 399.468 190.152 399.544 190.159V191.523C399.499 191.511 399.394 191.494 399.232 191.472C399.072 191.445 398.904 191.432 398.726 191.432C398.302 191.432 397.923 191.521 397.589 191.699C397.26 191.873 396.999 192.116 396.805 192.426C396.616 192.733 396.521 193.083 396.521 193.477V199H395.18ZM406.497 202.273C406.27 202.273 406.067 202.254 405.889 202.216C405.711 202.182 405.588 202.148 405.52 202.114L405.861 200.932C406.187 201.015 406.474 201.045 406.724 201.023C406.974 201 407.196 200.888 407.389 200.688C407.586 200.491 407.766 200.17 407.929 199.727L408.179 199.045L404.952 190.273H406.406L408.815 197.227H408.906L411.315 190.273H412.77L409.065 200.273C408.899 200.723 408.692 201.097 408.446 201.392C408.2 201.691 407.914 201.913 407.588 202.057C407.266 202.201 406.902 202.273 406.497 202.273ZM417.773 199.182C416.985 199.182 416.294 198.994 415.699 198.619C415.108 198.244 414.646 197.72 414.312 197.045C413.983 196.371 413.818 195.583 413.818 194.682C413.818 193.773 413.983 192.979 414.312 192.301C414.646 191.623 415.108 191.097 415.699 190.722C416.294 190.347 416.985 190.159 417.773 190.159C418.561 190.159 419.25 190.347 419.841 190.722C420.436 191.097 420.898 191.623 421.227 192.301C421.561 192.979 421.727 193.773 421.727 194.682C421.727 195.583 421.561 196.371 421.227 197.045C420.898 197.72 420.436 198.244 419.841 198.619C419.25 198.994 418.561 199.182 417.773 199.182ZM417.773 197.977C418.371 197.977 418.864 197.824 419.25 197.517C419.636 197.21 419.922 196.807 420.108 196.307C420.294 195.807 420.386 195.265 420.386 194.682C420.386 194.098 420.294 193.555 420.108 193.051C419.922 192.547 419.636 192.14 419.25 191.83C418.864 191.519 418.371 191.364 417.773 191.364C417.174 191.364 416.682 191.519 416.295 191.83C415.909 192.14 415.623 192.547 415.438 193.051C415.252 193.555 415.159 194.098 415.159 194.682C415.159 195.265 415.252 195.807 415.438 196.307C415.623 196.807 415.909 197.21 416.295 197.517C416.682 197.824 417.174 197.977 417.773 197.977ZM429.274 195.432V190.273H430.615V199H429.274V197.523H429.183C428.979 197.966 428.661 198.343 428.229 198.653C427.797 198.96 427.251 199.114 426.592 199.114C426.047 199.114 425.562 198.994 425.138 198.756C424.714 198.513 424.38 198.15 424.138 197.665C423.895 197.176 423.774 196.561 423.774 195.818V190.273H425.115V195.727C425.115 196.364 425.293 196.871 425.649 197.25C426.009 197.629 426.467 197.818 427.024 197.818C427.357 197.818 427.696 197.733 428.041 197.562C428.39 197.392 428.681 197.131 428.916 196.778C429.155 196.426 429.274 195.977 429.274 195.432ZM433.071 199V190.273H434.366V191.591H434.457C434.616 191.159 434.904 190.809 435.321 190.54C435.738 190.271 436.207 190.136 436.73 190.136C436.829 190.136 436.952 190.138 437.099 190.142C437.247 190.146 437.359 190.152 437.435 190.159V191.523C437.389 191.511 437.285 191.494 437.122 191.472C436.963 191.445 436.795 191.432 436.616 191.432C436.192 191.432 435.813 191.521 435.48 191.699C435.151 191.873 434.889 192.116 434.696 192.426C434.507 192.733 434.412 193.083 434.412 193.477V199H433.071ZM447.183 199.182C446.342 199.182 445.617 198.996 445.007 198.625C444.401 198.25 443.933 197.727 443.604 197.057C443.278 196.383 443.115 195.598 443.115 194.705C443.115 193.811 443.278 193.023 443.604 192.341C443.933 191.655 444.392 191.121 444.979 190.739C445.57 190.352 446.259 190.159 447.047 190.159C447.501 190.159 447.95 190.235 448.393 190.386C448.837 190.538 449.24 190.784 449.604 191.125C449.967 191.462 450.257 191.909 450.473 192.466C450.689 193.023 450.797 193.708 450.797 194.523V195.091H444.07V193.932H449.433C449.433 193.439 449.335 193 449.138 192.614C448.945 192.227 448.668 191.922 448.308 191.699C447.952 191.475 447.532 191.364 447.047 191.364C446.513 191.364 446.051 191.496 445.661 191.761C445.274 192.023 444.977 192.364 444.768 192.784C444.56 193.205 444.456 193.655 444.456 194.136V194.909C444.456 195.568 444.57 196.127 444.797 196.585C445.028 197.04 445.348 197.386 445.757 197.625C446.166 197.86 446.642 197.977 447.183 197.977C447.536 197.977 447.854 197.928 448.138 197.83C448.426 197.727 448.674 197.576 448.882 197.375C449.09 197.17 449.251 196.917 449.365 196.614L450.661 196.977C450.524 197.417 450.295 197.803 449.973 198.136C449.651 198.466 449.253 198.723 448.78 198.909C448.306 199.091 447.774 199.182 447.183 199.182ZM452.837 199V190.273H454.132V191.636H454.246C454.428 191.17 454.721 190.809 455.126 190.551C455.532 190.29 456.018 190.159 456.587 190.159C457.162 190.159 457.642 190.29 458.024 190.551C458.411 190.809 458.712 191.17 458.928 191.636H459.018C459.242 191.186 459.577 190.828 460.024 190.562C460.471 190.294 461.007 190.159 461.632 190.159C462.412 190.159 463.051 190.403 463.547 190.892C464.043 191.377 464.291 192.133 464.291 193.159V199H462.95V193.159C462.95 192.515 462.774 192.055 462.422 191.778C462.07 191.502 461.655 191.364 461.178 191.364C460.564 191.364 460.089 191.549 459.751 191.92C459.414 192.288 459.246 192.754 459.246 193.318V199H457.882V193.023C457.882 192.527 457.721 192.127 457.399 191.824C457.077 191.517 456.662 191.364 456.155 191.364C455.806 191.364 455.481 191.456 455.178 191.642C454.878 191.828 454.636 192.085 454.45 192.415C454.268 192.741 454.178 193.117 454.178 193.545V199H452.837ZM469.311 199.205C468.758 199.205 468.256 199.1 467.805 198.892C467.355 198.68 466.997 198.375 466.732 197.977C466.466 197.576 466.334 197.091 466.334 196.523C466.334 196.023 466.432 195.617 466.629 195.307C466.826 194.992 467.089 194.746 467.419 194.568C467.749 194.39 468.112 194.258 468.51 194.17C468.911 194.08 469.315 194.008 469.72 193.955C470.25 193.886 470.68 193.835 471.01 193.801C471.343 193.763 471.586 193.701 471.737 193.614C471.893 193.527 471.97 193.375 471.97 193.159V193.114C471.97 192.553 471.817 192.117 471.51 191.807C471.207 191.496 470.747 191.341 470.129 191.341C469.489 191.341 468.987 191.481 468.624 191.761C468.26 192.042 468.004 192.341 467.857 192.659L466.584 192.205C466.811 191.674 467.114 191.261 467.493 190.966C467.875 190.667 468.292 190.458 468.743 190.341C469.197 190.22 469.644 190.159 470.084 190.159C470.364 190.159 470.686 190.193 471.05 190.261C471.417 190.326 471.771 190.46 472.112 190.665C472.457 190.869 472.743 191.178 472.97 191.591C473.197 192.004 473.311 192.557 473.311 193.25V199H471.97V197.818H471.902C471.811 198.008 471.66 198.21 471.447 198.426C471.235 198.642 470.953 198.826 470.601 198.977C470.249 199.129 469.819 199.205 469.311 199.205ZM469.516 198C470.046 198 470.493 197.896 470.857 197.688C471.224 197.479 471.5 197.21 471.686 196.881C471.875 196.551 471.97 196.205 471.97 195.841V194.614C471.913 194.682 471.788 194.744 471.595 194.801C471.406 194.854 471.186 194.902 470.936 194.943C470.69 194.981 470.449 195.015 470.214 195.045C469.983 195.072 469.796 195.095 469.652 195.114C469.304 195.159 468.978 195.233 468.675 195.335C468.375 195.434 468.133 195.583 467.947 195.784C467.766 195.981 467.675 196.25 467.675 196.591C467.675 197.057 467.847 197.409 468.192 197.648C468.54 197.883 468.982 198 469.516 198ZM475.759 199V190.273H477.099V199H475.759ZM476.44 188.818C476.179 188.818 475.954 188.729 475.764 188.551C475.579 188.373 475.486 188.159 475.486 187.909C475.486 187.659 475.579 187.445 475.764 187.267C475.954 187.089 476.179 187 476.44 187C476.702 187 476.925 187.089 477.111 187.267C477.3 187.445 477.395 187.659 477.395 187.909C477.395 188.159 477.3 188.373 477.111 188.551C476.925 188.729 476.702 188.818 476.44 188.818ZM480.896 187.364V199H479.555V187.364H480.896Z" fill="#667085"/>
<rect x="681" y="165" width="154" height="56" rx="8" fill="#0C111D"/>
<path d="M725.972 190.562C725.919 190.066 725.695 189.68 725.301 189.403C724.911 189.127 724.403 188.989 723.778 188.989C723.339 188.989 722.962 189.055 722.648 189.188C722.333 189.32 722.093 189.5 721.926 189.727C721.759 189.955 721.674 190.214 721.67 190.506C721.67 190.748 721.725 190.958 721.835 191.136C721.949 191.314 722.102 191.466 722.295 191.591C722.489 191.712 722.703 191.814 722.938 191.898C723.172 191.981 723.409 192.051 723.648 192.108L724.739 192.381C725.178 192.483 725.6 192.621 726.006 192.795C726.415 192.97 726.78 193.189 727.102 193.455C727.428 193.72 727.686 194.04 727.875 194.415C728.064 194.79 728.159 195.229 728.159 195.733C728.159 196.415 727.985 197.015 727.636 197.534C727.288 198.049 726.784 198.453 726.125 198.744C725.47 199.032 724.676 199.176 723.744 199.176C722.839 199.176 722.053 199.036 721.386 198.756C720.723 198.475 720.205 198.066 719.83 197.528C719.458 196.991 719.258 196.335 719.227 195.562H721.301C721.331 195.968 721.456 196.305 721.676 196.574C721.896 196.843 722.182 197.044 722.534 197.176C722.89 197.309 723.288 197.375 723.727 197.375C724.186 197.375 724.587 197.307 724.932 197.17C725.28 197.03 725.553 196.837 725.75 196.591C725.947 196.341 726.047 196.049 726.051 195.716C726.047 195.413 725.958 195.163 725.784 194.966C725.61 194.765 725.366 194.598 725.051 194.466C724.741 194.33 724.377 194.208 723.96 194.102L722.636 193.761C721.678 193.515 720.92 193.142 720.364 192.642C719.811 192.138 719.534 191.47 719.534 190.636C719.534 189.951 719.72 189.35 720.091 188.835C720.466 188.32 720.975 187.92 721.619 187.636C722.263 187.348 722.992 187.205 723.807 187.205C724.633 187.205 725.356 187.348 725.977 187.636C726.602 187.92 727.093 188.316 727.449 188.824C727.805 189.328 727.989 189.907 728 190.562H725.972ZM735.51 195.33V190.273H737.567V199H735.572V197.449H735.482C735.285 197.937 734.961 198.337 734.51 198.648C734.063 198.958 733.512 199.114 732.857 199.114C732.285 199.114 731.779 198.987 731.339 198.733C730.904 198.475 730.563 198.102 730.317 197.614C730.071 197.121 729.947 196.527 729.947 195.83V190.273H732.004V195.511C732.004 196.064 732.156 196.504 732.459 196.83C732.762 197.155 733.16 197.318 733.652 197.318C733.955 197.318 734.249 197.244 734.533 197.097C734.817 196.949 735.05 196.729 735.232 196.438C735.417 196.142 735.51 195.773 735.51 195.33ZM739.773 199V187.364H741.83V191.716H741.915C742.021 191.504 742.17 191.278 742.364 191.04C742.557 190.797 742.818 190.591 743.148 190.42C743.477 190.246 743.898 190.159 744.409 190.159C745.083 190.159 745.691 190.331 746.233 190.676C746.778 191.017 747.21 191.523 747.528 192.193C747.85 192.86 748.011 193.678 748.011 194.648C748.011 195.606 747.854 196.42 747.54 197.091C747.225 197.761 746.797 198.273 746.256 198.625C745.714 198.977 745.1 199.153 744.415 199.153C743.915 199.153 743.5 199.07 743.17 198.903C742.841 198.737 742.576 198.536 742.375 198.301C742.178 198.062 742.025 197.837 741.915 197.625H741.795V199H739.773ZM741.79 194.636C741.79 195.201 741.869 195.695 742.028 196.119C742.191 196.544 742.424 196.875 742.727 197.114C743.034 197.348 743.405 197.466 743.841 197.466C744.295 197.466 744.676 197.345 744.983 197.102C745.29 196.856 745.521 196.521 745.676 196.097C745.835 195.669 745.915 195.182 745.915 194.636C745.915 194.095 745.837 193.614 745.682 193.193C745.527 192.773 745.295 192.443 744.989 192.205C744.682 191.966 744.299 191.847 743.841 191.847C743.402 191.847 743.028 191.962 742.722 192.193C742.415 192.424 742.182 192.748 742.023 193.165C741.867 193.581 741.79 194.072 741.79 194.636ZM756.658 192.58L754.783 192.784C754.73 192.595 754.637 192.417 754.504 192.25C754.375 192.083 754.201 191.949 753.982 191.847C753.762 191.744 753.493 191.693 753.175 191.693C752.747 191.693 752.387 191.786 752.095 191.972C751.807 192.157 751.665 192.398 751.669 192.693C751.665 192.947 751.758 193.153 751.947 193.312C752.141 193.472 752.459 193.602 752.902 193.705L754.391 194.023C755.216 194.201 755.83 194.483 756.232 194.869C756.637 195.256 756.841 195.761 756.845 196.386C756.841 196.936 756.68 197.42 756.362 197.841C756.048 198.258 755.61 198.583 755.05 198.818C754.489 199.053 753.845 199.17 753.118 199.17C752.05 199.17 751.19 198.947 750.538 198.5C749.887 198.049 749.499 197.422 749.374 196.619L751.379 196.426C751.47 196.82 751.663 197.117 751.959 197.318C752.254 197.519 752.639 197.619 753.112 197.619C753.601 197.619 753.993 197.519 754.288 197.318C754.588 197.117 754.737 196.869 754.737 196.574C754.737 196.324 754.641 196.117 754.447 195.955C754.258 195.792 753.963 195.667 753.561 195.58L752.072 195.267C751.235 195.093 750.616 194.799 750.214 194.386C749.813 193.97 749.614 193.443 749.618 192.807C749.614 192.269 749.76 191.803 750.055 191.409C750.355 191.011 750.769 190.705 751.3 190.489C751.834 190.269 752.449 190.159 753.146 190.159C754.169 190.159 754.974 190.377 755.561 190.812C756.152 191.248 756.518 191.837 756.658 192.58ZM762.348 199.17C761.477 199.17 760.729 198.979 760.104 198.597C759.482 198.214 759.003 197.686 758.666 197.011C758.333 196.333 758.166 195.553 758.166 194.67C758.166 193.784 758.337 193.002 758.678 192.324C759.018 191.642 759.5 191.112 760.121 190.733C760.746 190.35 761.484 190.159 762.337 190.159C763.045 190.159 763.672 190.29 764.217 190.551C764.767 190.809 765.204 191.174 765.53 191.648C765.856 192.117 766.041 192.667 766.087 193.295H764.121C764.041 192.875 763.852 192.525 763.553 192.244C763.257 191.96 762.861 191.818 762.365 191.818C761.945 191.818 761.575 191.932 761.257 192.159C760.939 192.383 760.691 192.705 760.513 193.125C760.339 193.545 760.251 194.049 760.251 194.636C760.251 195.231 760.339 195.742 760.513 196.17C760.687 196.595 760.931 196.922 761.246 197.153C761.564 197.381 761.937 197.494 762.365 197.494C762.668 197.494 762.939 197.437 763.178 197.324C763.42 197.206 763.623 197.038 763.786 196.818C763.948 196.598 764.06 196.331 764.121 196.017H766.087C766.037 196.634 765.856 197.182 765.541 197.659C765.227 198.133 764.799 198.504 764.257 198.773C763.715 199.038 763.079 199.17 762.348 199.17ZM767.776 199V190.273H769.77V191.727H769.861C770.02 191.223 770.293 190.835 770.679 190.562C771.069 190.286 771.514 190.148 772.014 190.148C772.128 190.148 772.255 190.153 772.395 190.165C772.539 190.172 772.658 190.186 772.753 190.205V192.097C772.666 192.066 772.527 192.04 772.338 192.017C772.152 191.991 771.973 191.977 771.798 191.977C771.423 191.977 771.086 192.059 770.787 192.222C770.491 192.381 770.259 192.602 770.088 192.886C769.918 193.17 769.832 193.498 769.832 193.869V199H767.776ZM774.119 199V190.273H776.176V199H774.119ZM775.153 189.034C774.828 189.034 774.547 188.926 774.312 188.71C774.078 188.491 773.96 188.227 773.96 187.92C773.96 187.61 774.078 187.347 774.312 187.131C774.547 186.911 774.828 186.801 775.153 186.801C775.483 186.801 775.763 186.911 775.994 187.131C776.229 187.347 776.347 187.61 776.347 187.92C776.347 188.227 776.229 188.491 775.994 188.71C775.763 188.926 775.483 189.034 775.153 189.034ZM778.382 199V187.364H780.439V191.716H780.524C780.63 191.504 780.78 191.278 780.973 191.04C781.166 190.797 781.428 190.591 781.757 190.42C782.087 190.246 782.507 190.159 783.018 190.159C783.693 190.159 784.301 190.331 784.842 190.676C785.388 191.017 785.82 191.523 786.138 192.193C786.46 192.86 786.621 193.678 786.621 194.648C786.621 195.606 786.464 196.42 786.149 197.091C785.835 197.761 785.407 198.273 784.865 198.625C784.323 198.977 783.71 199.153 783.024 199.153C782.524 199.153 782.109 199.07 781.78 198.903C781.45 198.737 781.185 198.536 780.984 198.301C780.787 198.062 780.634 197.837 780.524 197.625H780.405V199H778.382ZM780.399 194.636C780.399 195.201 780.479 195.695 780.638 196.119C780.801 196.544 781.034 196.875 781.337 197.114C781.643 197.348 782.015 197.466 782.45 197.466C782.905 197.466 783.286 197.345 783.592 197.102C783.899 196.856 784.13 196.521 784.286 196.097C784.445 195.669 784.524 195.182 784.524 194.636C784.524 194.095 784.446 193.614 784.291 193.193C784.136 192.773 783.905 192.443 783.598 192.205C783.291 191.966 782.909 191.847 782.45 191.847C782.011 191.847 781.638 191.962 781.331 192.193C781.024 192.424 780.791 192.748 780.632 193.165C780.477 193.581 780.399 194.072 780.399 194.636ZM792.233 199.17C791.358 199.17 790.602 198.989 789.966 198.625C789.333 198.258 788.847 197.739 788.506 197.068C788.165 196.394 787.994 195.6 787.994 194.688C787.994 193.79 788.165 193.002 788.506 192.324C788.85 191.642 789.331 191.112 789.949 190.733C790.566 190.35 791.292 190.159 792.125 190.159C792.663 190.159 793.17 190.246 793.648 190.42C794.129 190.591 794.553 190.856 794.92 191.216C795.292 191.576 795.583 192.034 795.795 192.591C796.008 193.144 796.114 193.803 796.114 194.568V195.199H788.96V193.812H794.142C794.138 193.419 794.053 193.068 793.886 192.761C793.72 192.451 793.487 192.206 793.188 192.028C792.892 191.85 792.547 191.761 792.153 191.761C791.733 191.761 791.364 191.864 791.045 192.068C790.727 192.269 790.479 192.534 790.301 192.864C790.127 193.189 790.038 193.547 790.034 193.938V195.148C790.034 195.655 790.127 196.091 790.312 196.455C790.498 196.814 790.758 197.091 791.091 197.284C791.424 197.473 791.814 197.568 792.261 197.568C792.561 197.568 792.831 197.527 793.074 197.443C793.316 197.356 793.527 197.229 793.705 197.062C793.883 196.896 794.017 196.689 794.108 196.443L796.028 196.659C795.907 197.167 795.676 197.61 795.335 197.989C794.998 198.364 794.566 198.655 794.04 198.864C793.513 199.068 792.911 199.17 792.233 199.17Z" fill="white"/>
<rect width="1180" height="271" rx="12" fill="#4C73FE"/>
<g opacity="0.2">
<g clip-path="url(#clip1_1_9)">
<path d="M63.8 31.6V32.2646H64.4646V31.6H63.8ZM63.1354 -32.2V31.6H64.4646V-32.2H63.1354ZM63.8 30.9354H0V32.2646H63.8V30.9354Z" fill="#D0D5DD" mask="url(#path-10-inside-1_1_9)"/>
<path d="M127.6 31.6V32.2646H128.265V31.6H127.6ZM126.935 -32.2V31.6H128.265V-32.2H126.935ZM127.6 30.9354H63.8V32.2646H127.6V30.9354Z" fill="#D0D5DD" mask="url(#path-12-inside-2_1_9)"/>
<path d="M191.4 31.6V32.2646H192.065V31.6H191.4ZM190.735 -32.2V31.6H192.065V-32.2H190.735ZM191.4 30.9354H127.6V32.2646H191.4V30.9354Z" fill="#D0D5DD" mask="url(#path-14-inside-3_1_9)"/>
<path d="M255.2 31.6V32.2646H255.865V31.6H255.2ZM254.535 -32.2V31.6H255.865V-32.2H254.535ZM255.2 30.9354H191.4V32.2646H255.2V30.9354Z" fill="#D0D5DD" mask="url(#path-16-inside-4_1_9)"/>
<path d="M319 31.6V32.2646H319.665V31.6H319ZM318.335 -32.2V31.6H319.665V-32.2H318.335ZM319 30.9354H255.2V32.2646H319V30.9354Z" fill="#D0D5DD" mask="url(#path-18-inside-5_1_9)"/>
<mask id="path-20-inside-6_1_9" fill="white">
<path d="M319 -32.2H382.8V31.6H319V-32.2Z"/>
</mask>
<path d="M319 -32.2H382.8V31.6H319V-32.2Z" fill="#CBD3EC" fill-opacity="0.5"/>
<path d="M382.8 31.6V32.2646H383.465V31.6H382.8ZM382.135 -32.2V31.6H383.465V-32.2H382.135ZM382.8 30.9354H319V32.2646H382.8V30.9354Z" fill="#D0D5DD" mask="url(#path-20-inside-6_1_9)"/>
<path d="M446.6 31.6V32.2646H447.265V31.6H446.6ZM445.935 -32.2V31.6H447.265V-32.2H445.935ZM446.6 30.9354H382.8V32.2646H446.6V30.9354Z" fill="#D0D5DD" mask="url(#path-22-inside-7_1_9)"/>
<path d="M510.4 31.6V32.2646H511.065V31.6H510.4ZM509.735 -32.2V31.6H511.065V-32.2H509.735ZM510.4 30.9354H446.6V32.2646H510.4V30.9354Z" fill="#D0D5DD" mask="url(#path-24-inside-8_1_9)"/>
<path d="M574.2 31.6V32.2646H574.865V31.6H574.2ZM573.535 -32.2V31.6H574.865V-32.2H573.535ZM574.2 30.9354H510.4V32.2646H574.2V30.9354Z" fill="#D0D5DD" mask="url(#path-26-inside-9_1_9)"/>
<path d="M638 31.6V32.2646H638.665V31.6H638ZM637.335 -32.2V31.6H638.665V-32.2H637.335ZM638 30.9354H574.2V32.2646H638V30.9354Z" fill="#D0D5DD" mask="url(#path-28-inside-10_1_9)"/>
<path d="M701.8 31.6V32.2646H702.465V31.6H701.8ZM701.135 -32.2V31.6H702.465V-32.2H701.135ZM701.8 30.9354H638V32.2646H701.8V30.9354Z" fill="#D0D5DD" mask="url(#path-30-inside-11_1_9)"/>
<path d="M765.6 31.6V32.2646H766.265V31.6H765.6ZM764.935 -32.2V31.6H766.265V-32.2H764.935ZM765.6 30.9354H701.8V32.2646H765.6V30.9354Z" fill="#D0D5DD" mask="url(#path-32-inside-12_1_9)"/>
<path d="M829.4 31.6V32.2646H830.065V31.6H829.4ZM828.735 -32.2V31.6H830.065V-32.2H828.735ZM829.4 30.9354H765.6V32.2646H829.4V30.9354Z" fill="#D0D5DD" mask="url(#path-34-inside-13_1_9)"/>
<path d="M893.2 31.6V32.2646H893.865V31.6H893.2ZM892.535 -32.2V31.6H893.865V-32.2H892.535ZM893.2 30.9354H829.4V32.2646H893.2V30.9354Z" fill="#D0D5DD" mask="url(#path-36-inside-14_1_9)"/>
<mask id="path-38-inside-15_1_9" fill="white">
<path d="M893.2 -32.2H957V31.6H893.2V-32.2Z"/>
</mask>
<path d="M893.2 -32.2H957V31.6H893.2V-32.2Z" fill="#CBD3EC" fill-opacity="0.5"/>
<path d="M957 31.6V32.2646H957.665V31.6H957ZM956.335 -32.2V31.6H957.665V-32.2H956.335ZM957 30.9354H893.2V32.2646H957V30.9354Z" fill="#D0D5DD" mask="url(#path-38-inside-15_1_9)"/>
<path d="M1020.8 31.6V32.2646H1021.46V31.6H1020.8ZM1020.14 -32.2V31.6H1021.46V-32.2H1020.14ZM1020.8 30.9354H957V32.2646H1020.8V30.9354Z" fill="#D0D5DD" mask="url(#path-40-inside-16_1_9)"/>
<path d="M1084.6 31.6V32.2646H1085.26V31.6H1084.6ZM1083.94 -32.2V31.6H1085.26V-32.2H1083.94ZM1084.6 30.9354H1020.8V32.2646H1084.6V30.9354Z" fill="#D0D5DD" mask="url(#path-42-inside-17_1_9)"/>
<path d="M1148.4 31.6V32.2646H1149.06V31.6H1148.4ZM1147.74 -32.2V31.6H1149.06V-32.2H1147.74ZM1148.4 30.9354H1084.6V32.2646H1148.4V30.9354Z" fill="#D0D5DD" mask="url(#path-44-inside-18_1_9)"/>
<path d="M1212.2 31.6V32.2646H1212.86V31.6H1212.2ZM1211.54 -32.2V31.6H1212.86V-32.2H1211.54ZM1212.2 30.9354H1148.4V32.2646H1212.2V30.9354Z" fill="#D0D5DD" mask="url(#path-46-inside-19_1_9)"/>
<path d="M63.8 95.4V96.0646H64.4646V95.4H63.8ZM63.1354 31.6V95.4H64.4646V31.6H63.1354ZM63.8 94.7354H0V96.0646H63.8V94.7354Z" fill="#D0D5DD" mask="url(#path-48-inside-20_1_9)"/>
<path d="M127.6 95.4V96.0646H128.265V95.4H127.6ZM126.935 31.6V95.4H128.265V31.6H126.935ZM127.6 94.7354H63.8V96.0646H127.6V94.7354Z" fill="#D0D5DD" mask="url(#path-50-inside-21_1_9)"/>
<path d="M191.4 95.4V96.0646H192.065V95.4H191.4ZM190.735 31.6V95.4H192.065V31.6H190.735ZM191.4 94.7354H127.6V96.0646H191.4V94.7354Z" fill="#D0D5DD" mask="url(#path-52-inside-22_1_9)"/>
<path d="M255.2 95.4V96.0646H255.865V95.4H255.2ZM254.535 31.6V95.4H255.865V31.6H254.535ZM255.2 94.7354H191.4V96.0646H255.2V94.7354Z" fill="#D0D5DD" mask="url(#path-54-inside-23_1_9)"/>
<path d="M319 95.4V96.0646H319.665V95.4H319ZM318.335 31.6V95.4H319.665V31.6H318.335ZM319 94.7354H255.2V96.0646H319V94.7354Z" fill="#D0D5DD" mask="url(#path-56-inside-24_1_9)"/>
<path d="M382.8 95.4V96.0646H383.465V95.4H382.8ZM382.135 31.6V95.4H383.465V31.6H382.135ZM382.8 94.7354H319V96.0646H382.8V94.7354Z" fill="#D0D5DD" mask="url(#path-58-inside-25_1_9)"/>
<path d="M446.6 95.4V96.0646H447.265V95.4H446.6ZM445.935 31.6V95.4H447.265V31.6H445.935ZM446.6 94.7354H382.8V96.0646H446.6V94.7354Z" fill="#D0D5DD" mask="url(#path-60-inside-26_1_9)"/>
<mask id="path-62-inside-27_1_9" fill="white">
<path d="M446.6 31.6H510.4V95.4H446.6V31.6Z"/>
</mask>
<path d="M446.6 31.6H510.4V95.4H446.6V31.6Z" fill="#CBD3EC" fill-opacity="0.5"/>
<path d="M510.4 95.4V96.0646H511.065V95.4H510.4ZM509.735 31.6V95.4H511.065V31.6H509.735ZM510.4 94.7354H446.6V96.0646H510.4V94.7354Z" fill="#D0D5DD" mask="url(#path-62-inside-27_1_9)"/>
<path d="M574.2 95.4V96.0646H574.865V95.4H574.2ZM573.535 31.6V95.4H574.865V31.6H573.535ZM574.2 94.7354H510.4V96.0646H574.2V94.7354Z" fill="#D0D5DD" mask="url(#path-64-inside-28_1_9)"/>
<path d="M638 95.4V96.0646H638.665V95.4H638ZM637.335 31.6V95.4H638.665V31.6H637.335ZM638 94.7354H574.2V96.0646H638V94.7354Z" fill="#D0D5DD" mask="url(#path-66-inside-29_1_9)"/>
<path d="M701.8 95.4V96.0646H702.465V95.4H701.8ZM701.135 31.6V95.4H702.465V31.6H701.135ZM701.8 94.7354H638V96.0646H701.8V94.7354Z" fill="#D0D5DD" mask="url(#path-68-inside-30_1_9)"/>
<mask id="path-70-inside-31_1_9" fill="white">
<path d="M701.8 31.6H765.6V95.4H701.8V31.6Z"/>
</mask>
<path d="M701.8 31.6H765.6V95.4H701.8V31.6Z" fill="#CBD3EC" fill-opacity="0.5"/>
<path d="M765.6 95.4V96.0646H766.265V95.4H765.6ZM764.935 31.6V95.4H766.265V31.6H764.935ZM765.6 94.7354H701.8V96.0646H765.6V94.7354Z" fill="#D0D5DD" mask="url(#path-70-inside-31_1_9)"/>
<path d="M829.4 95.4V96.0646H830.065V95.4H829.4ZM828.735 31.6V95.4H830.065V31.6H828.735ZM829.4 94.7354H765.6V96.0646H829.4V94.7354Z" fill="#D0D5DD" mask="url(#path-72-inside-32_1_9)"/>
<path d="M893.2 95.4V96.0646H893.865V95.4H893.2ZM892.535 31.6V95.4H893.865V31.6H892.535ZM893.2 94.7354H829.4V96.0646H893.2V94.7354Z" fill="#D0D5DD" mask="url(#path-74-inside-33_1_9)"/>
<path d="M957 95.4V96.0646H957.665V95.4H957ZM956.335 31.6V95.4H957.665V31.6H956.335ZM957 94.7354H893.2V96.0646H957V94.7354Z" fill="#D0D5DD" mask="url(#path-76-inside-34_1_9)"/>
<path d="M1020.8 95.4V96.0646H1021.46V95.4H1020.8ZM1020.14 31.6V95.4H1021.46V31.6H1020.14ZM1020.8 94.7354H957V96.0646H1020.8V94.7354Z" fill="#D0D5DD" mask="url(#path-78-inside-35_1_9)"/>
<path d="M1084.6 95.4V96.0646H1085.26V95.4H1084.6ZM1083.94 31.6V95.4H1085.26V31.6H1083.94ZM1084.6 94.7354H1020.8V96.0646H1084.6V94.7354Z" fill="#D0D5DD" mask="url(#path-80-inside-36_1_9)"/>
<path d="M1148.4 95.4V96.0646H1149.06V95.4H1148.4ZM1147.74 31.6V95.4H1149.06V31.6H1147.74ZM1148.4 94.7354H1084.6V96.0646H1148.4V94.7354Z" fill="#D0D5DD" mask="url(#path-82-inside-37_1_9)"/>
<path d="M1212.2 95.4V96.0646H1212.86V95.4H1212.2ZM1211.54 31.6V95.4H1212.86V31.6H1211.54ZM1212.2 94.7354H1148.4V96.0646H1212.2V94.7354Z" fill="#D0D5DD" mask="url(#path-84-inside-38_1_9)"/>
<path d="M63.8 159.2V159.865H64.4646V159.2H63.8ZM63.1354 95.4V159.2H64.4646V95.4H63.1354ZM63.8 158.535H0V159.865H63.8V158.535Z" fill="#D0D5DD" mask="url(#path-86-inside-39_1_9)"/>
<path d="M127.6 159.2V159.865H128.265V159.2H127.6ZM126.935 95.4V159.2H128.265V95.4H126.935ZM127.6 158.535H63.8V159.865H127.6V158.535Z" fill="#D0D5DD" mask="url(#path-88-inside-40_1_9)"/>
<mask id="path-90-inside-41_1_9" fill="white">
<path d="M127.6 95.4H191.4V159.2H127.6V95.4Z"/>
</mask>
<path d="M127.6 95.4H191.4V159.2H127.6V95.4Z" fill="#CBD3EC" fill-opacity="0.5"/>
<path d="M191.4 159.2V159.865H192.065V159.2H191.4ZM190.735 95.4V159.2H192.065V95.4H190.735ZM191.4 158.535H127.6V159.865H191.4V158.535Z" fill="#D0D5DD" mask="url(#path-90-inside-41_1_9)"/>
<path d="M255.2 159.2V159.865H255.865V159.2H255.2ZM254.535 95.4V159.2H255.865V95.4H254.535ZM255.2 158.535H191.4V159.865H255.2V158.535Z" fill="#D0D5DD" mask="url(#path-92-inside-42_1_9)"/>
<path d="M319 159.2V159.865H319.665V159.2H319ZM318.335 95.4V159.2H319.665V95.4H318.335ZM319 158.535H255.2V159.865H319V158.535Z" fill="#D0D5DD" mask="url(#path-94-inside-43_1_9)"/>
<path d="M382.8 159.2V159.865H383.465V159.2H382.8ZM382.135 95.4V159.2H383.465V95.4H382.135ZM382.8 158.535H319V159.865H382.8V158.535Z" fill="#D0D5DD" mask="url(#path-96-inside-44_1_9)"/>
<path d="M446.6 159.2V159.865H447.265V159.2H446.6ZM445.935 95.4V159.2H447.265V95.4H445.935ZM446.6 158.535H382.8V159.865H446.6V158.535Z" fill="#D0D5DD" mask="url(#path-98-inside-45_1_9)"/>
<path d="M510.4 159.2V159.865H511.065V159.2H510.4ZM509.735 95.4V159.2H511.065V95.4H509.735ZM510.4 158.535H446.6V159.865H510.4V158.535Z" fill="#D0D5DD" mask="url(#path-100-inside-46_1_9)"/>
<path d="M574.2 159.2V159.865H574.865V159.2H574.2ZM573.535 95.4V159.2H574.865V95.4H573.535ZM574.2 158.535H510.4V159.865H574.2V158.535Z" fill="#D0D5DD" mask="url(#path-102-inside-47_1_9)"/>
<path d="M638 159.2V159.865H638.665V159.2H638ZM637.335 95.4V159.2H638.665V95.4H637.335ZM638 158.535H574.2V159.865H638V158.535Z" fill="#D0D5DD" mask="url(#path-104-inside-48_1_9)"/>
<path d="M701.8 159.2V159.865H702.465V159.2H701.8ZM701.135 95.4V159.2H702.465V95.4H701.135ZM701.8 158.535H638V159.865H701.8V158.535Z" fill="#D0D5DD" mask="url(#path-106-inside-49_1_9)"/>
<path d="M765.6 159.2V159.865H766.265V159.2H765.6ZM764.935 95.4V159.2H766.265V95.4H764.935ZM765.6 158.535H701.8V159.865H765.6V158.535Z" fill="#D0D5DD" mask="url(#path-108-inside-50_1_9)"/>
<path d="M829.4 159.2V159.865H830.065V159.2H829.4ZM828.735 95.4V159.2H830.065V95.4H828.735ZM829.4 158.535H765.6V159.865H829.4V158.535Z" fill="#D0D5DD" mask="url(#path-110-inside-51_1_9)"/>
<path d="M893.2 159.2V159.865H893.865V159.2H893.2ZM892.535 95.4V159.2H893.865V95.4H892.535ZM893.2 158.535H829.4V159.865H893.2V158.535Z" fill="#D0D5DD" mask="url(#path-112-inside-52_1_9)"/>
<mask id="path-114-inside-53_1_9" fill="white">
<path d="M893.2 95.4H957V159.2H893.2V95.4Z"/>
</mask>
<path d="M893.2 95.4H957V159.2H893.2V95.4Z" fill="#CBD3EC" fill-opacity="0.5"/>
<path d="M957 159.2V159.865H957.665V159.2H957ZM956.335 95.4V159.2H957.665V95.4H956.335ZM957 158.535H893.2V159.865H957V158.535Z" fill="#D0D5DD" mask="url(#path-114-inside-53_1_9)"/>
<path d="M1020.8 159.2V159.865H1021.46V159.2H1020.8ZM1020.14 95.4V159.2H1021.46V95.4H1020.14ZM1020.8 158.535H957V159.865H1020.8V158.535Z" fill="#D0D5DD" mask="url(#path-116-inside-54_1_9)"/>
<path d="M1084.6 159.2V159.865H1085.26V159.2H1084.6ZM1083.94 95.4V159.2H1085.26V95.4H1083.94ZM1084.6 158.535H1020.8V159.865H1084.6V158.535Z" fill="#D0D5DD" mask="url(#path-118-inside-55_1_9)"/>
<path d="M1148.4 159.2V159.865H1149.06V159.2H1148.4ZM1147.74 95.4V159.2H1149.06V95.4H1147.74ZM1148.4 158.535H1084.6V159.865H1148.4V158.535Z" fill="#D0D5DD" mask="url(#path-120-inside-56_1_9)"/>
<path d="M1212.2 159.2V159.865H1212.86V159.2H1212.2ZM1211.54 95.4V159.2H1212.86V95.4H1211.54ZM1212.2 158.535H1148.4V159.865H1212.2V158.535Z" fill="#D0D5DD" mask="url(#path-122-inside-57_1_9)"/>
<path d="M63.8 223V223.665H64.4646V223H63.8ZM63.1354 159.2V223H64.4646V159.2H63.1354ZM63.8 222.335H0V223.665H63.8V222.335Z" fill="#D0D5DD" mask="url(#path-124-inside-58_1_9)"/>
<path d="M127.6 223V223.665H128.265V223H127.6ZM126.935 159.2V223H128.265V159.2H126.935ZM127.6 222.335H63.8V223.665H127.6V222.335Z" fill="#D0D5DD" mask="url(#path-126-inside-59_1_9)"/>
<path d="M191.4 223V223.665H192.065V223H191.4ZM190.735 159.2V223H192.065V159.2H190.735ZM191.4 222.335H127.6V223.665H191.4V222.335Z" fill="#D0D5DD" mask="url(#path-128-inside-60_1_9)"/>
<path d="M255.2 223V223.665H255.865V223H255.2ZM254.535 159.2V223H255.865V159.2H254.535ZM255.2 222.335H191.4V223.665H255.2V222.335Z" fill="#D0D5DD" mask="url(#path-130-inside-61_1_9)"/>
<path d="M319 223V223.665H319.665V223H319ZM318.335 159.2V223H319.665V159.2H318.335ZM319 222.335H255.2V223.665H319V222.335Z" fill="#D0D5DD" mask="url(#path-132-inside-62_1_9)"/>
<path d="M382.8 223V223.665H383.465V223H382.8ZM382.135 159.2V223H383.465V159.2H382.135ZM382.8 222.335H319V223.665H382.8V222.335Z" fill="#D0D5DD" mask="url(#path-134-inside-63_1_9)"/>
<path d="M446.6 223V223.665H447.265V223H446.6ZM445.935 159.2V223H447.265V159.2H445.935ZM446.6 222.335H382.8V223.665H446.6V222.335Z" fill="#D0D5DD" mask="url(#path-136-inside-64_1_9)"/>
<path d="M510.4 223V223.665H511.065V223H510.4ZM509.735 159.2V223H511.065V159.2H509.735ZM510.4 222.335H446.6V223.665H510.4V222.335Z" fill="#D0D5DD" mask="url(#path-138-inside-65_1_9)"/>
<mask id="path-140-inside-66_1_9" fill="white">
<path d="M510.4 159.2H574.2V223H510.4V159.2Z"/>
</mask>
<path d="M510.4 159.2H574.2V223H510.4V159.2Z" fill="#CBD3EC" fill-opacity="0.5"/>
<path d="M574.2 223V223.665H574.865V223H574.2ZM573.535 159.2V223H574.865V159.2H573.535ZM574.2 222.335H510.4V223.665H574.2V222.335Z" fill="#D0D5DD" mask="url(#path-140-inside-66_1_9)"/>
<path d="M638 223V223.665H638.665V223H638ZM637.335 159.2V223H638.665V159.2H637.335ZM638 222.335H574.2V223.665H638V222.335Z" fill="#D0D5DD" mask="url(#path-142-inside-67_1_9)"/>
<path d="M701.8 223V223.665H702.465V223H701.8ZM701.135 159.2V223H702.465V159.2H701.135ZM701.8 222.335H638V223.665H701.8V222.335Z" fill="#D0D5DD" mask="url(#path-144-inside-68_1_9)"/>
<path d="M765.6 223V223.665H766.265V223H765.6ZM764.935 159.2V223H766.265V159.2H764.935ZM765.6 222.335H701.8V223.665H765.6V222.335Z" fill="#D0D5DD" mask="url(#path-146-inside-69_1_9)"/>
<path d="M829.4 223V223.665H830.065V223H829.4ZM828.735 159.2V223H830.065V159.2H828.735ZM829.4 222.335H765.6V223.665H829.4V222.335Z" fill="#D0D5DD" mask="url(#path-148-inside-70_1_9)"/>
<path d="M893.2 223V223.665H893.865V223H893.2ZM892.535 159.2V223H893.865V159.2H892.535ZM893.2 222.335H829.4V223.665H893.2V222.335Z" fill="#D0D5DD" mask="url(#path-150-inside-71_1_9)"/>
<path d="M957 223V223.665H957.665V223H957ZM956.335 159.2V223H957.665V159.2H956.335ZM957 222.335H893.2V223.665H957V222.335Z" fill="#D0D5DD" mask="url(#path-152-inside-72_1_9)"/>
<path d="M1020.8 223V223.665H1021.46V223H1020.8ZM1020.14 159.2V223H1021.46V159.2H1020.14ZM1020.8 222.335H957V223.665H1020.8V222.335Z" fill="#D0D5DD" mask="url(#path-154-inside-73_1_9)"/>
<path d="M1084.6 223V223.665H1085.26V223H1084.6ZM1083.94 159.2V223H1085.26V159.2H1083.94ZM1084.6 222.335H1020.8V223.665H1084.6V222.335Z" fill="#D0D5DD" mask="url(#path-156-inside-74_1_9)"/>
<path d="M1148.4 223V223.665H1149.06V223H1148.4ZM1147.74 159.2V223H1149.06V159.2H1147.74ZM1148.4 222.335H1084.6V223.665H1148.4V222.335Z" fill="#D0D5DD" mask="url(#path-158-inside-75_1_9)"/>
<mask id="path-160-inside-76_1_9" fill="white">
<path d="M1148.4 159.2H1212.2V223H1148.4V159.2Z"/>
</mask>
<path d="M1148.4 159.2H1212.2V223H1148.4V159.2Z" fill="#CBD3EC" fill-opacity="0.5"/>
<path d="M1212.2 223V223.665H1212.86V223H1212.2ZM1211.54 159.2V223H1212.86V159.2H1211.54ZM1212.2 222.335H1148.4V223.665H1212.2V222.335Z" fill="#D0D5DD" mask="url(#path-160-inside-76_1_9)"/>
<path d="M63.8 286.8V287.465H64.4646V286.8H63.8ZM63.1354 223V286.8H64.4646V223H63.1354ZM63.8 286.135H0V287.465H63.8V286.135Z" fill="#D0D5DD" mask="url(#path-162-inside-77_1_9)"/>
<path d="M127.6 286.8V287.465H128.265V286.8H127.6ZM126.935 223V286.8H128.265V223H126.935ZM127.6 286.135H63.8V287.465H127.6V286.135Z" fill="#D0D5DD" mask="url(#path-164-inside-78_1_9)"/>
<path d="M191.4 286.8V287.465H192.065V286.8H191.4ZM190.735 223V286.8H192.065V223H190.735ZM191.4 286.135H127.6V287.465H191.4V286.135Z" fill="#D0D5DD" mask="url(#path-166-inside-79_1_9)"/>
<path d="M255.2 286.8V287.465H255.865V286.8H255.2ZM254.535 223V286.8H255.865V223H254.535ZM255.2 286.135H191.4V287.465H255.2V286.135Z" fill="#D0D5DD" mask="url(#path-168-inside-80_1_9)"/>
<path d="M319 286.8V287.465H319.665V286.8H319ZM318.335 223V286.8H319.665V223H318.335ZM319 286.135H255.2V287.465H319V286.135Z" fill="#D0D5DD" mask="url(#path-170-inside-81_1_9)"/>
<mask id="path-172-inside-82_1_9" fill="white">
<path d="M319 223H382.8V286.8H319V223Z"/>
</mask>
<path d="M319 223H382.8V286.8H319V223Z" fill="#CBD3EC" fill-opacity="0.5"/>
<path d="M382.8 286.8V287.465H383.465V286.8H382.8ZM382.135 223V286.8H383.465V223H382.135ZM382.8 286.135H319V287.465H382.8V286.135Z" fill="#D0D5DD" mask="url(#path-172-inside-82_1_9)"/>
<path d="M446.6 286.8V287.465H447.265V286.8H446.6ZM445.935 223V286.8H447.265V223H445.935ZM446.6 286.135H382.8V287.465H446.6V286.135Z" fill="#D0D5DD" mask="url(#path-174-inside-83_1_9)"/>
<path d="M510.4 286.8V287.465H511.065V286.8H510.4ZM509.735 223V286.8H511.065V223H509.735ZM510.4 286.135H446.6V287.465H510.4V286.135Z" fill="#D0D5DD" mask="url(#path-176-inside-84_1_9)"/>
<path d="M574.2 286.8V287.465H574.865V286.8H574.2ZM573.535 223V286.8H574.865V223H573.535ZM574.2 286.135H510.4V287.465H574.2V286.135Z" fill="#D0D5DD" mask="url(#path-178-inside-85_1_9)"/>
<path d="M638 286.8V287.465H638.665V286.8H638ZM637.335 223V286.8H638.665V223H637.335ZM638 286.135H574.2V287.465H638V286.135Z" fill="#D0D5DD" mask="url(#path-180-inside-86_1_9)"/>
<path d="M701.8 286.8V287.465H702.465V286.8H701.8ZM701.135 223V286.8H702.465V223H701.135ZM701.8 286.135H638V287.465H701.8V286.135Z" fill="#D0D5DD" mask="url(#path-182-inside-87_1_9)"/>
<mask id="path-184-inside-88_1_9" fill="white">
<path d="M701.8 223H765.6V286.8H701.8V223Z"/>
</mask>
<path d="M701.8 223H765.6V286.8H701.8V223Z" fill="#CBD3EC" fill-opacity="0.5"/>
<path d="M765.6 286.8V287.465H766.265V286.8H765.6ZM764.935 223V286.8H766.265V223H764.935ZM765.6 286.135H701.8V287.465H765.6V286.135Z" fill="#D0D5DD" mask="url(#path-184-inside-88_1_9)"/>
<path d="M829.4 286.8V287.465H830.065V286.8H829.4ZM828.735 223V286.8H830.065V223H828.735ZM829.4 286.135H765.6V287.465H829.4V286.135Z" fill="#D0D5DD" mask="url(#path-186-inside-89_1_9)"/>
<path d="M893.2 286.8V287.465H893.865V286.8H893.2ZM892.535 223V286.8H893.865V223H892.535ZM893.2 286.135H829.4V287.465H893.2V286.135Z" fill="#D0D5DD" mask="url(#path-188-inside-90_1_9)"/>
<path d="M957 286.8V287.465H957.665V286.8H957ZM956.335 223V286.8H957.665V223H956.335ZM957 286.135H893.2V287.465H957V286.135Z" fill="#D0D5DD" mask="url(#path-190-inside-91_1_9)"/>
<path d="M1020.8 286.8V287.465H1021.46V286.8H1020.8ZM1020.14 223V286.8H1021.46V223H1020.14ZM1020.8 286.135H957V287.465H1020.8V286.135Z" fill="#D0D5DD" mask="url(#path-192-inside-92_1_9)"/>
<path d="M1084.6 286.8V287.465H1085.26V286.8H1084.6ZM1083.94 223V286.8H1085.26V223H1083.94ZM1084.6 286.135H1020.8V287.465H1084.6V286.135Z" fill="#D0D5DD" mask="url(#path-194-inside-93_1_9)"/>
<path d="M1148.4 286.8V287.465H1149.06V286.8H1148.4ZM1147.74 223V286.8H1149.06V223H1147.74ZM1148.4 286.135H1084.6V287.465H1148.4V286.135Z" fill="#D0D5DD" mask="url(#path-196-inside-94_1_9)"/>
<path d="M1212.2 286.8V287.465H1212.86V286.8H1212.2ZM1211.54 223V286.8H1212.86V223H1211.54ZM1212.2 286.135H1148.4V287.465H1212.2V286.135Z" fill="#D0D5DD" mask="url(#path-198-inside-95_1_9)"/>
</g>
<rect x="0.332292" y="-95.6677" width="1275.34" height="956.335" stroke="#D0D5DD" strokeWidth="0.664583"/>
</g>
</g>
<defs>
<clipPath id="clip0_1_9">
<rect width="1180" height="271" fill="white"/>
</clipPath>
<clipPath id="clip1_1_9">
<rect y="-96" width="1276" height="957" fill="white"/>
</clipPath>
</defs>
</svg>
