<svg xmlns="http://www.w3.org/2000/svg" xmlns:xlink="http://www.w3.org/1999/xlink" width="1587" zoomAndPan="magnify" viewBox="0 0 1190.25 226.499992" height="302" preserveAspectRatio="xMidYMid meet" version="1.0"><defs><g/></defs><path fill="#0066ff" d="M 71.292969 12.371094 C 69.957031 14.28125 60.542969 24.726562 50.371094 35.585938 C 21.609375 66.292969 10.914062 78.613281 9.164062 83.058594 C 8.199219 85.5 8.023438 97.277344 8.71875 112.253906 C 9.632812 131.878906 10.378906 137.25 12.144531 136.859375 C 13.382812 136.585938 28.84375 119.710938 46.5 99.359375 L 78.601562 62.359375 L 78.589844 47.023438 C 78.574219 27.71875 76.839844 8.898438 75.074219 8.898438 C 74.335938 8.898438 72.632812 10.460938 71.292969 12.371094 M 79.941406 87.855469 C 75.082031 93.070312 40.679688 137.597656 22.640625 162.023438 C 16.074219 170.914062 10.023438 180.550781 9.195312 183.433594 C 6.953125 191.257812 7.320312 215.511719 9.71875 217.910156 C 11.210938 219.398438 25.839844 219.933594 65.054688 219.933594 L 118.363281 219.933594 L 127.605469 207.695312 C 132.6875 200.964844 140.089844 190.300781 144.050781 184 C 152.355469 170.796875 152.636719 172.222656 138.054688 153.777344 C 132.679688 146.988281 119.386719 129.175781 108.507812 114.203125 C 97.632812 99.230469 87.722656 86.136719 86.488281 85.109375 C 84.769531 83.683594 83.226562 84.332031 79.941406 87.855469 M 67.472656 159.46875 C 60.332031 168.925781 54.402344 177.78125 54.304688 179.144531 C 53.992188 183.390625 63.410156 184.726562 86.199219 183.664062 C 115.515625 182.296875 115.933594 181.832031 102.929688 164.957031 C 97.441406 157.832031 91.433594 149.824219 89.574219 147.160156 C 87.71875 144.496094 84.90625 142.308594 83.332031 142.296875 C 81.652344 142.28125 75.058594 149.425781 67.472656 159.46875 " fill-opacity="1" fill-rule="evenodd"/><g fill="#ffffff" fill-opacity="1"><g transform="translate(203.07533, 194.981361)"><g><path d="M 20.0625 -146.625 L 61.578125 -146.625 C 79.898438 -146.625 93.671875 -143.878906 102.890625 -138.390625 C 112.117188 -132.910156 116.734375 -123.585938 116.734375 -110.421875 C 116.734375 -104.734375 115.644531 -99.632812 113.46875 -95.125 C 111.300781 -90.613281 108.144531 -86.882812 104 -83.9375 C 99.851562 -81 94.738281 -78.960938 88.65625 -77.828125 L 88.65625 -76.828125 C 95.070312 -75.816406 100.753906 -73.972656 105.703125 -71.296875 C 110.648438 -68.628906 114.523438 -64.890625 117.328125 -60.078125 C 120.140625 -55.265625 121.546875 -49.144531 121.546875 -41.71875 C 121.546875 -32.695312 119.457031 -25.078125 115.28125 -18.859375 C 111.101562 -12.640625 105.203125 -7.941406 97.578125 -4.765625 C 89.953125 -1.585938 80.925781 0 70.5 0 L 20.0625 0 Z M 37.109375 -83.734375 L 65.1875 -83.734375 C 77.957031 -83.734375 86.796875 -85.835938 91.703125 -90.046875 C 96.617188 -94.265625 99.078125 -100.421875 99.078125 -108.515625 C 99.078125 -116.867188 96.148438 -122.882812 90.296875 -126.5625 C 84.453125 -130.238281 75.144531 -132.078125 62.375 -132.078125 L 37.109375 -132.078125 Z M 37.109375 -69.40625 L 37.109375 -14.546875 L 67.59375 -14.546875 C 80.632812 -14.546875 89.859375 -17.101562 95.265625 -22.21875 C 100.679688 -27.332031 103.390625 -34.234375 103.390625 -42.921875 C 103.390625 -48.472656 102.171875 -53.21875 99.734375 -57.15625 C 97.296875 -61.101562 93.351562 -64.128906 87.90625 -66.234375 C 82.457031 -68.347656 75.1875 -69.40625 66.09375 -69.40625 Z M 37.109375 -69.40625 "/></g></g><g transform="translate(335.752659, 194.981361)"><g><path d="M 108.3125 -109.921875 L 108.3125 0 L 94.671875 0 L 92.265625 -15.4375 L 91.359375 -15.4375 C 89.085938 -11.632812 86.144531 -8.425781 82.53125 -5.8125 C 78.925781 -3.207031 74.863281 -1.253906 70.34375 0.046875 C 65.832031 1.347656 61.035156 2 55.953125 2 C 47.265625 2 39.976562 0.597656 34.09375 -2.203125 C 28.207031 -5.015625 23.773438 -9.359375 20.796875 -15.234375 C 17.828125 -21.117188 16.34375 -28.675781 16.34375 -37.90625 L 16.34375 -109.921875 L 33.203125 -109.921875 L 33.203125 -39.109375 C 33.203125 -29.953125 35.269531 -23.113281 39.40625 -18.59375 C 43.550781 -14.082031 49.875 -11.828125 58.375 -11.828125 C 66.53125 -11.828125 73.03125 -13.363281 77.875 -16.4375 C 82.71875 -19.519531 86.207031 -24.050781 88.34375 -30.03125 C 90.488281 -36.019531 91.5625 -43.359375 91.5625 -52.046875 L 91.5625 -109.921875 Z M 108.3125 -109.921875 "/></g></g><g transform="translate(461.71088, 194.981361)"><g><path d="M 34.203125 -109.921875 L 34.203125 0 L 17.546875 0 L 17.546875 -109.921875 Z M 26.078125 -151.03125 C 28.816406 -151.03125 31.171875 -150.144531 33.140625 -148.375 C 35.117188 -146.601562 36.109375 -143.847656 36.109375 -140.109375 C 36.109375 -136.429688 35.117188 -133.6875 33.140625 -131.875 C 31.171875 -130.070312 28.816406 -129.171875 26.078125 -129.171875 C 23.203125 -129.171875 20.8125 -130.070312 18.90625 -131.875 C 17 -133.6875 16.046875 -136.429688 16.046875 -140.109375 C 16.046875 -143.847656 17 -146.601562 18.90625 -148.375 C 20.8125 -150.144531 23.203125 -151.03125 26.078125 -151.03125 Z M 26.078125 -151.03125 "/></g></g><g transform="translate(513.558333, 194.981361)"><g><path d="M 34.296875 0 L 17.546875 0 L 17.546875 -156.046875 L 34.296875 -156.046875 Z M 34.296875 0 "/></g></g><g transform="translate(565.405786, 194.981361)"><g><path d="M 56.65625 2 C 42.75 2 31.734375 -2.742188 23.609375 -12.234375 C 15.492188 -21.722656 11.4375 -35.832031 11.4375 -54.5625 C 11.4375 -73.476562 15.578125 -87.765625 23.859375 -97.421875 C 32.148438 -107.085938 43.1875 -111.921875 56.96875 -111.921875 C 62.78125 -111.921875 67.859375 -111.148438 72.203125 -109.609375 C 76.546875 -108.078125 80.289062 -106.023438 83.4375 -103.453125 C 86.582031 -100.878906 89.222656 -97.953125 91.359375 -94.671875 L 92.5625 -94.671875 C 92.300781 -96.742188 92.035156 -99.582031 91.765625 -103.1875 C 91.492188 -106.800781 91.359375 -109.742188 91.359375 -112.015625 L 91.359375 -156.046875 L 108.015625 -156.046875 L 108.015625 0 L 94.578125 0 L 92.0625 -15.640625 L 91.359375 -15.640625 C 89.285156 -12.367188 86.660156 -9.394531 83.484375 -6.71875 C 80.304688 -4.039062 76.53125 -1.914062 72.15625 -0.34375 C 67.78125 1.21875 62.613281 2 56.65625 2 Z M 59.265625 -11.828125 C 71.035156 -11.828125 79.359375 -15.171875 84.234375 -21.859375 C 89.117188 -28.546875 91.5625 -38.476562 91.5625 -51.65625 L 91.5625 -54.65625 C 91.5625 -68.632812 89.238281 -79.363281 84.59375 -86.84375 C 79.945312 -94.332031 71.503906 -98.078125 59.265625 -98.078125 C 49.035156 -98.078125 41.378906 -94.148438 36.296875 -86.296875 C 31.222656 -78.441406 28.6875 -67.726562 28.6875 -54.15625 C 28.6875 -40.644531 31.207031 -30.210938 36.25 -22.859375 C 41.300781 -15.503906 48.972656 -11.828125 59.265625 -11.828125 Z M 59.265625 -11.828125 "/></g></g><g transform="translate(691.063152, 194.981361)"><g><path d="M 37.109375 0 L 20.0625 0 L 20.0625 -146.625 L 101.6875 -146.625 L 101.6875 -131.578125 L 37.109375 -131.578125 L 37.109375 -77.828125 L 97.78125 -77.828125 L 97.78125 -62.875 L 37.109375 -62.875 Z M 37.109375 0 "/></g></g><g transform="translate(797.064616, 194.981361)"><g><path d="M 112.328125 -55.15625 C 112.328125 -46.132812 111.15625 -38.078125 108.8125 -30.984375 C 106.46875 -23.898438 103.085938 -17.914062 98.671875 -13.03125 C 94.265625 -8.15625 88.9375 -4.429688 82.6875 -1.859375 C 76.4375 0.710938 69.367188 2 61.484375 2 C 54.117188 2 47.378906 0.710938 41.265625 -1.859375 C 35.148438 -4.429688 29.867188 -8.15625 25.421875 -13.03125 C 20.972656 -17.914062 17.53125 -23.898438 15.09375 -30.984375 C 12.65625 -38.078125 11.4375 -46.132812 11.4375 -55.15625 C 11.4375 -67.1875 13.472656 -77.429688 17.546875 -85.890625 C 21.628906 -94.347656 27.460938 -100.800781 35.046875 -105.25 C 42.640625 -109.695312 51.679688 -111.921875 62.171875 -111.921875 C 72.203125 -111.921875 80.976562 -109.679688 88.5 -105.203125 C 96.019531 -100.722656 101.867188 -94.253906 106.046875 -85.796875 C 110.234375 -77.335938 112.328125 -67.125 112.328125 -55.15625 Z M 28.6875 -55.15625 C 28.6875 -46.332031 29.851562 -38.675781 32.1875 -32.1875 C 34.53125 -25.707031 38.140625 -20.691406 43.015625 -17.140625 C 47.898438 -13.597656 54.1875 -11.828125 61.875 -11.828125 C 69.5 -11.828125 75.765625 -13.597656 80.671875 -17.140625 C 85.585938 -20.691406 89.21875 -25.707031 91.5625 -32.1875 C 93.90625 -38.675781 95.078125 -46.332031 95.078125 -55.15625 C 95.078125 -63.914062 93.90625 -71.488281 91.5625 -77.875 C 89.21875 -84.257812 85.601562 -89.1875 80.71875 -92.65625 C 75.84375 -96.132812 69.53125 -97.875 61.78125 -97.875 C 50.34375 -97.875 41.96875 -94.097656 36.65625 -86.546875 C 31.34375 -78.992188 28.6875 -68.53125 28.6875 -55.15625 Z M 28.6875 -55.15625 "/></g></g><g transform="translate(920.615992, 194.981361)"><g><path d="M 67.5 -111.921875 C 69.695312 -111.921875 72 -111.800781 74.40625 -111.5625 C 76.820312 -111.332031 78.960938 -111.019531 80.828125 -110.625 L 78.71875 -95.171875 C 76.914062 -95.640625 74.910156 -96.003906 72.703125 -96.265625 C 70.503906 -96.535156 68.429688 -96.671875 66.484375 -96.671875 C 62.078125 -96.671875 57.914062 -95.785156 54 -94.015625 C 50.09375 -92.242188 46.664062 -89.703125 43.71875 -86.390625 C 40.78125 -83.085938 38.472656 -79.113281 36.796875 -74.46875 C 35.128906 -69.820312 34.296875 -64.65625 34.296875 -58.96875 L 34.296875 0 L 17.546875 0 L 17.546875 -109.921875 L 31.390625 -109.921875 L 33.203125 -89.65625 L 33.890625 -89.65625 C 36.171875 -93.738281 38.914062 -97.46875 42.125 -100.84375 C 45.332031 -104.21875 49.054688 -106.90625 53.296875 -108.90625 C 57.546875 -110.914062 62.28125 -111.921875 67.5 -111.921875 Z M 67.5 -111.921875 "/></g></g><g transform="translate(1004.554711, 194.981361)"><g><path d="M 136.890625 -111.921875 C 148.992188 -111.921875 158.117188 -108.757812 164.265625 -102.4375 C 170.421875 -96.125 173.5 -85.976562 173.5 -72 L 173.5 0 L 157.046875 0 L 157.046875 -71.203125 C 157.046875 -80.097656 155.125 -86.765625 151.28125 -91.203125 C 147.4375 -95.648438 141.738281 -97.875 134.1875 -97.875 C 123.550781 -97.875 115.828125 -94.796875 111.015625 -88.640625 C 106.203125 -82.492188 103.796875 -73.441406 103.796875 -61.484375 L 103.796875 0 L 87.25 0 L 87.25 -71.203125 C 87.25 -77.148438 86.394531 -82.097656 84.6875 -86.046875 C 82.988281 -89.992188 80.445312 -92.953125 77.0625 -94.921875 C 73.6875 -96.890625 69.425781 -97.875 64.28125 -97.875 C 57 -97.875 51.148438 -96.367188 46.734375 -93.359375 C 42.316406 -90.359375 39.125 -85.898438 37.15625 -79.984375 C 35.1875 -74.066406 34.203125 -66.796875 34.203125 -58.171875 L 34.203125 0 L 17.546875 0 L 17.546875 -109.921875 L 30.984375 -109.921875 L 33.5 -94.375 L 34.40625 -94.375 C 36.601562 -98.1875 39.375 -101.394531 42.71875 -104 C 46.0625 -106.601562 49.804688 -108.570312 53.953125 -109.90625 C 58.097656 -111.25 62.507812 -111.921875 67.1875 -111.921875 C 75.550781 -111.921875 82.554688 -110.363281 88.203125 -107.25 C 93.847656 -104.144531 97.941406 -99.414062 100.484375 -93.0625 L 101.390625 -93.0625 C 105.003906 -99.414062 109.953125 -104.144531 116.234375 -107.25 C 122.515625 -110.363281 129.398438 -111.921875 136.890625 -111.921875 Z M 136.890625 -111.921875 "/></g></g></g></svg>