<svg xmlns="http://www.w3.org/2000/svg" xmlns:xlink="http://www.w3.org/1999/xlink" width="1587" zoomAndPan="magnify" viewBox="0 0 1190.25 226.499992" height="302" preserveAspectRatio="xMidYMid meet" version="1.0"><defs><g/></defs><path fill="#0066ff" d="M 71.273438 12.371094 C 69.9375 14.28125 60.523438 24.726562 50.359375 35.578125 C 21.601562 66.28125 10.910156 78.597656 9.160156 83.042969 C 8.195312 85.484375 8.015625 97.257812 8.714844 112.230469 C 9.628906 131.851562 10.375 137.21875 12.136719 136.832031 C 13.378906 136.558594 28.835938 119.6875 46.488281 99.339844 L 78.582031 62.347656 L 78.570312 47.015625 C 78.554688 27.714844 76.820312 8.898438 75.054688 8.898438 C 74.316406 8.898438 72.613281 10.460938 71.273438 12.371094 M 79.917969 87.839844 C 75.0625 93.050781 40.667969 137.566406 22.632812 161.988281 C 16.066406 170.875 10.019531 180.507812 9.191406 183.394531 C 6.949219 191.21875 7.316406 215.460938 9.714844 217.863281 C 11.203125 219.351562 25.832031 219.886719 65.035156 219.886719 L 118.332031 219.886719 L 127.574219 207.648438 C 132.65625 200.917969 140.054688 190.257812 144.015625 183.960938 C 152.316406 170.761719 152.601562 172.183594 138.019531 153.746094 C 132.648438 146.957031 119.355469 129.148438 108.480469 114.179688 C 97.609375 99.207031 87.699219 86.117188 86.464844 85.09375 C 84.746094 83.667969 83.207031 84.3125 79.917969 87.839844 M 67.457031 159.433594 C 60.3125 168.890625 54.386719 177.742188 54.289062 179.105469 C 53.976562 183.351562 63.390625 184.6875 86.175781 183.625 C 115.488281 182.257812 115.90625 181.789062 102.90625 164.921875 C 97.417969 157.796875 91.410156 149.792969 89.550781 147.128906 C 87.695312 144.464844 84.882812 142.277344 83.308594 142.265625 C 81.632812 142.25 75.039062 149.394531 67.457031 159.433594 " fill-opacity="1" fill-rule="evenodd"/><g fill="#ffffff" fill-opacity="1"><g transform="translate(211.666027, 188.877046)"><g><path d="M 17.109375 -135.9375 L 59.40625 -135.9375 C 77.507812 -135.9375 91.207031 -133.394531 100.5 -128.3125 C 109.800781 -123.226562 114.453125 -114.300781 114.453125 -101.53125 C 114.453125 -96.382812 113.628906 -91.734375 111.984375 -87.578125 C 110.347656 -83.429688 107.976562 -80.023438 104.875 -77.359375 C 101.78125 -74.691406 98 -72.957031 93.53125 -72.15625 L 93.53125 -71.21875 C 98.0625 -70.289062 102.15625 -68.695312 105.8125 -66.4375 C 109.46875 -64.175781 112.394531 -60.890625 114.59375 -56.578125 C 116.789062 -52.265625 117.890625 -46.546875 117.890625 -39.421875 C 117.890625 -31.179688 115.875 -24.113281 111.84375 -18.21875 C 107.820312 -12.332031 102.078125 -7.820312 94.609375 -4.6875 C 87.140625 -1.5625 78.257812 0 67.96875 0 L 17.109375 0 Z M 45.9375 -82.09375 L 62.671875 -82.09375 C 71.035156 -82.09375 76.828125 -83.410156 80.046875 -86.046875 C 83.273438 -88.679688 84.890625 -92.570312 84.890625 -97.71875 C 84.890625 -102.925781 82.984375 -106.660156 79.171875 -108.921875 C 75.359375 -111.179688 69.332031 -112.3125 61.09375 -112.3125 L 45.9375 -112.3125 Z M 45.9375 -59.234375 L 45.9375 -23.796875 L 64.71875 -23.796875 C 73.394531 -23.796875 79.4375 -25.46875 82.84375 -28.8125 C 86.25 -32.164062 87.953125 -36.664062 87.953125 -42.3125 C 87.953125 -45.65625 87.207031 -48.597656 85.71875 -51.140625 C 84.238281 -53.679688 81.742188 -55.664062 78.234375 -57.09375 C 74.734375 -58.519531 69.914062 -59.234375 63.78125 -59.234375 Z M 45.9375 -59.234375 "/></g></g></g><g fill="#ffffff" fill-opacity="1"><g transform="translate(339.600915, 188.877046)"><g><path d="M 110.28125 -103.953125 L 110.28125 0 L 88.515625 0 L 84.703125 -13.296875 L 83.21875 -13.296875 C 80.988281 -9.765625 78.195312 -6.878906 74.84375 -4.640625 C 71.5 -2.410156 67.8125 -0.769531 63.78125 0.28125 C 59.75 1.332031 55.566406 1.859375 51.234375 1.859375 C 43.796875 1.859375 37.316406 0.539062 31.796875 -2.09375 C 26.285156 -4.726562 21.992188 -8.832031 18.921875 -14.40625 C 15.847656 -19.988281 14.3125 -27.242188 14.3125 -36.171875 L 14.3125 -103.953125 L 42.671875 -103.953125 L 42.671875 -43.234375 C 42.671875 -35.796875 44.003906 -30.1875 46.671875 -26.40625 C 49.335938 -22.625 53.582031 -20.734375 59.40625 -20.734375 C 65.175781 -20.734375 69.703125 -22.050781 72.984375 -24.6875 C 76.273438 -27.320312 78.585938 -31.195312 79.921875 -36.3125 C 81.253906 -41.425781 81.921875 -47.671875 81.921875 -55.046875 L 81.921875 -103.953125 Z M 110.28125 -103.953125 "/></g></g></g><g fill="#ffffff" fill-opacity="1"><g transform="translate(464.746534, 188.877046)"><g><path d="M 43.234375 -103.953125 L 43.234375 0 L 14.875 0 L 14.875 -103.953125 Z M 29.109375 -144.671875 C 33.316406 -144.671875 36.9375 -143.691406 39.96875 -141.734375 C 43.007812 -139.785156 44.53125 -136.148438 44.53125 -130.828125 C 44.53125 -125.554688 43.007812 -121.910156 39.96875 -119.890625 C 36.9375 -117.878906 33.316406 -116.875 29.109375 -116.875 C 24.828125 -116.875 21.179688 -117.878906 18.171875 -119.890625 C 15.171875 -121.910156 13.671875 -125.554688 13.671875 -130.828125 C 13.671875 -136.148438 15.171875 -139.785156 18.171875 -141.734375 C 21.179688 -143.691406 24.828125 -144.671875 29.109375 -144.671875 Z M 29.109375 -144.671875 "/></g></g></g><g fill="#ffffff" fill-opacity="1"><g transform="translate(522.856498, 188.877046)"><g><path d="M 43.234375 0 L 14.875 0 L 14.875 -144.671875 L 43.234375 -144.671875 Z M 43.234375 0 "/></g></g></g><g fill="#ffffff" fill-opacity="1"><g transform="translate(580.966463, 188.877046)"><g><path d="M 47.796875 1.859375 C 36.203125 1.859375 26.757812 -2.679688 19.46875 -11.765625 C 12.1875 -20.847656 8.546875 -34.191406 8.546875 -51.796875 C 8.546875 -69.578125 12.234375 -83.039062 19.609375 -92.1875 C 26.992188 -101.332031 36.632812 -105.90625 48.53125 -105.90625 C 53.488281 -105.90625 57.859375 -105.222656 61.640625 -103.859375 C 65.421875 -102.492188 68.691406 -100.664062 71.453125 -98.375 C 74.210938 -96.082031 76.550781 -93.507812 78.46875 -90.65625 L 79.40625 -90.65625 C 79.03125 -92.632812 78.578125 -95.5625 78.046875 -99.4375 C 77.523438 -103.3125 77.265625 -107.296875 77.265625 -111.390625 L 77.265625 -144.671875 L 105.71875 -144.671875 L 105.71875 0 L 83.953125 0 L 78.46875 -13.484375 L 77.265625 -13.484375 C 75.460938 -10.628906 73.210938 -8.039062 70.515625 -5.71875 C 67.828125 -3.394531 64.625 -1.550781 60.90625 -0.1875 C 57.1875 1.175781 52.816406 1.859375 47.796875 1.859375 Z M 57.734375 -20.734375 C 65.484375 -20.734375 70.953125 -23.039062 74.140625 -27.65625 C 77.335938 -32.28125 79.03125 -39.238281 79.21875 -48.53125 L 79.21875 -51.609375 C 79.21875 -61.710938 77.664062 -69.441406 74.5625 -74.796875 C 71.46875 -80.160156 65.707031 -82.84375 57.28125 -82.84375 C 51.019531 -82.84375 46.117188 -80.144531 42.578125 -74.75 C 39.046875 -69.363281 37.28125 -61.585938 37.28125 -51.421875 C 37.28125 -41.253906 39.0625 -33.597656 42.625 -28.453125 C 46.195312 -23.304688 51.234375 -20.734375 57.734375 -20.734375 Z M 57.734375 -20.734375 "/></g></g></g><g fill="#ffffff" fill-opacity="1"><g transform="translate(701.463274, 188.877046)"><g><path d="M 45.46875 0 L 17.109375 0 L 17.109375 -135.9375 L 95.03125 -135.9375 L 95.03125 -112.3125 L 45.46875 -112.3125 L 45.46875 -77.265625 L 91.578125 -77.265625 L 91.578125 -53.734375 L 45.46875 -53.734375 Z M 45.46875 0 "/></g></g></g><g fill="#ffffff" fill-opacity="1"><g transform="translate(805.968247, 188.877046)"><g><path d="M 109.34375 -52.15625 C 109.34375 -43.476562 108.179688 -35.789062 105.859375 -29.09375 C 103.535156 -22.40625 100.15625 -16.75 95.71875 -12.125 C 91.289062 -7.507812 85.960938 -4.023438 79.734375 -1.671875 C 73.503906 0.679688 66.484375 1.859375 58.671875 1.859375 C 51.359375 1.859375 44.644531 0.679688 38.53125 -1.671875 C 32.425781 -4.023438 27.128906 -7.507812 22.640625 -12.125 C 18.148438 -16.75 14.675781 -22.40625 12.21875 -29.09375 C 9.769531 -35.789062 8.546875 -43.476562 8.546875 -52.15625 C 8.546875 -63.6875 10.59375 -73.445312 14.6875 -81.4375 C 18.78125 -89.4375 24.609375 -95.515625 32.171875 -99.671875 C 39.734375 -103.828125 48.753906 -105.90625 59.234375 -105.90625 C 68.960938 -105.90625 77.59375 -103.828125 85.125 -99.671875 C 92.65625 -95.515625 98.570312 -89.4375 102.875 -81.4375 C 107.1875 -73.445312 109.34375 -63.6875 109.34375 -52.15625 Z M 37.46875 -52.15625 C 37.46875 -45.34375 38.210938 -39.609375 39.703125 -34.953125 C 41.191406 -30.304688 43.515625 -26.804688 46.671875 -24.453125 C 49.835938 -22.097656 53.960938 -20.921875 59.046875 -20.921875 C 64.066406 -20.921875 68.140625 -22.097656 71.265625 -24.453125 C 74.398438 -26.804688 76.691406 -30.304688 78.140625 -34.953125 C 79.597656 -39.609375 80.328125 -45.34375 80.328125 -52.15625 C 80.328125 -59.039062 79.597656 -64.757812 78.140625 -69.3125 C 76.691406 -73.875 74.382812 -77.300781 71.21875 -79.59375 C 68.0625 -81.882812 63.941406 -83.03125 58.859375 -83.03125 C 51.359375 -83.03125 45.914062 -80.457031 42.53125 -75.3125 C 39.15625 -70.164062 37.46875 -62.445312 37.46875 -52.15625 Z M 37.46875 -52.15625 "/></g></g></g><g fill="#ffffff" fill-opacity="1"><g transform="translate(923.861755, 188.877046)"><g><path d="M 72.890625 -105.90625 C 74.316406 -105.90625 75.972656 -105.828125 77.859375 -105.671875 C 79.753906 -105.515625 81.289062 -105.3125 82.46875 -105.0625 L 80.328125 -78.46875 C 79.398438 -78.78125 78.082031 -79.015625 76.375 -79.171875 C 74.675781 -79.328125 73.207031 -79.40625 71.96875 -79.40625 C 68.3125 -79.40625 64.757812 -78.9375 61.3125 -78 C 57.875 -77.070312 54.789062 -75.570312 52.0625 -73.5 C 49.34375 -71.425781 47.191406 -68.695312 45.609375 -65.3125 C 44.023438 -61.9375 43.234375 -57.800781 43.234375 -52.90625 L 43.234375 0 L 14.875 0 L 14.875 -103.953125 L 36.359375 -103.953125 L 40.53125 -86.46875 L 41.9375 -86.46875 C 43.976562 -90 46.53125 -93.238281 49.59375 -96.1875 C 52.664062 -99.132812 56.171875 -101.488281 60.109375 -103.25 C 64.046875 -105.019531 68.304688 -105.90625 72.890625 -105.90625 Z M 72.890625 -105.90625 "/></g></g></g><g fill="#ffffff" fill-opacity="1"><g transform="translate(1010.329339, 188.877046)"><g><path d="M 136.953125 -105.90625 C 148.734375 -105.90625 157.644531 -102.878906 163.6875 -96.828125 C 169.726562 -90.785156 172.75 -81.101562 172.75 -67.78125 L 172.75 0 L 144.296875 0 L 144.296875 -60.71875 C 144.296875 -68.15625 143.023438 -73.765625 140.484375 -77.546875 C 137.953125 -81.328125 134.019531 -83.21875 128.6875 -83.21875 C 121.1875 -83.21875 115.851562 -80.535156 112.6875 -75.171875 C 109.53125 -69.804688 107.953125 -62.132812 107.953125 -52.15625 L 107.953125 0 L 79.59375 0 L 79.59375 -60.71875 C 79.59375 -65.675781 79.035156 -69.828125 77.921875 -73.171875 C 76.804688 -76.523438 75.097656 -79.035156 72.796875 -80.703125 C 70.503906 -82.378906 67.5625 -83.21875 63.96875 -83.21875 C 58.695312 -83.21875 54.554688 -81.898438 51.546875 -79.265625 C 48.546875 -76.628906 46.410156 -72.753906 45.140625 -67.640625 C 43.867188 -62.523438 43.234375 -56.28125 43.234375 -48.90625 L 43.234375 0 L 14.875 0 L 14.875 -103.953125 L 36.546875 -103.953125 L 40.359375 -90.65625 L 41.9375 -90.65625 C 44.039062 -94.25 46.6875 -97.160156 49.875 -99.390625 C 53.070312 -101.628906 56.59375 -103.273438 60.4375 -104.328125 C 64.28125 -105.378906 68.1875 -105.90625 72.15625 -105.90625 C 79.78125 -105.90625 86.238281 -104.664062 91.53125 -102.1875 C 96.832031 -99.707031 100.910156 -95.863281 103.765625 -90.65625 L 106.28125 -90.65625 C 109.375 -95.988281 113.753906 -99.863281 119.421875 -102.28125 C 125.097656 -104.695312 130.941406 -105.90625 136.953125 -105.90625 Z M 136.953125 -105.90625 "/></g></g></g></svg>