<svg xmlns="http://www.w3.org/2000/svg" xmlns:xlink="http://www.w3.org/1999/xlink" width="300" zoomAndPan="magnify" viewBox="0 0 224.87999 60" height="80" preserveAspectRatio="xMidYMid meet" version="1.0"><defs><g/><clipPath id="d1e47efe01"><path d="M 1 8 L 31 8 L 31 52.707031 L 1 52.707031 Z M 1 8 " clip-rule="nonzero"/></clipPath><clipPath id="a281bac44c"><path d="M 192 23 L 224.761719 23 L 224.761719 42 L 192 42 Z M 192 23 " clip-rule="nonzero"/></clipPath></defs><g clip-path="url(#d1e47efe01)"><path fill="#0066ff" d="M 14.640625 8.9375 C 14.363281 9.332031 12.40625 11.507812 10.289062 13.765625 C 4.304688 20.152344 2.082031 22.71875 1.71875 23.640625 C 1.515625 24.148438 1.480469 26.597656 1.625 29.714844 C 1.816406 33.796875 1.96875 34.914062 2.335938 34.832031 C 2.59375 34.777344 5.8125 31.265625 9.484375 27.03125 L 16.164062 19.335938 L 16.160156 16.144531 C 16.15625 12.128906 15.796875 8.214844 15.429688 8.214844 C 15.273438 8.214844 14.921875 8.539062 14.640625 8.9375 M 16.441406 24.640625 C 15.429688 25.722656 8.273438 34.988281 4.519531 40.070312 C 3.15625 41.917969 1.894531 43.921875 1.722656 44.523438 C 1.257812 46.152344 1.332031 51.195312 1.832031 51.695312 C 2.144531 52.003906 5.1875 52.117188 13.34375 52.117188 L 24.433594 52.117188 L 26.355469 49.570312 C 27.414062 48.167969 28.953125 45.949219 29.777344 44.640625 C 31.503906 41.894531 31.5625 42.191406 28.53125 38.351562 C 27.414062 36.941406 24.648438 33.234375 22.382812 30.121094 C 20.121094 27.003906 18.058594 24.28125 17.804688 24.066406 C 17.445312 23.773438 17.125 23.90625 16.441406 24.640625 M 13.847656 39.535156 C 12.363281 41.503906 11.128906 43.347656 11.109375 43.628906 C 11.042969 44.515625 13.003906 44.792969 17.742188 44.570312 C 23.84375 44.285156 23.929688 44.1875 21.222656 40.679688 C 20.082031 39.195312 18.832031 37.53125 18.445312 36.976562 C 18.058594 36.421875 17.472656 35.96875 17.144531 35.964844 C 16.796875 35.960938 15.425781 37.449219 13.847656 39.535156 " fill-opacity="1" fill-rule="evenodd"/></g><g fill="#ffffff" fill-opacity="1"><g transform="translate(38.112592, 41.856251)"><g><path d="M 0.828125 0 L 0.828125 -0.375 L 1.515625 -0.640625 C 2.023438 -0.847656 2.375 -1.101562 2.5625 -1.40625 C 2.75 -1.707031 2.84375 -2.113281 2.84375 -2.625 L 2.84375 -22.453125 C 2.84375 -22.984375 2.75 -23.398438 2.5625 -23.703125 C 2.375 -24.003906 2.023438 -24.242188 1.515625 -24.421875 L 0.828125 -24.6875 L 0.828125 -25.0625 L 11.734375 -25.0625 C 14.828125 -25.0625 17.054688 -24.5 18.421875 -23.375 C 19.785156 -22.25 20.46875 -20.828125 20.46875 -19.109375 C 20.46875 -17.816406 19.96875 -16.644531 18.96875 -15.59375 C 17.96875 -14.539062 16.253906 -13.800781 13.828125 -13.375 C 16.609375 -13.070312 18.644531 -12.34375 19.9375 -11.1875 C 21.226562 -10.03125 21.875 -8.628906 21.875 -6.984375 C 21.875 -6.179688 21.695312 -5.363281 21.34375 -4.53125 C 20.988281 -3.707031 20.382812 -2.953125 19.53125 -2.265625 C 18.6875 -1.585938 17.53125 -1.039062 16.0625 -0.625 C 14.59375 -0.207031 12.734375 0 10.484375 0 Z M 8.46875 -13.40625 L 10.109375 -13.40625 C 11.804688 -13.40625 13.023438 -13.796875 13.765625 -14.578125 C 14.515625 -15.367188 14.890625 -16.738281 14.890625 -18.6875 C 14.890625 -20.71875 14.546875 -22.160156 13.859375 -23.015625 C 13.179688 -23.878906 12.066406 -24.3125 10.515625 -24.3125 L 8.46875 -24.3125 Z M 8.46875 -0.765625 L 10.375 -0.765625 C 12.269531 -0.765625 13.675781 -1.269531 14.59375 -2.28125 C 15.519531 -3.289062 15.984375 -4.875 15.984375 -7.03125 C 15.984375 -9.050781 15.539062 -10.492188 14.65625 -11.359375 C 13.769531 -12.222656 12.316406 -12.65625 10.296875 -12.65625 L 8.46875 -12.65625 Z M 8.46875 -0.765625 "/></g></g></g><g fill="#ffffff" fill-opacity="1"><g transform="translate(60.822118, 41.856251)"><g><path d="M 7.640625 0.5625 C 6.648438 0.5625 5.742188 0.375 4.921875 0 C 4.097656 -0.375 3.453125 -0.984375 2.984375 -1.828125 C 2.515625 -2.679688 2.289062 -3.804688 2.3125 -5.203125 L 2.4375 -14.96875 C 2.4375 -15.550781 2.332031 -15.96875 2.125 -16.21875 C 1.925781 -16.46875 1.609375 -16.644531 1.171875 -16.75 L 0.71875 -16.90625 L 0.71875 -17.28125 L 7.515625 -18.609375 L 7.90625 -18.234375 L 7.703125 -12.84375 L 7.703125 -3.6875 C 7.703125 -2.875 7.9375 -2.273438 8.40625 -1.890625 C 8.875 -1.515625 9.46875 -1.328125 10.1875 -1.328125 C 10.894531 -1.328125 11.523438 -1.425781 12.078125 -1.625 C 12.640625 -1.832031 13.195312 -2.140625 13.75 -2.546875 L 13.90625 -14.921875 C 13.90625 -15.503906 13.816406 -15.914062 13.640625 -16.15625 C 13.460938 -16.394531 13.132812 -16.566406 12.65625 -16.671875 L 12.265625 -16.796875 L 12.265625 -17.171875 L 18.921875 -18.609375 L 19.296875 -18.234375 L 19.1875 -12.84375 L 19.1875 -2.546875 C 19.1875 -1.984375 19.257812 -1.550781 19.40625 -1.25 C 19.5625 -0.945312 19.890625 -0.695312 20.390625 -0.5 L 20.78125 -0.375 L 20.78125 0 L 14.125 0.375 L 13.78125 -1.859375 C 12.945312 -1.171875 12.039062 -0.59375 11.0625 -0.125 C 10.09375 0.332031 8.953125 0.5625 7.640625 0.5625 Z M 7.640625 0.5625 "/></g></g></g><g fill="#ffffff" fill-opacity="1"><g transform="translate(82.354403, 41.856251)"><g><path d="M 5.3125 -20.8125 C 4.457031 -20.8125 3.726562 -21.082031 3.125 -21.625 C 2.53125 -22.175781 2.234375 -22.867188 2.234375 -23.703125 C 2.234375 -24.566406 2.53125 -25.265625 3.125 -25.796875 C 3.726562 -26.328125 4.457031 -26.59375 5.3125 -26.59375 C 6.175781 -26.59375 6.898438 -26.328125 7.484375 -25.796875 C 8.066406 -25.265625 8.359375 -24.566406 8.359375 -23.703125 C 8.359375 -22.867188 8.066406 -22.175781 7.484375 -21.625 C 6.898438 -21.082031 6.175781 -20.8125 5.3125 -20.8125 Z M 0.828125 0 L 0.828125 -0.375 L 1.375 -0.53125 C 1.875 -0.6875 2.21875 -0.914062 2.40625 -1.21875 C 2.601562 -1.519531 2.703125 -1.925781 2.703125 -2.4375 L 2.703125 -14.3125 C 2.703125 -14.851562 2.601562 -15.253906 2.40625 -15.515625 C 2.21875 -15.785156 1.875 -15.96875 1.375 -16.0625 L 0.828125 -16.1875 L 0.828125 -16.5625 L 7.78125 -18.796875 L 8.171875 -18.421875 L 8.046875 -13.03125 L 8.046875 -2.390625 C 8.046875 -1.890625 8.140625 -1.484375 8.328125 -1.171875 C 8.523438 -0.867188 8.863281 -0.644531 9.34375 -0.5 L 9.71875 -0.375 L 9.71875 0 Z M 0.828125 0 "/></g></g></g><g fill="#ffffff" fill-opacity="1"><g transform="translate(92.987624, 41.856251)"><g><path d="M 0.875 0 L 0.875 -0.375 L 1.328125 -0.53125 C 2.242188 -0.832031 2.703125 -1.46875 2.703125 -2.4375 L 2.703125 -22.75 C 2.703125 -23.257812 2.597656 -23.644531 2.390625 -23.90625 C 2.191406 -24.175781 1.835938 -24.375 1.328125 -24.5 L 0.828125 -24.609375 L 0.828125 -25 L 7.78125 -26.625 L 8.25 -26.28125 L 8.09375 -20.96875 L 8.09375 -7.984375 C 8.09375 -7.046875 8.097656 -6.113281 8.109375 -5.1875 C 8.117188 -4.257812 8.125 -3.34375 8.125 -2.4375 C 8.125 -1.925781 8.222656 -1.507812 8.421875 -1.1875 C 8.628906 -0.875 8.972656 -0.644531 9.453125 -0.5 L 9.953125 -0.375 L 9.953125 0 Z M 0.875 0 "/></g></g></g><g fill="#ffffff" fill-opacity="1"><g transform="translate(103.848694, 41.856251)"><g><path d="M 8.8125 0.5625 C 7.320312 0.5625 5.976562 0.226562 4.78125 -0.4375 C 3.59375 -1.101562 2.648438 -2.140625 1.953125 -3.546875 C 1.253906 -4.953125 0.90625 -6.757812 0.90625 -8.96875 C 0.90625 -11.195312 1.296875 -13.035156 2.078125 -14.484375 C 2.867188 -15.941406 3.910156 -17.03125 5.203125 -17.75 C 6.492188 -18.476562 7.898438 -18.84375 9.421875 -18.84375 C 10.304688 -18.84375 11.15625 -18.753906 11.96875 -18.578125 C 12.78125 -18.398438 13.5 -18.132812 14.125 -17.78125 L 14.125 -22.71875 C 14.125 -23.25 14.039062 -23.640625 13.875 -23.890625 C 13.71875 -24.140625 13.375 -24.316406 12.84375 -24.421875 L 12.109375 -24.578125 L 12.109375 -24.953125 L 19.03125 -26.625 L 19.453125 -26.28125 L 19.296875 -20.96875 L 19.296875 -2.390625 C 19.296875 -1.890625 19.382812 -1.476562 19.5625 -1.15625 C 19.738281 -0.84375 20.066406 -0.625 20.546875 -0.5 L 20.890625 -0.375 L 20.890625 0 L 14.390625 0.421875 L 14.046875 -0.953125 C 13.367188 -0.492188 12.59375 -0.128906 11.71875 0.140625 C 10.84375 0.421875 9.875 0.5625 8.8125 0.5625 Z M 11.015625 -0.828125 C 12.078125 -0.828125 13.050781 -1.144531 13.9375 -1.78125 L 13.9375 -16.859375 C 13 -17.472656 12.035156 -17.78125 11.046875 -17.78125 C 9.835938 -17.78125 8.800781 -17.078125 7.9375 -15.671875 C 7.070312 -14.265625 6.640625 -12.054688 6.640625 -9.046875 C 6.640625 -6.023438 7.046875 -3.898438 7.859375 -2.671875 C 8.671875 -1.441406 9.722656 -0.828125 11.015625 -0.828125 Z M 11.015625 -0.828125 "/></g></g></g><g fill="#ffffff" fill-opacity="1"><g transform="translate(125.646803, 41.856251)"><g/></g></g><g fill="#ffffff" fill-opacity="1"><g transform="translate(133.925522, 41.856251)"><g><path d="M 0.828125 0 L 0.828125 -0.375 L 1.515625 -0.609375 C 2.023438 -0.785156 2.367188 -1.023438 2.546875 -1.328125 C 2.722656 -1.628906 2.8125 -2.035156 2.8125 -2.546875 C 2.832031 -4.066406 2.84375 -5.597656 2.84375 -7.140625 C 2.84375 -8.679688 2.84375 -10.226562 2.84375 -11.78125 L 2.84375 -13.296875 C 2.84375 -14.816406 2.84375 -16.34375 2.84375 -17.875 C 2.84375 -19.40625 2.832031 -20.929688 2.8125 -22.453125 C 2.8125 -22.953125 2.738281 -23.351562 2.59375 -23.65625 C 2.457031 -23.96875 2.148438 -24.210938 1.671875 -24.390625 L 0.828125 -24.6875 L 0.828125 -25.0625 L 19.21875 -25.0625 L 19.484375 -18.765625 L 19.109375 -18.765625 L 16.9375 -22.75 C 16.6875 -23.226562 16.394531 -23.609375 16.0625 -23.890625 C 15.738281 -24.171875 15.285156 -24.3125 14.703125 -24.3125 L 8.578125 -24.3125 C 8.554688 -22.507812 8.546875 -20.671875 8.546875 -18.796875 C 8.546875 -16.921875 8.546875 -15.0625 8.546875 -13.21875 L 12.5 -13.21875 C 13.082031 -13.21875 13.507812 -13.34375 13.78125 -13.59375 C 14.0625 -13.851562 14.332031 -14.222656 14.59375 -14.703125 L 15.390625 -16.140625 L 15.765625 -16.140625 L 15.765625 -9.5 L 15.390625 -9.5 L 14.546875 -10.9375 C 14.296875 -11.394531 14.035156 -11.757812 13.765625 -12.03125 C 13.503906 -12.3125 13.082031 -12.453125 12.5 -12.453125 L 8.546875 -12.453125 C 8.546875 -10.679688 8.546875 -8.988281 8.546875 -7.375 C 8.546875 -5.769531 8.554688 -4.195312 8.578125 -2.65625 C 8.578125 -1.664062 9.0625 -1.019531 10.03125 -0.71875 L 11.171875 -0.375 L 11.171875 0 Z M 0.828125 0 "/></g></g></g><g fill="#ffffff" fill-opacity="1"><g transform="translate(154.356496, 41.856251)"><g><path d="M 10.375 0.5625 C 8.445312 0.5625 6.773438 0.164062 5.359375 -0.625 C 3.941406 -1.425781 2.84375 -2.5625 2.0625 -4.03125 C 1.289062 -5.5 0.90625 -7.21875 0.90625 -9.1875 C 0.90625 -11.164062 1.316406 -12.875 2.140625 -14.3125 C 2.960938 -15.757812 4.085938 -16.875 5.515625 -17.65625 C 6.953125 -18.445312 8.570312 -18.84375 10.375 -18.84375 C 12.164062 -18.84375 13.769531 -18.453125 15.1875 -17.671875 C 16.613281 -16.898438 17.738281 -15.789062 18.5625 -14.34375 C 19.382812 -12.90625 19.796875 -11.1875 19.796875 -9.1875 C 19.796875 -7.1875 19.40625 -5.457031 18.625 -4 C 17.851562 -2.550781 16.765625 -1.425781 15.359375 -0.625 C 13.953125 0.164062 12.289062 0.5625 10.375 0.5625 Z M 10.375 -0.1875 C 11.257812 -0.1875 11.96875 -0.4375 12.5 -0.9375 C 13.03125 -1.445312 13.414062 -2.347656 13.65625 -3.640625 C 13.894531 -4.929688 14.015625 -6.753906 14.015625 -9.109375 C 14.015625 -11.492188 13.894531 -13.332031 13.65625 -14.625 C 13.414062 -15.914062 13.03125 -16.8125 12.5 -17.3125 C 11.96875 -17.820312 11.257812 -18.078125 10.375 -18.078125 C 9.488281 -18.078125 8.769531 -17.820312 8.21875 -17.3125 C 7.675781 -16.8125 7.285156 -15.914062 7.046875 -14.625 C 6.804688 -13.332031 6.6875 -11.492188 6.6875 -9.109375 C 6.6875 -6.753906 6.804688 -4.929688 7.046875 -3.640625 C 7.285156 -2.347656 7.675781 -1.445312 8.21875 -0.9375 C 8.769531 -0.4375 9.488281 -0.1875 10.375 -0.1875 Z M 10.375 -0.1875 "/></g></g></g><g fill="#ffffff" fill-opacity="1"><g transform="translate(175.053315, 41.856251)"><g><path d="M 0.765625 0 L 0.765625 -0.375 L 1.328125 -0.53125 C 1.835938 -0.6875 2.1875 -0.914062 2.375 -1.21875 C 2.5625 -1.519531 2.65625 -1.910156 2.65625 -2.390625 L 2.65625 -14.28125 C 2.65625 -14.84375 2.5625 -15.253906 2.375 -15.515625 C 2.1875 -15.785156 1.835938 -15.96875 1.328125 -16.0625 L 0.765625 -16.21875 L 0.765625 -16.59375 L 7.296875 -18.796875 L 7.671875 -18.421875 L 8.015625 -15.15625 L 8.015625 -14.859375 C 8.367188 -15.566406 8.828125 -16.21875 9.390625 -16.8125 C 9.960938 -17.40625 10.597656 -17.890625 11.296875 -18.265625 C 11.992188 -18.648438 12.6875 -18.84375 13.375 -18.84375 C 14.332031 -18.84375 15.0625 -18.578125 15.5625 -18.046875 C 16.070312 -17.515625 16.328125 -16.84375 16.328125 -16.03125 C 16.328125 -15.164062 16.082031 -14.5 15.59375 -14.03125 C 15.101562 -13.5625 14.515625 -13.328125 13.828125 -13.328125 C 12.765625 -13.328125 11.828125 -13.859375 11.015625 -14.921875 L 10.9375 -15 C 10.6875 -15.351562 10.394531 -15.550781 10.0625 -15.59375 C 9.738281 -15.632812 9.4375 -15.476562 9.15625 -15.125 C 8.90625 -14.894531 8.695312 -14.617188 8.53125 -14.296875 C 8.363281 -13.984375 8.203125 -13.625 8.046875 -13.21875 L 8.046875 -2.625 C 8.046875 -1.601562 8.488281 -0.96875 9.375 -0.71875 L 10.59375 -0.375 L 10.59375 0 Z M 0.765625 0 "/></g></g></g><g clip-path="url(#a281bac44c)"><g fill="#ffffff" fill-opacity="1"><g transform="translate(191.800647, 41.856251)"><g><path d="M 0.765625 0 L 0.765625 -0.375 L 1.296875 -0.53125 C 1.773438 -0.65625 2.109375 -0.867188 2.296875 -1.171875 C 2.484375 -1.484375 2.59375 -1.890625 2.625 -2.390625 L 2.625 -14.28125 C 2.625 -14.84375 2.535156 -15.253906 2.359375 -15.515625 C 2.179688 -15.785156 1.835938 -15.96875 1.328125 -16.0625 L 0.765625 -16.21875 L 0.765625 -16.59375 L 7.25 -18.796875 L 7.640625 -18.421875 L 7.9375 -15.84375 C 8.769531 -16.675781 9.722656 -17.382812 10.796875 -17.96875 C 11.878906 -18.550781 13.003906 -18.84375 14.171875 -18.84375 C 15.378906 -18.84375 16.347656 -18.59375 17.078125 -18.09375 C 17.816406 -17.601562 18.378906 -16.835938 18.765625 -15.796875 C 19.753906 -16.734375 20.820312 -17.472656 21.96875 -18.015625 C 23.125 -18.566406 24.242188 -18.84375 25.328125 -18.84375 C 27.128906 -18.84375 28.453125 -18.410156 29.296875 -17.546875 C 30.148438 -16.679688 30.578125 -15.328125 30.578125 -13.484375 L 30.578125 -2.359375 C 30.578125 -1.367188 31.03125 -0.75 31.9375 -0.5 L 32.359375 -0.375 L 32.359375 0 L 23.59375 0 L 23.59375 -0.375 L 23.96875 -0.5 C 24.445312 -0.644531 24.78125 -0.867188 24.96875 -1.171875 C 25.164062 -1.484375 25.265625 -1.890625 25.265625 -2.390625 L 25.265625 -14.015625 C 25.265625 -15.078125 25.070312 -15.804688 24.6875 -16.203125 C 24.3125 -16.597656 23.703125 -16.796875 22.859375 -16.796875 C 22.203125 -16.796875 21.5625 -16.648438 20.9375 -16.359375 C 20.320312 -16.066406 19.671875 -15.628906 18.984375 -15.046875 C 19.117188 -14.640625 19.203125 -14.191406 19.234375 -13.703125 C 19.273438 -13.222656 19.296875 -12.71875 19.296875 -12.1875 L 19.296875 -2.359375 C 19.316406 -1.367188 19.769531 -0.75 20.65625 -0.5 L 21 -0.375 L 21 0 L 12.1875 0 L 12.1875 -0.375 L 12.71875 -0.53125 C 13.207031 -0.6875 13.546875 -0.910156 13.734375 -1.203125 C 13.921875 -1.492188 14.015625 -1.890625 14.015625 -2.390625 L 14.015625 -13.984375 C 14.015625 -14.992188 13.832031 -15.710938 13.46875 -16.140625 C 13.101562 -16.578125 12.472656 -16.796875 11.578125 -16.796875 C 11.003906 -16.796875 10.425781 -16.648438 9.84375 -16.359375 C 9.257812 -16.066406 8.648438 -15.640625 8.015625 -15.078125 L 8.015625 -2.359375 C 8.015625 -1.367188 8.457031 -0.75 9.34375 -0.5 L 9.6875 -0.375 L 9.6875 0 Z M 0.765625 0 "/></g></g></g></g></svg>