<svg xmlns="http://www.w3.org/2000/svg" xmlns:xlink="http://www.w3.org/1999/xlink" width="200" zoomAndPan="magnify" viewBox="0 0 150 149.999998" height="200" preserveAspectRatio="xMidYMid meet" version="1.0"><path fill="#0066ff" d="M 70.179688 8.25 C 69.296875 9.511719 63.085938 16.398438 56.378906 23.5625 C 37.410156 43.816406 30.355469 51.941406 29.199219 54.871094 C 28.566406 56.484375 28.445312 64.25 28.90625 74.128906 C 29.511719 87.074219 30.003906 90.613281 31.164062 90.359375 C 31.984375 90.179688 42.179688 79.046875 53.824219 65.625 L 75 41.21875 L 74.992188 31.105469 C 74.980469 18.371094 73.835938 5.960938 72.671875 5.960938 C 72.183594 5.960938 71.0625 6.992188 70.179688 8.25 M 75.882812 58.035156 C 72.675781 61.476562 49.988281 90.84375 38.089844 106.953125 C 33.757812 112.820312 29.769531 119.171875 29.222656 121.078125 C 27.742188 126.238281 27.984375 142.234375 29.566406 143.816406 C 30.550781 144.796875 40.199219 145.152344 66.0625 145.152344 L 101.222656 145.152344 L 107.320312 137.078125 C 110.671875 132.636719 115.554688 125.605469 118.167969 121.449219 C 123.644531 112.742188 123.832031 113.679688 114.210938 101.515625 C 110.667969 97.039062 101.898438 85.289062 94.726562 75.414062 C 87.550781 65.539062 81.015625 56.902344 80.199219 56.226562 C 79.066406 55.285156 78.050781 55.710938 75.882812 58.035156 M 67.660156 105.269531 C 62.949219 111.507812 59.039062 117.347656 58.972656 118.25 C 58.765625 121.046875 64.980469 121.929688 80.007812 121.226562 C 99.347656 120.324219 99.621094 120.019531 91.046875 108.890625 C 87.425781 104.191406 83.460938 98.910156 82.238281 97.152344 C 81.011719 95.394531 79.15625 93.949219 78.117188 93.941406 C 77.011719 93.933594 72.664062 98.644531 67.660156 105.269531 " fill-opacity="1" fill-rule="evenodd"/></svg>